<svg x="0px" y="0px" viewBox="0 0 272.3 27.1">
	<g>
		<rect x="177.6" y="12.6" fill="none" width="94.7" height="14.5"/>
		<text transform="matrix(1 0 0 1 219.1693 21.7756)" fill="#818285" font-family="'Roboto-Regular'" font-size="12">XXXXXXX</text>
	</g>
	<g>
		<path fill="none" d="M171,25.7h-41c-0.1,0-0.1-0.1-0.1-0.2V12.8c0-0.1,0.1-0.2,0.1-0.2h41c0.1,0,0.1,0.1,0.1,0.2v12.7 C171.1,25.6,171.1,25.7,171,25.7z" />
		<text transform="matrix(1 0 0 1 129.9142 21.7756)" fill="#818285" font-family="'Roboto-Regular'" font-size="12">0</text>
	</g>
	<linearGradient gradientUnits="userSpaceOnUse" x1="172.5172" y1="-228.251" x2="314.7942" y2="-228.251" gradientTransform="matrix(1 0 0 1 -43 233.3822)">
		<stop offset="1.082191e-02" style="stop-color:#FFFFFF" />
		<stop offset="5.005246e-02" style="stop-color:#FFF2EA" />
		<stop offset="0.1242" style="stop-color:#FDD7C3" />
		<stop offset="0.2255" style="stop-color:#F9AD8B" />
		<stop offset="0.3486" style="stop-color:#F4774C" />
		<stop offset="0.438" style="stop-color:#EF4523" />
		<stop offset="0.515" style="stop-color:#DA4023" />
		<stop offset="0.6606" style="stop-color:#B33621" />
		<stop offset="0.8575" style="stop-color:#792418" />
		<stop offset="1" style="stop-color:#53140C" />
	</linearGradient>
	<path fill="url(#SVGID_1_)" d="M129.8,1.1h142v8h-142c-0.2,0-0.3-0.1-0.3-0.3V1.4C129.5,1.3,129.6,1.1,129.8,1.1z"/>
	<g>
		<path fill="none" d="M109.7,27.1H0.2C0.1,27.1,0,27.1,0,27V1.3c0-0.1,0.1-0.2,0.2-0.2h109.5c0.1,0,0.2,0.1,0.2,0.2V27 C109.9,27.1,109.8,27.1,109.7,27.1z"/>
		<text transform="matrix(1 0 0 1 45.4762 10.2654)" fill="#818285" font-family="'Roboto-Regular'" font-size="12">Cantidad de </text>
		<text transform="matrix(1 0 0 1 8.1745 22.2654)" fill="#818285" font-family="'Roboto-Regular'" font-size="12">habitantes por km</text>
		<text transform="matrix(0.583 0 0 0.583 105.944 18.2693)" fill="#818285" font-family="'Roboto-Regular'" font-size="12">2</text>
	</g>
	<path fill="#818285" d="M39.5,9.9h-9.8c-0.1,0-0.3-0.1-0.3-0.3c0-0.1,0-0.1,0-0.2c-0.1-1,0.5-1.9,1.5-2.2c0.6-0.2,1.2-0.4,1.8-0.6 c0.2-0.1,0.5-0.2,0.7-0.4c0.2-0.1,0.2-0.3,0-0.5C32.7,5,32.3,4,32.3,3c0-1.3,1.2-2.4,2.3-2.3c1.2,0.1,2.2,1.3,2.1,2.5 c-0.1,1-0.5,1.9-1.1,2.6c-0.2,0.2-0.2,0.4,0,0.5c0.2,0.1,0.4,0.3,0.7,0.4c0.6,0.2,1.2,0.4,1.8,0.5c1.1,0.3,1.7,1.3,1.7,2.4 c0,0,0,0,0,0C39.8,9.8,39.6,9.9,39.5,9.9z"/>
</svg>
