<svg x="0px" y="0px" viewBox="0 0 209.5 336.8">
	<g>
		<polygon fill-rule="evenodd" clip-rule="evenodd" fill="none" stroke="#A5A7AA" stroke-width="0.5" stroke-linecap="round" stroke-linejoin="round" stroke-miterlimit="10" points="
		137.3,55 139.5,58.8 139.7,60.4 141.4,62.2 148.9,57.8 151.3,57.5 155.7,54.3 157.5,45.8 156.4,43.6 155.1,38.9 149.2,39.9
		148.2,47 143.2,51.4" />
		<polygon fill-rule="evenodd" clip-rule="evenodd" fill="none" stroke="#A5A7AA" stroke-width="0.5" stroke-linecap="round" stroke-linejoin="round" stroke-miterlimit="10" points="
		136.3,65.5 130.9,72.2 126.1,78 120.5,83.1 117.7,89.3 113,84.9 101.1,86.1 101.3,82.2 105,71.3 106.1,62.9 108.5,60.2 109.7,55.4
		118.6,56.3 133.6,56.8 137.3,55 139.5,58.8 139.7,60.4 141.4,62.2" />
		<polygon fill-rule="evenodd" clip-rule="evenodd" fill="none" stroke="#A5A7AA" stroke-width="0.5" stroke-linecap="round" stroke-linejoin="round" stroke-miterlimit="10" points="
		77.7,7 78.9,8.5 81,9.6 89.5,17.2 95.6,22.7 100.9,23.4 111.1,30.2 113,32.2 116.1,32.4 120.7,35.1 121.1,37.1 116.1,44
		114.2,50.7 103,43.6 101.1,40 92.7,32.4 84.9,27.7 83.9,26.2 77.7,23.7" />
		<polygon fill-rule="evenodd" clip-rule="evenodd" fill="none" stroke="#A5A7AA" stroke-width="0.5" stroke-linecap="round" stroke-linejoin="round" stroke-miterlimit="10" points="
		49.6,85.4 45.9,76.7 40,72 39.3,69.1 35.5,66.4 33,67.7 28.7,67.3 20.7,62.6 14.6,61.5 11.6,66.8 15.9,69.3 18.9,72.4 19.4,79.1
		25.7,82.3 29.4,85.6 33.9,91.4 35.3,96.8 37.3,102.6 41.8,103 45.3,102.4 45.3,90.7" />
		<polyline fill-rule="evenodd" clip-rule="evenodd" fill="none" stroke="#A5A7AA" stroke-width="0.5" stroke-linecap="round" stroke-linejoin="round" stroke-miterlimit="10" points="
		53.2,56.6 53,60.8 50.9,61.5 47.3,62.6 44.1,59.2 44.1,56.1 42.8,54.6 43.4,50.5 41.2,48.3 41.2,46 45.3,45.8 46.8,43.6 56.8,45.4 "/>
		<polygon fill-rule="evenodd" clip-rule="evenodd" fill="none" stroke="#A5A7AA" stroke-width="0.5" stroke-linecap="round" stroke-linejoin="round" stroke-miterlimit="10" points="
		33.4,102.8 33.2,107.7 29.8,106.2 25.5,105.5 23.2,107.9 20,108.6 20,105.9 14.6,106.6 13.7,109.3 8.2,110.4 6.9,107.5 7.3,105.5
		5,103.7 4.6,97.7 6.6,92.5 8.7,86.7 6.9,77.1 9.1,75.3 11.6,66.8 15.9,69.3 18.9,72.4 19.4,79.1 25.7,82.3 29.4,85.6 33.9,91.4
		35.3,96.8 37.3,102.6" />
		<polygon fill-rule="evenodd" clip-rule="evenodd" fill="none" stroke="#A5A7AA" stroke-width="0.5" stroke-linecap="round" stroke-linejoin="round" stroke-miterlimit="10" points="
		77.7,86.1 83,65.3 82.9,62.9 106.1,62.9 105,71.3 101.3,82.2 101.1,86.1 99.8,90.3 96.4,95 93.6,99.2 91.8,102.1 91.6,108.4
		95.5,116.7 93.2,119.3 89.8,119.1 82.7,127.2 68,127.2 81.1,111.3 79.1,106.4 78,102.4 80.7,91.2" />
		<polygon fill-rule="evenodd" clip-rule="evenodd" fill="none" stroke="#A5A7AA" stroke-width="0.5" stroke-linecap="round" stroke-linejoin="round" stroke-miterlimit="10" points="
		33.4,102.8 33.2,107.7 33.7,112.4 35.3,117.3 40.3,126.5 41.8,131.4 40.9,141.4 52.8,141.4 52.8,115.5 54.3,110.6 54.1,106.6
		51.8,106.2 50.5,104.1 45.3,102.4 41.8,103 37.3,102.6" />
		<polygon fill-rule="evenodd" clip-rule="evenodd" fill="none" stroke="#A5A7AA" stroke-width="0.5" stroke-linecap="round" stroke-linejoin="round" stroke-miterlimit="10" points="
		52.8,133.6 52.8,115.5 54.3,110.6 54.1,106.6 51.8,106.2 50.5,104.1 45.3,102.4 45.3,90.7 49.6,85.4 52.3,84.5 55,82 55.5,78.7
		59.1,77.3 64.8,78.5 72.3,79.3 75.2,85.4 77.7,86.1 80.7,91.2 78,102.4 79.1,106.4 81.1,111.3 68,127.2 68,133.6" />
		<polygon fill-rule="evenodd" clip-rule="evenodd" fill="none" stroke="#A5A7AA" stroke-width="0.5" stroke-linecap="round" stroke-linejoin="round" stroke-miterlimit="10" points="
		8.2,110.4 13.7,109.3 14.6,106.6 20,105.9 20,108.6 23.2,107.9 25.5,105.5 29.8,106.2 33.2,107.7 33.7,112.4 35.3,117.3
		40.3,126.5 41.8,131.4 40.9,141.4 29.4,141.4 29.4,161.1 21.4,157.8 16.9,156.6 14.6,153.5 10.7,151.9 8.2,147.9 8.2,139.9
		6.9,138.1 8.5,136.1 10.7,128 11.9,126.3 11.9,118 9.6,116.2" />
		<polygon fill-rule="evenodd" clip-rule="evenodd" fill="none" stroke="#A5A7AA" stroke-width="0.5" stroke-linecap="round" stroke-linejoin="round" stroke-miterlimit="10" points="
		26.4,177.9 30.3,175.8 29.4,173.2 29.4,161.1 21.4,157.8 16.9,156.6 14.6,153.5 10.7,151.9 8.2,147.9 5.5,149.5 3.5,156.4
		4.1,160.4 3.5,164.7 7.5,172.3 3.2,176.7 2.8,183.4 0.5,184.8 1.9,191.5 1,194.2 1.9,198.6 7.8,198.2 8.9,193.9 13.9,191.9
		16.9,187 17.8,184.6" />
		<polygon fill-rule="evenodd" clip-rule="evenodd" fill="none" stroke="#A5A7AA" stroke-width="0.5" stroke-linecap="round" stroke-linejoin="round" stroke-miterlimit="10" points="
		29.4,161.1 29.4,141.4 40.9,141.4 52.8,141.4 52.8,133.6 68,133.6 68,178.3 59.6,173.6 50.5,173.4 44.3,172.5 38.7,169.4
		34.6,168.5 33.2,163.8 31.4,161.8" />
		<polygon fill-rule="evenodd" clip-rule="evenodd" fill="none" stroke="#A5A7AA" stroke-width="0.5" stroke-linecap="round" stroke-linejoin="round" stroke-miterlimit="10" points="
		111.4,124.5 106.1,122.9 101.8,119.8 95.5,116.7 93.2,119.3 89.8,119.1 82.7,127.2 68,127.2 68,178.3 68,191.3 71.2,192.8
		73.2,195.3 77.3,191.3 76.4,186.8 77.3,181 79.1,180.1 77.3,175.6 76.4,171.4 77.3,170.3 80.7,172 88.2,172.9 95.2,172.5
		102.7,170.7 111.8,167.1 118.2,161.3 123.9,152.8 123.9,147 120.5,147 118.9,142.3 119.8,138.3 119.3,135.6 114.3,131.6
		111.1,128.3" />
		<polygon fill-rule="evenodd" clip-rule="evenodd" fill="none" stroke="#A5A7AA" stroke-width="0.5" stroke-linecap="round" stroke-linejoin="round" stroke-miterlimit="10" points="
		73.2,195.3 71.2,192.8 68,191.3 68,178.3 59.6,173.6 50.5,173.4 44.3,172.5 38.7,169.4 34.6,168.5 33.2,163.8 31.4,161.8
		29.4,161.1 29.4,173.2 30.3,175.8 26.4,177.9 17.8,184.6 16.9,187 13.9,191.9 8.9,193.9 7.8,198.2 1.9,198.6 3.2,205.6 56.6,205.6
		57.3,200.2 55.3,195.7 55.3,193 57.5,192.8 63.2,195.3 67.3,196.2 71.6,196.6" />
		<polygon fill-rule="evenodd" clip-rule="evenodd" fill="none" stroke="#A5A7AA" stroke-width="0.5" stroke-linecap="round" stroke-linejoin="round" stroke-miterlimit="10" points="
		57.1,207.3 59.8,207.3 60.7,209.1 63,208 61.6,206.2 66.2,206.2 67.7,211.6 63.9,213.4 63.9,211.4 60.7,210.5 58.4,211.6
		58.4,213.4 61.8,214.5 62.1,215.6 57.5,218.7 55.7,222.8 55.9,228.3 54.1,230.1 53.7,232.4 55,234.1 53.4,235.7 48.7,236.2
		47.1,237.7 44.1,238.6 40.9,242.6 39.6,246.4 9.4,246.4 11,242.9 10.5,240.2 7.1,239.5 5.3,237.5 5.5,235.9 11.6,235.7 11.2,232.8
		7.3,232.1 6,227.9 6.6,225.7 6.4,223.4 4.8,222.5 3.2,216.3 1.4,214.9 1.4,210.5 3.7,207.8 3.2,205.6 56.6,205.6" />
		<polygon fill-rule="evenodd" clip-rule="evenodd" fill="none" stroke="#A5A7AA" stroke-width="0.5" stroke-linecap="round" stroke-linejoin="round" stroke-miterlimit="10" points="
		8.9,248.4 10.5,255.8 8.7,259.6 7.1,267.4 8,272.3 8.2,281.3 5.3,287.1 5.5,295.6 6.9,297.8 8.7,301.8 11.6,300 15,300.9
		14.8,305.2 17.5,310.3 30.5,310.3 34.1,311 37.3,311.7 38.4,310.8 34.6,304.7 32.5,298 33.7,291.3 40.5,284.9 41.2,280.8
		42.8,275.2 49.1,269 51.4,268.8 51.6,266.3 53.7,260.7 53.2,257.8 51.4,256 46.4,255.1 42.8,252.5 40,249.6 39.6,246.4 9.4,246.4"/>
		<polygon fill-rule="evenodd" clip-rule="evenodd" fill="none" stroke="#A5A7AA" stroke-width="0.5" stroke-linecap="round" stroke-linejoin="round" stroke-miterlimit="10" points="
		37.5,314.3 37.5,330.4 43.4,330.6 47.1,331.5 46.2,332.9 37.3,332 37.3,335.3 44.3,334.9 49.3,334.7 53.4,335.1 58,334.4
		59.1,332.7 53.2,331.5 49.6,328.9 45.9,325.7 43.2,323.3 41.4,320.8 38.7,320.1 39.8,317.7" />
		<polygon fill-rule="evenodd" clip-rule="evenodd" fill="none" stroke="#A5A7AA" stroke-width="0.5" stroke-linecap="round" stroke-linejoin="round" stroke-miterlimit="10" points="
		110.8,289 110,290.3 108.7,290.4 108.9,291.4 106.8,294 105.1,296 103.6,295.5 102.6,296.3 101.7,297.8 100.4,298.7 99.7,297.6
		98.4,297.3 97.2,295.8 99.2,295.3 100.5,294.9 101.1,293.3 100.5,291.7 102.6,291.7 104,292.3 101.9,290.3 100.9,289.2 99.5,287.9
		100.7,287.2 102.2,289.1 104.6,288.5 106.6,288.7 108.5,289.2 109.3,287.6 110.8,287.4" />
		<polygon fill-rule="evenodd" clip-rule="evenodd" fill="none" stroke="#A5A7AA" stroke-width="0.5" stroke-linecap="round" stroke-linejoin="round" stroke-miterlimit="10" points="
		111.3,293.8 110.3,292.4 108.7,293.4 107.2,295.2 106.3,296.8 106.8,298.3 107.9,299.8 108.3,300.7 109.6,300.3 108.8,298.7
		110.8,298.4 111.6,297.3 112.6,298.4 113.3,297 111.8,295.2 112.4,294.5 114.3,295.1 116.1,295.3 118.4,293.5 119.6,291.7
		121.3,291.5 121.3,290.3 120.2,288.5 118.3,288.4 118.4,290.4 116.4,289.5 115,289.3 115,288.3 116.7,288.3 116.8,287.1
		115.1,286.8 113,287.1 113.4,288.8 111.6,290.1 111.1,291.4 111.9,293" />
		<polygon fill-rule="evenodd" clip-rule="evenodd" fill="none" stroke="#A5A7AA" stroke-width="0.5" stroke-linecap="round" stroke-linejoin="round" stroke-miterlimit="10" points="
		66,39.6 77.7,25.2 77.7,23.7 77.7,7 72.4,1.5 60.2,1.5 57.3,7.8 54.6,4.7 51.8,3.9 49,3.8 48.7,11 50.8,12.3 52.2,16.5 55.9,16.1
		59.4,17.3 59.4,25.7 56.9,27.6 52.8,28.6 46.8,27.3 42.5,22.6 42.5,18.4 38.7,17.3 38.2,22.8 35.5,24.4 30.3,21.3 28.9,24.2
		19.8,29.1 18.4,31.8 18.9,34.2 27.1,35.6 38.2,36.2 38.4,40.3 36.2,41.2 39.6,46.1 45.3,45.8 46.8,43.6 56.8,45.4 59.6,40.7
		65,40.5 65.9,39.6" />
		<polygon fill-rule="evenodd" clip-rule="evenodd" fill="none" stroke="#A5A7AA" stroke-width="0.5" stroke-linecap="round" stroke-linejoin="round" stroke-miterlimit="10" points="
		41.2,48.3 43.4,50.5 42.8,54.6 44.1,56.1 44.1,59.2 47.3,62.6 50.9,61.5 51.4,66.8 51.8,72.2 55,75.1 55.5,78.7 55,82 52.3,84.5
		49.6,85.4 45.9,76.7 40,72 39.3,69.1 35.5,66.4 33,67.7 28.7,67.3 20.7,62.6 14.6,61.5 16.2,54.6 20,53.9 20.5,51.9 18,47.6
		19.4,44.3 18.9,34.2 27.1,35.6 38.2,36.2 38.4,40.3 36.2,41.2 39.6,46.1 41.2,46" />
		<polygon fill-rule="evenodd" clip-rule="evenodd" fill="none" stroke="#A5A7AA" stroke-width="0.5" stroke-linecap="round" stroke-linejoin="round" stroke-miterlimit="10" points="
		108.5,60.2 109.7,55.4 114.2,50.7 103,43.6 101.1,40 92.7,32.4 84.9,27.7 83.9,26.2 77.7,23.7 77.7,25.2 66,39.6 82.9,39.6
		82.9,62.9 106.1,62.9" />
		<polygon fill-rule="evenodd" clip-rule="evenodd" fill="none" stroke="#A5A7AA" stroke-width="0.5" stroke-linecap="round" stroke-linejoin="round" stroke-miterlimit="10" points="
		66,39.6 82.9,39.6 82.9,62.9 83,65.3 77.7,86.1 75.2,85.4 72.3,79.3 64.8,78.5 59.1,77.3 55.5,78.7 55,75.1 51.8,72.2 51.4,66.8
		50.9,61.5 53,60.8 53.2,56.6 57.1,49.4 56.8,45.4 59.6,40.7 65,40.5" />
		<polygon fill-rule="evenodd" clip-rule="evenodd" fill="none" stroke="#A5A7AA" stroke-width="0.5" stroke-linecap="round" stroke-linejoin="round" stroke-miterlimit="10" points="
		31.6,12.3 30.5,10.1 33.4,7 37.3,4.7 38,1.6 39.6,0.5 45.5,3.6 49,3.8 48.7,11 50.8,12.3 52.2,16.5 55.9,16.1 59.4,17.3 59.4,25.7
		56.9,27.6 52.8,28.6 46.8,27.3 42.5,22.6 42.5,18.4 38.7,17.3 38.2,22.8 35.5,24.4 30.3,21.3" />
		<g>
			<path fill-rule="evenodd" clip-rule="evenodd" fill="none" stroke="#A5A7AA" stroke-linecap="round" stroke-linejoin="round" stroke-miterlimit="10" d="
			M156.4,43.6l-1.3-4.7l-5.9,1l-1.1,7l-5,4.5l-5.9,3.6l-3.7,1.8l-15-0.4l-9-0.9l4.5-4.7l1.9-6.7l5-6.9l-0.5-2l-4.5-2.7l-3.1-0.2
			l-1.9-2l-10.2-6.8l-5.3-0.7l-6.1-5.4L81,9.6l-2.2-1L77.7,7l-5.3-5.5H60.2l-2.9,6.3l-2.7-3l-2.7-0.9L49,3.8l-3.5-0.2l-5.9-3.1
			L38,1.6l-0.7,3.1L33.4,7l-3,3.1l1.1,2.2l-1.4,8.9l-1.4,2.9l-9.1,4.9l-1.4,2.7l0.5,2.5l0.5,10.1L18,47.6l2.5,4.2l-0.5,2l-3.9,0.7
			l-1.6,6.9l-3,5.4l-2.5,8.5l-2.3,1.8l1.8,9.6l-2,5.8l-2,5.1l0.5,6l2.3,1.8l-0.5,2l1.4,2.9l1.4,5.8l2.3,1.8v8.3l-1.1,1.8l-2.3,8
			l-1.6,2l1.4,1.8v8l-2.7,1.6l-2,6.9l0.7,4l-0.7,4.2l4.1,7.6l-4.3,4.5l-0.5,6.7l-2.3,1.3l1.4,6.7L1,194.2l0.9,4.5l1.4,6.9l0.5,2.2
			l-2.3,2.7v4.5l1.8,1.3l1.6,6.3l1.6,0.9l0.2,2.2L6,227.9l1.4,4.2l3.9,0.7l0.5,2.9l-6.1,0.2l-0.2,1.6l1.8,2l3.4,0.7l0.5,2.7
			l-1.6,3.6l-0.5,2l1.6,7.4l-1.8,3.8l-1.6,7.8l0.9,4.9l0.2,8.9l-3,5.8l0.2,8.5l1.4,2.2l1.8,4l3-1.8l3.4,0.9l-0.2,4.2l2.7,5.1h12.9
			l3.6,0.7l3.2,0.7l1.1-0.9l-3.9-6l-2-6.7l1.1-6.7l6.8-6.5l0.7-4l1.6-5.6l6.4-6.3l2.3-0.2l0.2-2.5l2-5.6l-0.5-2.9l-1.8-1.8l-5-0.9
			l-3.6-2.7l-2.7-2.9l-0.5-3.1l1.4-3.8l3.2-4l3-0.9l1.6-1.6l4.8-0.4l1.6-1.6l-1.4-1.8l0.5-2.2l1.8-1.8l-0.2-5.6l1.8-4l4.5-3.1
			l-0.2-1.1l-3.4-1.1v-1.8l2.3-1.1l3.2,0.9v2l3.9-1.8l-1.6-5.4h-4.5L63,208l-2.3,1.1l-0.9-1.8h-2.7l-0.5-1.8l0.7-5.4l-2-4.5V193
			l2.3-0.2l5.7,2.5l4.1,0.9l4.3,0.4l1.6-1.3l4.1-4l-0.9-4.5l0.9-5.8l1.8-0.9l-1.8-4.5l-0.9-4.2l0.9-1.1l3.4,1.8l7.5,0.9l7-0.4
			l7.5-1.8l9.1-3.6l6.4-5.8l5.7-8.5V147h-3.4l-1.6-4.7l0.9-4l-0.5-2.7l-5-4l-3.2-3.4l0.2-3.8l-0.2-5.1v-3.8l2.3-2.5v-11.4l3-7.1
			l1.4-5.3l2.7-6.2l5.7-5.1l4.8-5.8l5.4-6.7l5.1-3.3l7.5-4.4l2.4-0.3l4.3-3.1l1.8-8.5L156.4,43.6z"/>
			<polygon fill-rule="evenodd" clip-rule="evenodd" fill="none" stroke="#A5A7AA" stroke-width="0.5" stroke-linecap="round" stroke-linejoin="round" stroke-miterlimit="10" points="
			49.6,328.9 45.9,325.7 43.2,323.3 41.4,320.8 38.7,320.1 39.8,317.7 37.5,314.3 37.5,330.4 43.4,330.6 47.1,331.5 46.2,332.9
			37.3,332 37.3,335.3 44.3,334.9 49.3,334.7 53.4,335.1 58,334.4 59.1,332.7 53.2,331.5 		"/>
			<polygon fill-rule="evenodd" clip-rule="evenodd" fill="none" stroke="#A5A7AA" stroke-width="0.5" stroke-linecap="round" stroke-linejoin="round" stroke-miterlimit="10" points="
			108.9,291.4 108.7,290.4 110,290.3 110.8,289 110.8,287.4 109.3,287.6 108.5,289.2 106.6,288.7 104.6,288.5 102.2,289.1
			100.7,287.2 99.5,287.9 100.9,289.2 101.9,290.3 104,292.3 102.6,291.7 100.5,291.7 101.1,293.3 100.5,294.9 99.2,295.3
			97.2,295.8 98.4,297.3 99.7,297.6 100.4,298.7 101.7,297.8 102.6,296.3 103.6,295.5 105.1,296 106.8,294 		"/>
			<polygon fill-rule="evenodd" clip-rule="evenodd" fill="none" stroke="#A5A7AA" stroke-width="0.5" stroke-linecap="round" stroke-linejoin="round" stroke-miterlimit="10" points="
			118.3,288.4 118.4,290.4 116.4,289.5 115,289.3 115,288.3 116.7,288.3 116.8,287.1 115.1,286.8 113,287.1 113.4,288.8
			111.6,290.1 111.1,291.4 111.9,293 111.3,293.8 110.3,292.4 108.7,293.4 107.2,295.2 106.3,296.8 106.8,298.3 107.9,299.8
			108.3,300.7 109.6,300.3 108.8,298.7 110.8,298.4 111.6,297.3 112.6,298.4 113.3,297 111.8,295.2 112.4,294.5 114.3,295.1
			116.1,295.3 118.4,293.5 119.6,291.7 121.3,291.5 121.3,290.3 120.2,288.5 		"/>
		</g>
		<polygon fill-rule="evenodd" clip-rule="evenodd" fill="none" stroke="#A5A7AA" stroke-width="0.5" stroke-linecap="round" stroke-linejoin="round" stroke-miterlimit="10" points="
		117.7,89.3 113,84.9 101.1,86.1 99.8,90.3 96.4,95 93.6,99.2 91.8,102.1 91.6,108.4 95.5,116.7 101.8,119.8 106.1,122.9
		111.4,124.5 111.1,119.3 111.1,115.5 113.4,113.1 113.4,101.7 116.4,94.5" />
	</g>
	<circle fill="#EE4423" cx="49" cy="49.7" r="2.9"/>
	<circle fill="#EE4423" cx="61.4" cy="59.8" r="2.9"/>
	<circle fill="#EE4423" cx="44.8" cy="66.8" r="2.9"/>
	<circle fill="#EE4423" cx="44.8" cy="31.5" r="2.9"/>
	<circle fill="#EE4423" cx="47.7" cy="20.9" r="2.9"/>
	<circle fill="#EE4423" cx="113.8" cy="41.8" r="2.9"/>
	<circle fill="#EE4423" cx="141.4" cy="55" r="2.9"/>
	<circle fill="#EE4423" cx="110.8" cy="61.5" r="2.9"/>
	<circle fill="#EE4423" cx="94.5" cy="104.7" r="2.9"/>
	<circle fill="#EE4423" cx="90.1" cy="103" r="2.9"/>
	<circle fill="#EE4423" cx="61.4" cy="97.9" r="2.9"/>
	<circle fill="#EE4423" cx="33.2" cy="77.3" r="2.9"/>
	<circle fill="#EE4423" cx="20.9" cy="97.9" r="2.9"/>
	<circle fill="#EE4423" cx="41.8" cy="116.7" r="2.9"/>
	<circle fill="#EE4423" cx="20.9" cy="116.7" r="2.9"/>
	<circle fill="#EE4423" cx="58.5" cy="147.9" r="2.9"/>
	<circle fill="#EE4423" cx="114.2" cy="136.2" r="2.9"/>
	<circle fill="#EE4423" cx="68" cy="192.4" r="2.9"/>
	<circle fill="#EE4423" cx="27.5" cy="173.3" r="2.9"/>
	<circle fill="#EE4423" cx="55.7" cy="217.1" r="2.9"/>
	<circle fill="#EE4423" cx="30.6" cy="300.7" r="2.9"/>
	<circle fill="#EE4423" cx="104.7" cy="59.8" r="2.9"/>
	<circle fill="#EE4423" cx="41.8" cy="331.9" r="2.9"/>
	<g>
		<rect x="156.6" y="105.9" fill="none" stroke="#A5A7AA" stroke-width="0.5" stroke-linecap="round" stroke-linejoin="round" stroke-miterlimit="10" width="45.9" height="49.2"/>
		<line fill="none" stroke="#A5A7AA" stroke-width="0.5" stroke-linecap="round" stroke-linejoin="round" stroke-miterlimit="10" x1="156.6" y1="130.5" x2="110.7" y2="130.5"/>
		<polygon fill="none" stroke="#A5A7AA" stroke-width="0.5" stroke-linecap="round" stroke-linejoin="round" stroke-miterlimit="10" points="
		197.2,132.9 197.1,132.7 197.5,132.7 197.7,132.5 196.6,131.9 196.4,132.4 196.2,132.4 196.1,132.6 196,132.5 195.9,132.3
		195.9,132.1 196.2,132.1 196.3,132 196.2,131.9 195.9,131.9 195.5,132 195.1,131.9 195.1,131.9 196.2,131.6 196.5,131.6
		196.9,131.5 197.1,131.4 197.1,131 197.1,130.5 197,130.5 196.9,130.1 196.8,130 196.8,130 196.6,129.8 196,128.4 195.9,128.2
		195.6,128.1 195.1,127.4 195.1,127.4 194.9,127.3 194.9,127.2 194.7,127.1 194.6,127 194.5,127 193.5,127.3 193.4,127.3 193.3,127
		193.3,127 193.3,127.4 192.7,127.4 193,126.5 193.2,126.8 193.3,126.8 193,126.1 192.8,126.1 192.8,126 192.8,125.9 192.9,125.9
		194.1,125.7 194.2,125.6 194.2,125.6 193.5,125.4 193.5,125.2 193.6,125.2 194.2,125.1 194.2,124.8 193.3,124.8 193.1,124.6
		193.6,124.6 193.7,124.5 193.9,124.5 193.9,124.3 193.8,124.2 192.7,124.2 193.3,123.9 192.8,123.5 192.3,123.6 191.9,123.6
		191.5,123.4 192.4,123.2 191.6,122.6 190.6,122.7 190.3,122.4 190.4,122.4 191.2,122.3 191.2,122.3 190.8,122 190.8,121.8
		189.2,121.6 189.1,121.9 190.4,122.8 190.3,123 190.3,123 190,123 189.2,122.3 189,122.2 188.9,122.1 188.9,122.1 188.7,121.8
		188.5,121.4 188.3,121.1 188.2,121 188.1,120.8 187.3,120.3 187,120.2 186.2,119.2 186,119 186.2,118.8 186.1,118.8 186,118.9
		185.9,119 185.7,118.8 185.5,118.6 185.5,118.6 185,118.3 184.5,118.1 184.1,118 183.7,117.8 182.8,116.8 182.7,116.6 182.3,115.8
		182.1,115.7 182.1,115.6 181.9,115.4 181.8,115.3 181.8,115.2 181.6,115.2 181.4,115.2 181.3,115.2 181.1,115.2 181.1,115
		181.1,114.9 179.9,114.5 179.8,114.5 179.8,114.4 179.8,114.3 179.9,114.2 179.9,114.2 179.8,114.3 179.7,114.5 179.7,114.5
		179.7,114.6 179.5,114.7 179.3,114.9 179.3,115 179.1,115 178.9,114.9 178.8,114.7 179.1,114.3 179.2,114.2 179.4,114.2
		179.5,114.2 179.6,114.2 179.7,114 179.6,113.7 179.4,113.4 179.4,113.4 179.1,113.9 179,114.1 178.6,114.3 178.3,114.5
		178.3,114.5 178.2,114.4 178.5,114.3 178.8,114.2 178.8,114 178.8,113.8 178.8,113.7 178.2,112.6 178.1,112.7 177.8,113.1
		177.5,113.7 177.4,113.7 175.3,114.6 171.1,116.6 167.6,124.5 166.9,126.1 166,128.2 165.3,129.8 165.3,133.6 165.3,137.6
		176.1,148.4 178,146 179.6,143.9 182.7,140 182.7,140 182.7,140 184.7,139.4 186.1,139.7 186.3,139.7 186.4,139.8 186.5,139.9
		186.7,139.9 187,140 187.1,140.1 187.2,140.2 187.4,140.2 191,139.4 191.9,138.4 192,138.2 194.1,137 194,136 194.5,135.6
		196.4,134.3 196,133.8 196.2,133.8 196.4,134 196.7,134 196.8,133.9 196.4,133.5 196.6,133.4 197,133.7 197.1,133.9 197.2,134
		197.5,133.8 197.8,133.6 197.8,133.4" />
	</g>
	<circle fill="#EE4423" cx="109.2" cy="130.5" r="2.9"/>
</svg>
