<svg x="0px" y="0px" viewBox="0 0 384 70">
	<g>
		<g>
			<path fill="#595959" d="M60,22.3L60,22.3c0-5.3,3.9-9.6,9.6-9.6c3.5,0,5.5,1.2,7.2,2.8l-2.6,3c-1.4-1.3-2.9-2.1-4.7-2.1c-3.1,0-5.3,2.6-5.3,5.7v0.1c0,3.1,2.2,5.8,5.3,5.8c2.1,0,3.4-0.8,4.8-2.2l2.6,2.6c-1.9,2-4,3.3-7.5,3.3C64,31.7,60,27.5,60,22.3z" />
			<path fill="#595959" d="M78.9,27.3L78.9,27.3c0-3.1,2.3-4.5,5.7-4.5c1.4,0,2.4,0.2,3.4,0.6v-0.2c0-1.7-1-2.6-3-2.6c-1.5,0-2.6,0.3-3.9,0.8l-1-3c1.5-0.7,3.1-1.1,5.5-1.1c2.2,0,3.8,0.6,4.8,1.6c1,1,1.5,2.6,1.5,4.5v8.2H88v-1.5c-1,1.1-2.3,1.8-4.3,1.8C81.1,31.7,78.9,30.1,78.9,27.3z M88.1,26.4v-0.7c-0.7-0.3-1.6-0.5-2.5-0.5c-1.7,0-2.8,0.7-2.8,1.9v0.1c0,1.1,0.9,1.7,2.2,1.7C86.8,28.9,88.1,27.9,88.1,26.4z"/>
			<path fill="#595959" d="M94.2,29.5l1.7-2.6c1.5,1.1,3.1,1.7,4.4,1.7c1.2,0,1.7-0.4,1.7-1v-0.1c0-0.9-1.4-1.2-2.9-1.6c-2-0.6-4.2-1.5-4.2-4.2v-0.1c0-2.9,2.3-4.5,5.1-4.5c1.8,0,3.7,0.6,5.2,1.6l-1.5,2.8c-1.4-0.8-2.8-1.3-3.8-1.3c-1,0-1.5,0.4-1.5,1v0.1c0,0.8,1.3,1.2,2.9,1.7c2,0.7,4.3,1.6,4.3,4.2v0.1c0,3.1-2.3,4.5-5.4,4.5C98.3,31.7,96.1,31,94.2,29.5z"/>
			<path fill="#595959" d="M107.6,27.3L107.6,27.3c0-3.1,2.3-4.5,5.7-4.5c1.4,0,2.4,0.2,3.4,0.6v-0.2c0-1.7-1-2.6-3-2.6c-1.5,0-2.6,0.3-3.9,0.8l-1-3c1.5-0.7,3.1-1.1,5.5-1.1c2.2,0,3.8,0.6,4.8,1.6c1,1,1.5,2.6,1.5,4.5v8.2h-3.9v-1.5c-1,1.1-2.3,1.8-4.3,1.8C109.8,31.7,107.6,30.1,107.6,27.3z M116.8,26.4v-0.7c-0.7-0.3-1.6-0.5-2.5-0.5c-1.7,0-2.8,0.7-2.8,1.9v0.1c0,1.1,0.9,1.7,2.2,1.7C115.5,28.9,116.8,27.9,116.8,26.4z"/>
			<path fill="#595959" d="M132.3,13h8.4c2.3,0,4.1,0.7,5.4,1.9c1,1,1.6,2.5,1.6,4.2v0.1c0,3-1.6,4.8-3.9,5.7l4.5,6.6h-4.7l-3.9-5.9h-0.1h-3.1v5.9h-4V13z M140.4,21.9c2,0,3.1-1,3.1-2.6v-0.1c0-1.7-1.2-2.6-3.2-2.6h-4v5.3H140.4z"/>
			<path fill="#595959" d="M149.9,24.4L149.9,24.4c0-4.1,3.3-7.4,7.6-7.4c4.4,0,7.6,3.2,7.6,7.3v0.1c0,4-3.3,7.3-7.6,7.3C153.2,31.7,149.9,28.5,149.9,24.4z M161.2,24.4L161.2,24.4c0-2.1-1.5-3.9-3.7-3.9c-2.3,0-3.6,1.8-3.6,3.8v0.1c0,2.1,1.5,3.9,3.7,3.9C159.8,28.3,161.2,26.5,161.2,24.4z"/>
			<path fill="#595959" d="M166.9,29.5l1.7-2.6c1.5,1.1,3.1,1.7,4.4,1.7c1.2,0,1.7-0.4,1.7-1v-0.1c0-0.9-1.4-1.2-2.9-1.6c-2-0.6-4.2-1.5-4.2-4.2v-0.1c0-2.9,2.3-4.5,5.1-4.5c1.8,0,3.7,0.6,5.2,1.6l-1.5,2.8c-1.4-0.8-2.8-1.3-3.8-1.3c-1,0-1.5,0.4-1.5,1v0.1c0,0.8,1.3,1.2,2.9,1.7c2,0.7,4.3,1.6,4.3,4.2v0.1c0,3.1-2.3,4.5-5.4,4.5C171,31.7,168.8,31,166.9,29.5z"/>
			<path fill="#595959" d="M180.4,27.3L180.4,27.3c0-3.1,2.3-4.5,5.7-4.5c1.4,0,2.4,0.2,3.4,0.6v-0.2c0-1.7-1-2.6-3-2.6c-1.5,0-2.6,0.3-3.9,0.8l-1-3c1.5-0.7,3.1-1.1,5.5-1.1c2.2,0,3.8,0.6,4.8,1.6c1,1,1.5,2.6,1.5,4.5v8.2h-3.9v-1.5c-1,1.1-2.3,1.8-4.3,1.8C182.6,31.7,180.4,30.1,180.4,27.3z M189.5,26.4v-0.7c-0.7-0.3-1.6-0.5-2.5-0.5c-1.7,0-2.8,0.7-2.8,1.9v0.1c0,1.1,0.9,1.7,2.2,1.7C188.3,28.9,189.5,27.9,189.5,26.4z"/>
			<path fill="#595959" d="M196.1,24.4L196.1,24.4c0-4.8,3.1-7.3,6.4-7.3c2.1,0,3.4,1,4.4,2.1v-6.9h4v19.2h-4v-2c-1,1.3-2.3,2.3-4.4,2.3C199.2,31.7,196.1,29.1,196.1,24.4z M207,24.4L207,24.4c0-2.4-1.5-3.9-3.4-3.9s-3.4,1.5-3.4,3.9v0.1c0,2.3,1.6,3.9,3.4,3.9S207,26.7,207,24.4z"/>
			<path fill="#595959" d="M213.6,27.3L213.6,27.3c0-3.1,2.3-4.5,5.7-4.5c1.4,0,2.4,0.2,3.4,0.6v-0.2c0-1.7-1-2.6-3-2.6c-1.5,0-2.6,0.3-3.9,0.8l-1-3c1.5-0.7,3.1-1.1,5.5-1.1c2.2,0,3.8,0.6,4.8,1.6c1,1,1.5,2.6,1.5,4.5v8.2h-3.9v-1.5c-1,1.1-2.3,1.8-4.3,1.8C215.8,31.7,213.6,30.1,213.6,27.3z M222.8,26.4v-0.7c-0.7-0.3-1.6-0.5-2.5-0.5c-1.7,0-2.8,0.7-2.8,1.9v0.1c0,1.1,0.9,1.7,2.2,1.7C221.5,28.9,222.8,27.9,222.8,26.4z"/>
		</g>
		<g>
			<path fill="#0072BC" d="M61,44.6h7.2c4.3,0,7,2.4,7,6.1v0.1c0,4.1-3.3,6.3-7.3,6.3h-3.6v5.9H61V44.6z M68,54.1c2.4,0,4-1.4,4-3.3v-0.1c0-2.2-1.5-3.3-4-3.3h-3.8v6.6H68z"/>
			<path fill="#0072BC" d="M78.1,49.1h3.2v3.1c0.9-2.1,2.5-3.5,4.9-3.4v3.4H86c-2.8,0-4.7,1.8-4.7,5.5v5.3h-3.2V49.1z"/>
			<path fill="#0072BC" d="M88.2,56.1L88.2,56.1c0-4,2.8-7.3,6.8-7.3c4.4,0,6.6,3.5,6.6,7.5c0,0.3,0,0.6-0.1,0.9H91.4c0.3,2.3,1.9,3.5,4,3.5c1.5,0,2.7-0.6,3.8-1.7l1.9,1.7c-1.3,1.6-3.1,2.6-5.7,2.6C91.3,63.2,88.2,60.3,88.2,56.1z M98.5,55c-0.2-2-1.4-3.6-3.5-3.6c-1.9,0-3.3,1.5-3.6,3.6H98.5z"/>
			<path fill="#0072BC" d="M103.7,61.1l1.4-2.2c1.5,1.1,3.1,1.7,4.5,1.7c1.4,0,2.2-0.6,2.2-1.5v-0.1c0-1.1-1.5-1.4-3.1-1.9c-2-0.6-4.3-1.4-4.3-4.1v-0.1c0-2.6,2.2-4.2,4.9-4.2c1.7,0,3.6,0.6,5.1,1.6l-1.3,2.3c-1.3-0.8-2.8-1.3-3.9-1.3c-1.2,0-1.9,0.6-1.9,1.4v0.1c0,1,1.5,1.4,3.1,1.9c2,0.6,4.3,1.5,4.3,4v0.1c0,2.9-2.3,4.4-5.1,4.4C107.6,63.2,105.4,62.5,103.7,61.1z"/>
			<path fill="#0072BC" d="M118,43.9h3.4v3H118V43.9z M118.2,49.1h3.2v13.9h-3.2V49.1z"/>
			<path fill="#0072BC" d="M124.8,56L124.8,56c0-4.6,3.1-7.2,6.4-7.2c2.3,0,3.7,1.2,4.7,2.4v-7.5h3.2v19.2h-3.2v-2.3c-1,1.4-2.5,2.6-4.7,2.6C127.9,63.2,124.8,60.6,124.8,56z M136,56L136,56c0-2.7-1.9-4.5-4-4.5c-2.2,0-4,1.7-4,4.4V56c0,2.7,1.8,4.4,4,4.4C134.1,60.5,136,58.7,136,56z"/>
			<path fill="#0072BC" d="M142.3,56.1L142.3,56.1c0-4,2.8-7.3,6.8-7.3c4.4,0,6.6,3.5,6.6,7.5c0,0.3,0,0.6-0.1,0.9h-10.2c0.3,2.3,1.9,3.5,4,3.5c1.5,0,2.7-0.6,3.8-1.7l1.9,1.7c-1.3,1.6-3.1,2.6-5.7,2.6C145.4,63.2,142.3,60.3,142.3,56.1z M152.6,55c-0.2-2-1.4-3.6-3.5-3.6c-1.9,0-3.3,1.5-3.6,3.6H152.6z"/>
			<path fill="#0072BC" d="M158.9,49.1h3.2v2.2c0.9-1.3,2.2-2.4,4.3-2.4c3.1,0,4.9,2.1,4.9,5.3v8.8h-3.2v-7.9c0-2.2-1.1-3.4-3-3.4c-1.8,0-3.1,1.3-3.1,3.4v7.8h-3.2V49.1z"/>
			<path fill="#0072BC" d="M174.4,56.1L174.4,56.1c0-4,3-7.3,7.2-7.3c2.6,0,4.3,1,5.5,2.4l-2,2.1c-1-1-2-1.7-3.6-1.7c-2.3,0-4,2-4,4.4V56c0,2.5,1.7,4.5,4.1,4.5c1.5,0,2.6-0.7,3.6-1.7l1.9,1.9c-1.4,1.5-3,2.6-5.7,2.6C177.5,63.2,174.4,60,174.4,56.1z"/>
			<path fill="#0072BC" d="M190.2,43.9h3.4v3h-3.4V43.9z M190.4,49.1h3.2v13.9h-3.2V49.1z"/>
			<path fill="#0072BC" d="M206.2,62.9v-1.7c-0.9,1.1-2.4,2-4.5,2c-2.6,0-4.9-1.5-4.9-4.3v-0.1c0-3.1,2.4-4.5,5.6-4.5c1.7,0,2.8,0.2,3.8,0.6v-0.3c0-1.9-1.2-3-3.4-3c-1.5,0-2.7,0.3-4,0.9L198,50c1.5-0.7,3-1.2,5.3-1.2c4.1,0,6.1,2.2,6.1,5.9v8.2H206.2z M206.2,57.1c-0.8-0.3-1.9-0.6-3.2-0.6c-2,0-3.2,0.8-3.2,2.2v0.1c0,1.3,1.2,2,2.7,2c2.1,0,3.7-1.2,3.7-2.9V57.1z"/>
			<path fill="#0072BC" d="M220.3,56L220.3,56c0-4.6,3.1-7.2,6.4-7.2c2.3,0,3.7,1.2,4.7,2.4v-7.5h3.2v19.2h-3.2v-2.3c-1,1.4-2.5,2.6-4.7,2.6C223.4,63.2,220.3,60.6,220.3,56z M231.5,56L231.5,56c0-2.7-1.9-4.5-4-4.5c-2.2,0-4,1.7-4,4.4V56c0,2.7,1.8,4.4,4,4.4C229.6,60.5,231.5,58.7,231.5,56z"/>
			<path fill="#0072BC" d="M237.8,56.1L237.8,56.1c0-4,2.8-7.3,6.8-7.3c4.4,0,6.6,3.5,6.6,7.5c0,0.3,0,0.6-0.1,0.9H241c0.3,2.3,1.9,3.5,4,3.5c1.5,0,2.7-0.6,3.8-1.7l1.9,1.7c-1.3,1.6-3.1,2.6-5.7,2.6C240.9,63.2,237.8,60.3,237.8,56.1z M248.1,55c-0.2-2-1.4-3.6-3.5-3.6c-1.9,0-3.3,1.5-3.6,3.6H248.1z"/>
			<path fill="#0072BC" d="M262.5,43.8h3.2v19.2h-3.2V43.8z"/>
			<path fill="#0072BC" d="M278.3,62.9v-1.7c-0.9,1.1-2.4,2-4.5,2c-2.6,0-4.9-1.5-4.9-4.3v-0.1c0-3.1,2.4-4.5,5.6-4.5c1.7,0,2.8,0.2,3.8,0.6v-0.3c0-1.9-1.2-3-3.4-3c-1.5,0-2.7,0.3-4,0.9l-0.9-2.5c1.5-0.7,3-1.2,5.3-1.2c4.1,0,6.1,2.2,6.1,5.9v8.2H278.3z M278.4,57.1c-0.8-0.3-1.9-0.6-3.2-0.6c-2,0-3.2,0.8-3.2,2.2v0.1c0,1.3,1.2,2,2.7,2c2.1,0,3.7-1.2,3.7-2.9V57.1z"/>
			<path fill="#0072BC" d="M293.4,44.6h3l9.8,12.7V44.6h3.2v18.4h-2.7l-10.1-13.1v13.1h-3.2V44.6z"/>
			<path fill="#0072BC" d="M322.3,62.9v-1.7c-0.9,1.1-2.4,2-4.5,2c-2.6,0-4.9-1.5-4.9-4.3v-0.1c0-3.1,2.4-4.5,5.6-4.5c1.7,0,2.8,0.2,3.8,0.6v-0.3c0-1.9-1.2-3-3.4-3c-1.5,0-2.7,0.3-4,0.9l-0.9-2.5c1.5-0.7,3-1.2,5.3-1.2c4.1,0,6.1,2.2,6.1,5.9v8.2H322.3z M322.4,57.1c-0.8-0.3-1.9-0.6-3.2-0.6c-2,0-3.2,0.8-3.2,2.2v0.1c0,1.3,1.2,2,2.7,2c2.1,0,3.7-1.2,3.7-2.9V57.1z"/>
			<path fill="#0072BC" d="M328.5,56.1L328.5,56.1c0-4,3-7.3,7.2-7.3c2.6,0,4.3,1,5.5,2.4l-2,2.1c-1-1-2-1.7-3.6-1.7c-2.3,0-4,2-4,4.4V56c0,2.5,1.7,4.5,4.1,4.5c1.5,0,2.6-0.7,3.6-1.7l1.9,1.9c-1.4,1.5-3,2.6-5.7,2.6C331.5,63.2,328.5,60,328.5,56.1z"/>
			<path fill="#0072BC" d="M344.3,43.9h3.4v3h-3.4V43.9z M344.4,49.1h3.2v13.9h-3.2V49.1z"/>
			<path fill="#0072BC" d="M351,56.1L351,56.1c0-4,3.1-7.3,7.4-7.3s7.4,3.2,7.4,7.2V56c0,3.9-3.1,7.2-7.4,7.2C354.1,63.2,351,60,351,56.1z M362.6,56.1L362.6,56.1c0-2.5-1.8-4.5-4.3-4.5c-2.5,0-4.2,2-4.2,4.4V56c0,2.4,1.8,4.5,4.2,4.5C360.9,60.5,362.6,58.5,362.6,56.1z M359.9,43l2.9,1.3l-3.2,3h-2.5L359.9,43z"/>
			<path fill="#0072BC" d="M369,49.1h3.2v2.2c0.9-1.3,2.2-2.4,4.3-2.4c3.1,0,4.9,2.1,4.9,5.3v8.8h-3.2v-7.9c0-2.2-1.1-3.4-3-3.4c-1.8,0-3.1,1.3-3.1,3.4v7.8H369V49.1z"/>
		</g>
		<g>
			<g>
				<path fill="#FFFFFF" d="M22,61.1c-9.6,0-17-10.5-17-22.9H39C39,50.7,31.7,61.1,22,61.1"/>
			</g>
			<g>
				<path fill="#231F20" d="M25.8,9.7l0.3,0c0,0-0.2-1.2-2.4-1.1h-0.5c0,0-0.2,0.7-0.2,0.7l1.5-0.1C24.4,9.2,25.5,9.1,25.8,9.7"/>
			</g>
			<g>
				<path fill="#231F20" d="M23.3,10.5c0-0.1,0.3-0.4,0.3-0.4s0.1,0,0.1,0c0,0.1-0.1,0.1-0.1,0.2c0,0.2,0.1,0.4,0.4,0.5c0.1,0,0.4,0,0.4,0c0.2-0.1,0.4-0.3,0.4-0.5c0-0.1,0-0.1,0-0.2c0.2,0,0.4,0.2,0.5,0.4l0.5,0c0,0-0.3-1.2-2.4-0.9c0,0-0.5,0.7-0.5,0.8C22.8,10.6,23.3,10.6,23.3,10.5"/>
			</g>
			<g>
				<path fill="#231F20" d="M18.5,10.5l0.5-0.1c0.1-0.2,0.3-0.3,0.5-0.4c0,0.1,0,0.1,0,0.1c0,0.3,0.1,0.5,0.4,0.5c0,0,0.3,0,0.4,0c0.2-0.1,0.4-0.3,0.4-0.5c0,0,0,0,0-0.1c0.1,0,0.1,0,0.1,0s0.3,0.3,0.3,0.3c0,0.1,0.5,0.1,0.5,0c0-0.1-0.5-0.8-0.5-0.8C18.8,9.3,18.5,10.5,18.5,10.5"/>
			</g>
			<g>
				<path fill="#231F20" d="M19.8,9.2l1.6,0.1c0,0-0.2-0.6-0.2-0.7h-0.4c-2.4-0.1-2.6,1.1-2.6,1.1l0.3,0C18.8,9.1,19.8,9.2,19.8,9.2"/>
			</g>
			<g>
				<path fill="#231F20" d="M24.3,25.6c0,0-0.1,0-0.1,0C24.3,25.6,24.3,25.7,24.3,25.6"/>
			</g>
			<g>
				<path fill="#231F20" d="M23.9,64.2c1.6-0.2,6.5-2.3,8.2-3.7c1.9,0.2,2.6-1.3,3.9-2c-0.1-0.1-0.2-0.2-0.4-0.2c0.8-0.5,1.2-1.1,2-1.8c-0.1-0.1-0.4-0.2-0.7-0.2c1.3-0.4,0.4-0.9,1.6-1.8c0-0.1-0.1-0.1-0.2-0.1c0.8-0.5,0.8-1.3,1.5-2.1c-0.2-0.1-0.4-0.2-0.7-0.2c1.4-0.4,1.3-1.4,2.1-2.3c-0.1,0-0.3,0-0.6-0.1c0.8-0.6,0.5-1.4,1.1-2.3c-0.2-0.1-0.5-0.2-0.8-0.1c1.2-0.5,1.1-1.7,1.7-2.8c-0.1-0.1-0.3-0.1-0.5-0.1c1-1-0.3-0.6,0.5-2.6c-0.2-0.1-0.5-0.1-0.8,0.1c1-0.8,0.8-1.8,1.4-3.1c-0.7-0.1-2.2,0.9-2.6,1.8v-0.1c0.1-0.3,0.3-0.6,0.9-1c1.5-1.1,0.9-2.1,1.3-3.5c-0.7-0.1-2,1.1-2.3,2c0-0.1,0-0.2-0.1-0.3c0.2-0.4,0.3-0.9,1.1-1.3c1.3-0.7,0.9-2,1.3-3.4c-0.2,0-0.5,0-0.7,0.2c0.3-0.9-0.3-1.6-0.2-2.7c-0.7,0-1.6,1.3-1.7,2.2c0-0.1-0.1-0.2-0.2-0.4c0.1-0.3,0.2-0.8,0.8-1.2c1.3-1.5,0.2-2.3,0.4-3.8c-0.2,0-0.3,0-0.4,0.1c-0.1-0.7-0.6-1.2-0.7-2.1c-0.7,0.1-1.4,1.4-1.3,2.3c-0.1-0.1-0.2-0.3-0.3-0.4c0.1-0.3,0.1-0.8,0.7-1.3c0.7-1.4,0-2.1-0.1-3.5c-0.2,0-0.4,0.1-0.7,0.3c0-0.9-0.5-1.4-0.8-2.4c-0.5,0.1-0.9,0.7-1.1,1.4c0-0.3,0.1-0.6,0.2-1c0-1.9-0.7-2-1.3-3.5c-0.2,0.2-0.4,0.6-0.6,1.1c-0.2-1.2-0.7-1.6-1.4-2.7c-0.4,0.4-0.6,1.6-0.5,2.4c-0.1-0.3-0.2-0.6-0.1-1.1c-0.2-1.5-0.9-1.9-1.6-2.8c0.3,0,0.7-0.1,1.1-0.4c0,0-0.6,0.1-1-0.1c-0.4-0.2-0.6-0.6-1-0.7c-0.4-0.2-0.8,0.1-1.4-0.4l3.7-0.8c0,0-3.6-0.7-3.6-0.7s0.2-0.2,0.6-0.3c0.3,0,0.8,0,1.1-0.4c0.1-0.2,0.6-0.7,1.7-0.6c-0.8-0.5-1.3-0.3-2-0.1c-0.5,0.3-0.8,0.1-1.6,0.1c0,0,3-1.9,3-1.9l-3.6,0.8c0.6-0.9,1.1-0.5,1.5-1.5c0.1-0.2,0.5-0.7,1.1-1c-0.7-0.2-1.4,0.2-2.1,1C28.6,7,28,7.2,27.6,7.3c0,0,2-3,2-3s-2.1,1.5-3.1,2v0c0.1-0.8,0.7-0.7,0.8-1.6c-0.1-0.3,0-1,0.7-1.7c-0.8,0.2-1.2,0.8-1.5,1.7c-0.2,0.3-0.6,0.5-1,0.9c0,0,0.7-3.6,0.7-3.6l-2.1,3c0,0-0.2-0.1-0.1-0.5c0.3-0.6,0.3-0.9,0.2-1.2c-0.2-0.5-0.5-1.1,0-1.9c-1.2,0.7-0.6,1.7-0.9,2.4c-0.1,0.3-0.4,0.7-0.5,1l-0.6-3.6l-0.7,3.6c-0.4-0.6-0.2-0.8-0.4-1.4c-0.3-0.7-0.9-0.5-0.9-2c-0.2,0.5-0.5,0.9,0.1,2.3c0.1,0.2-0.1,0.8,0,1.3l-2-3L19,5.6c-0.5,0-0.6-0.8-0.9-1.1c-0.5-0.4-1.2-0.3-1.6-1.5c-0.2,0.8,0.1,1.3,0.9,2c0.3,0.4,0.4,1,0.6,1.4l-3.1-2l2.1,3c-0.7,0.1-0.7-0.8-2.1-0.8c-0.9,0-1.4-0.8-1.3-0.6c0.4,1.6,1.5,1.1,1.9,1.7c0.1,0.1,0.6,0.6,0.7,0.8l-3.6-0.8l3.1,2c-0.5,0.3-1.2-0.4-1.8-0.1c-1.2,0.6-1.7,0-1.8,0c0.7,0.9,1.2,0.7,1.9,0.7c0.5,0,0.9,0.3,1.5,0.5l-3.6,0.7l3.6,0.7c-0.4,0.4-1.1,0.1-1.6,0.5c-1.1,1.2-2.2,0.6-1.8,0.8c0.9,0.6,1.4,0.5,2,0.3c-0.4,0.3-0.7,0.5-0.9,0.9c-0.1-0.3-0.1-0.5-0.3-0.6c-0.7,1-1.5,1.1-1.8,2.4c-0.1-0.3-0.2-0.6-0.4-0.8c-0.6,1.1-1.3,1.3-1.5,2.5c-0.1-0.3-0.2-0.6-0.4-0.7C8,18.9,7,19.2,7.3,21c0.2,0.5,0.2,0.8,0.1,1c-0.1-0.7-0.4-1.5-0.9-1.6c-0.5,0.8-0.9,1.4-1,2.3c-0.2-0.1-0.3-0.2-0.5-0.2c-0.1,1.4-1.2,1.9-0.2,3.5c0.6,0.5,0.5,0.9,0.5,1.3c-0.1,0-0.1,0.1-0.2,0.2c0.1-0.9-0.7-2.2-1.4-2.3c-0.1,1-0.6,1.5-0.5,2.4c-0.2-0.1-0.3-0.2-0.5-0.2c0.2,1.4-0.9,2,0.4,3.4c0.6,0.4,0.7,0.8,0.8,1.2c-0.1,0.1-0.2,0.2-0.2,0.4c-0.1-0.9-1-2.1-1.7-2.1C2.2,32,1.4,31.9,1.9,33c-0.3-0.2-0.5-0.2-0.7-0.2c0.4,1.4-0.1,2.6,1.3,3.4c0.8,0.4,0.8,0.9,1.1,1.2c-0.1,0.1-0.1,0.2-0.1,0.3c-0.3-0.9-1.6-2-2.3-2C1.5,36.9,1.3,38,2,38.8c-0.4-0.2-0.8-0.4-1.2-0.3c0.7,1.4,0.3,2.2,1.6,3.3c-0.4-0.2-0.8-0.3-1.1-0.1c0.4,1,0.2,1.7,0.6,2.4c-0.2,0-0.4,0.1-0.5,0.1c0.7,1.1,0.5,2,1.6,2.7c-0.3,0-0.5,0-0.7,0.1c0.5,0.8,0.5,1.5,0.9,2.2c-0.2,0-0.3,0.1-0.4,0.2c0.9,0.8,0.9,1.7,1.9,2.3c-0.3,0-0.5,0.1-0.6,0.2c0.7,0.7,0.9,1.4,1.6,1.9c-0.3,0-0.5,0.1-0.7,0.3c1,0.7,1.1,1.5,2.2,1.9c-0.3,0-0.5,0.1-0.7,0.2c1.3,1,0.4,1.4,1.6,1.8C7.9,58,7.8,58,7.8,58.1c1.3,0.7,1.5,2.4,4.4,2.4h0c1.4,1.5,5.2,3.3,8,3.7L23.9,64.2z M42,42.4c-0.3,0.9,0,1.5-0.8,2.2c-0.6,0.1-0.5,0.3-0.7,0.5c0.1-0.3,0.2-0.7,0.4-0.9c-0.2,0.1-0.4,0.3-0.6,0.6c-0.1-0.1-0.4-0.1-0.7-0.7c-0.4-0.8-0.1-1.1-0.2-1.9c0.4,0.7,1,1.3,1.1,1.8C40.8,43.3,41.7,42.3,42,42.4 M40.5,42.9c0.1-0.2,0.4-0.5,0.8-0.7c-0.4,0.3-0.6,0.7-0.8,1C40.5,43.1,40.5,43,40.5,42.9 M42.4,39.3c-0.4,1-0.1,1.4-1,2.3c-0.6,0.3-0.6,0.4-0.7,0.6c0.1-0.3,0.3-0.7,0.5-1c-0.3,0.2-0.5,0.4-0.7,0.7c-0.1-0.1-0.4,0-0.6-0.5c-0.4-0.7,0-1-0.1-1.7c0.4,0.5,1,1,1,1.5C41,40.4,42.1,39.3,42.4,39.3 M40.8,38.5c0.1-0.7,1-1.9,1.4-2c-0.3,1,0.1,1.4-0.7,2.3c-0.6,0.3-0.5,0.5-0.6,0.7c0-0.4,0.2-0.7,0.3-1c-0.2,0.2-0.4,0.5-0.5,0.8c-0.1-0.1-0.4,0.1-0.7-0.4c-0.5-0.6-0.2-1-0.4-1.7C39.9,37.6,40.6,38,40.8,38.5 M39.7,36.3c0.4,0.4,0.6,0.5,0.7,0.9c-0.2-0.2-0.5-0.4-0.7-0.6C39.7,36.5,39.7,36.4,39.7,36.3M42.1,33.5c-0.2,1,0.2,1.4-0.7,2.3c-0.6,0.3-0.5,0.4-0.7,0.6c0.1-0.4,0.2-0.7,0.3-0.9c-0.2,0.2-0.4,0.4-0.5,0.7c-0.1-0.1-0.4,0-0.7-0.5c-0.5-0.6-0.2-1-0.4-1.7c0.5,0.5,1.2,0.9,1.3,1.3C40.9,34.6,41.8,33.5,42.1,33.5 M40.6,33.2c0-0.7,0.7-1.9,1-2c-0.1,1,0.4,1.3-0.2,2.3c-0.5,0.4-0.4,0.5-0.6,0.7c0-0.3,0.1-0.7,0.2-1c-0.2,0.2-0.4,0.5-0.4,0.8c-0.2-0.1-0.4,0.1-0.8-0.3c-0.6-0.5-0.4-0.9-0.7-1.5C39.6,32.5,40.4,32.8,40.6,33.2 M38.5,46.5c0-0.2,0.1-0.3,0.1-0.5c0,0.1,0,0.1,0,0.1c0.4,1.2,0.7,1.3,0.6,2.1c0,0-0.1,0.1-0.1,0.1C39.3,47.7,38.9,47,38.5,46.5 M37.1,52.4c0-0.4-0.2-0.8-0.4-1.2c0.1-0.1,0.1-0.3,0.2-0.4C37,51.7,37.2,51.9,37.1,52.4 M38.3,52.2c-0.5,0.1-1,0.4-1.2,0.7c0-0.1,0-0.1,0-0.1C37.4,52.6,37.6,52.2,38.3,52.2 M36,50.5c0,0-3,0.5-6.8-2c0.3-0.4,0.4-1.4,0.3-2c-0.1-0.5-0.1-0.1-0.2,0.2c-0.4,0.9-0.6,1-1,1.3c-1.1-1.1-1.3-1.1-2.7-2c-1-0.5-1.1-0.9-1.7-1.3c-1,0.5-2.5,1.4-3.3,0.8c-0.7-0.3,0.7-0.7,1.3-1.6c0.5-0.7,1.1-0.8,1.9-0.7c1.5,0.3,2.3,0.9,4.5,1.9c2.8,0.2,4.8,1,7.6,1.6c0.5,0.1,1.2,0.2,1.5,0.2C37.1,48.2,36.7,49,36,50.5 M23.9,47.5c0.8,0.9,1.6,1.1,2.1,2.2c-0.2,0.3-0.5,0.4-0.8,0.2c-1.2-1.4-2.4-1.6-1.9-2.3c-0.2,0-0.5,0.3-0.4,0.5c0.2,1,1.3,1.4,1.6,2.2c-0.1,0.7-1.5,0.1-2.1-1.7l0-0.1c-0.2,0.5-0.5,0.7,0.4,1.7c0.2,0.4,0.3,0.8-0.3,0.7c0.1,0.1-0.3,0-0.1,0h0.1c0,0,0,0-0.1-0.1c0.3-1.7-1.3-1.4-1.2-1.4c0.2-0.6-0.7-1.2-1.6-0.8c0.1-0.5-0.8-1.2-2.1-0.7c-0.2-0.5-1.4-0.9-2.5,0.5c-2,0.2-5.2,1.9-7.2,1.1c-0.1,0.1-1.2-3.2-1.3-3.3c2.3-0.2,7.5-0.6,9.4-1.4c1.4-0.9,4.2-1.4,4.8-1.1c0,0.5-1.2,1.4-0.6,1.9c1,1,2.6,0.5,3.8-0.1c1.1,1.2,3,1.3,3.7,2.9l-0.2,0.5c-0.4,0.3-0.4,0.3-0.9-0.4c-1.1-1.5-2.1-1.1-2.3-2.1C23.6,46.8,23.9,47.2,23.9,47.5 M18.5,50.5c-0.4,0.2,0.2-0.2,0.3-0.3l0.2-0.2c0.4-0.3,0.8-0.7,1.1-0.1c0.2,0.4-1.2,1.2-1.4,1.3c-0.2,0.1-0.3,0.1-0.4-0.1C18.2,50.7,18.3,50.5,18.5,50.5 M17.3,50.3c-0.2,0.1-0.4,0.1-0.6-0.1c-0.1-0.3,0.3-0.7,0.5-0.9c0.1-0.2,0.3-0.2,0.3-0.2l0.2-0.2c0.5-0.1,0.5,0,0.6,0.2C18.5,49.3,17.6,50.3,17.3,50.3 M20.6,50.6c0,0,0.5-0.6,0.8,0.2c0.1,0.3-0.5,0.7-1,0.9C20.1,51.5,19.4,51.5,20.6,50.6 M16,49.4c-0.2,0.1-0.6-0.3-0.4-0.4l0.2-0.4c0.4-0.1,0.6-0.3,0.7-0.1C16.7,48.7,16.1,49.3,16,49.4M7.2,50.8C7.1,51,7.1,51.1,7,51.2c0-0.1,0.1-0.3,0.1-0.5C7.2,50.8,7.2,50.8,7.2,50.8 M6.8,52.4C6.6,52.2,6.4,52,6,51.9c0.3,0.1,0.5,0.2,0.7,0.3C6.8,52.3,6.8,52.3,6.8,52.4 M4.8,47.9C4.8,47.8,4.8,47.8,4.8,47.9c-0.2-0.9,0.1-1,0.5-2.1c0,0.2,0.1,0.3,0.1,0.5C5.1,46.8,4.8,47.4,4.8,47.9 M5,31.5c-0.2,0.1-0.4,0.2-0.6,0.3c0.1-0.1,0.3-0.3,0.6-0.5C5.1,31.4,5,31.4,5,31.5 M5.2,38.5h16v4.7c-0.7-0.1-2-0.2-3,0c-2.9,0.5-2,2-12.1,2.1C5.1,42.2,5.2,38.5,5.2,38.5 M15.1,15.2c0.1-0.2,0.3-0.2,0.4-0.8c0.4-1.3,1.1-1.1,2-1.7c0.3,0.4-0.8,1.8-1.4,2.2c0.4-0.1,1,0.5,1.6,0.7c-0.7,0.1-1,0.5-1.7,0.3c-0.5-0.2-0.5-0.4-0.6-0.6c0.2-0.2,0.4-0.5,0.6-0.7C15.7,14.8,15.4,15,15.1,15.2 M27.3,14.8c-0.3,0-0.5-0.1-0.8-0.2c0.4-0.1,0.8-0.3,1.1-0.5c0.7,0.1,1.3,0.5,1.3,1.1c-0.6-0.2-0.7,0.2-1.6,0.4c-0.8,0.2-1.2-0.3-1.9-0.4c-0.2-0.1-0.3-0.3-0.3-0.4c0.3,0.1,0.7,0.1,1.1,0l0,0.1C26.5,14.9,26.9,14.9,27.3,14.8 M24.7,13.8c0.4,0,0.7-0.1,1.1-0.2c-0.2,0-0.5,0-0.8,0c0.5-0.3,0.8-0.7,1.5-0.7c0.9,0,0.9,0.5,1.4,0.3C28,13.6,25.4,14.8,24.7,13.8 M23.5,13.6c0.4,0.1,0.8,0.9,1.3,1.4c-0.7-0.2-1,0-1.6-0.5c-0.4-0.4-0.4-0.6-0.4-0.8c0.3-0.1,0.5-0.3,0.7-0.5c-0.3,0.2-0.6,0.3-0.9,0.3c0.2-0.1,0.3-0.1,0.6-0.6c0.8-0.8,1.2-0.3,2.2-0.6C25.2,12.7,24.1,13.5,23.5,13.6 M21.4,13.8c0.4,0,0.9,0.7,1.5,1c-0.7,0-1,0.2-1.6-0.1c-0.5-0.3-0.5-0.5-0.6-0.7c0.3-0.2,0.4-0.4,0.6-0.6c-0.2,0.2-0.6,0.4-0.9,0.5c0.2-0.2,0.3-0.1,0.5-0.7c0.7-0.9,1-0.6,2-1C22.9,12.5,22,13.6,21.4,13.8 M19.9,15.1c-0.7,0-1,0.3-1.7,0c-0.5-0.2-0.5-0.5-0.6-0.6c0.2-0.2,0.4-0.4,0.6-0.7c-0.2,0.2-0.5,0.4-0.9,0.6c0.2-0.2,0.3-0.2,0.5-0.8c0.7-1,1.2-0.7,2.1-1.2c0,0.3-0.9,1.4-1.6,1.8C18.8,14.2,19.4,14.7,19.9,15.1M31.5,18.4c0.1,0,0.2,0,0.3,0C31.7,18.4,31.6,18.5,31.5,18.4C31.5,18.5,31.5,18.4,31.5,18.4 M37.4,26.5c0.2,0.1,0.3,0.2,0.4,0.3c-0.1,0-0.3-0.1-0.4-0.1C37.4,26.6,37.4,26.6,37.4,26.5 M29,44.4c-1.6-0.3-3.6-2.1-6-2v-4h15.9c0,0.5-0.3,4.8-1.1,7.7C34.5,46.1,31.6,44.3,29,44.4 M39,31.3c0.3,0.2,0.5,0.4,0.7,0.5c-0.2-0.1-0.4-0.2-0.6-0.3C39,31.4,39,31.4,39,31.3 M40.8,28.3c-0.1,1,0.4,1.3-0.2,2.3c-0.5,0.3-0.4,0.5-0.5,0.7c0-0.3,0-0.7,0.2-1c-0.2,0.2-0.3,0.5-0.4,0.7c-0.1,0-0.4,0.1-0.8-0.3c-0.6-0.5-0.4-0.9-0.7-1.6c0.6,0.5,1.4,0.8,1.6,1.2C39.8,29.5,40.5,28.3,40.8,28.3 M39.3,28.2c-0.1-0.7,0.3-1.9,0.6-2.1c0.1,1,0.7,1.3,0.2,2.3c-0.4,0.4-0.3,0.5-0.4,0.7c-0.1-0.3-0.1-0.7,0-1c-0.2,0.3-0.3,0.5-0.3,0.8c-0.2,0-0.4,0.1-0.9-0.2c-0.7-0.4-0.6-0.9-1-1.5C38.1,27.6,39,27.8,39.3,28.2 M38.5,23.3c0.1,1,0.7,1.3,0.2,2.3c-0.5,0.4-0.3,0.5-0.4,0.7c-0.1-0.3-0.1-0.7,0-1c-0.1,0.2-0.3,0.5-0.3,0.8c-0.2,0-0.4,0.1-0.9-0.3c-0.7-0.5-0.6-0.9-1-1.5c0.6,0.4,1.5,0.6,1.8,1C37.8,24.6,38.2,23.4,38.5,23.3 M37.2,21.2c0.3,1,0.9,1.2,0.6,2.2c-0.4,0.4-0.2,0.6-0.3,0.8c-0.1-0.3-0.2-0.7-0.2-1c-0.1,0.3-0.2,0.5-0.1,0.8c-0.2,0-0.4,0.2-0.9-0.1c-0.8-0.4-0.8-0.8-1.3-1.4c0.7,0.3,1.6,0.5,2,0.8C36.7,22.6,36.9,21.4,37.2,21.2 M36.5,22.7c-0.1-0.2-0.3-0.3-0.5-0.4C36.1,22.4,36.3,22.5,36.5,22.7C36.5,22.7,36.5,22.7,36.5,22.7 M35.3,18.5c0.4,1,0.8,0.9,0.7,2.1c-0.2,0.6-0.1,0.7-0.1,1c-0.2-0.3-0.3-0.7-0.4-1c0,0.3,0,0.6,0.1,1c-0.2,0-0.3,0.3-0.8,0.1c-0.7-0.2-0.8-0.7-1.3-1.1c0.7,0.1,1.5,0,1.8,0.3C35,20.1,35.1,18.7,35.3,18.5M33.7,19c-0.3-0.6-0.4-1.9-0.2-2.2c0.5,0.9,0.9,0.7,1,1.9c-0.2,0.6,0,0.7,0,1c-0.2-0.3-0.4-0.6-0.5-1c0,0.3,0,0.6,0.2,0.9c-0.2,0.1-0.2,0.3-0.8,0.2c-0.8-0.1-0.9-0.5-1.5-0.9C32.6,19,33.3,18.7,33.7,19 M31.1,14.7c0.6,0.9,1.2,0.8,1.3,2c-0.1,0.6,0,0.7,0.1,0.9c-0.2-0.3-0.4-0.6-0.5-0.9c0,0.3,0.1,0.6,0.2,0.9c-0.2,0-0.2,0.3-0.8,0.3c-0.8,0-0.9-0.5-1.5-0.8c0.7,0,1.5-0.3,1.9-0.1C31.2,16.4,30.9,15,31.1,14.7 M30.7,14c0,0.1-0.1,0.2-0.1,0.4c-0.1-0.2-0.2-0.3-0.4-0.4C30.4,14,30.6,14,30.7,14 M30.5,14.9c-0.1,0.7,0.1,0.7,0.2,1c-0.1,0-0.1,0-0.2,0c-0.2-0.3-0.5-0.6-0.6-0.7c0.1,0.5,0.1,0.7,0.3,1c-0.1,0.1-0.2,0.2-0.5,0.2c-0.9,0.1-1.1-0.1-1.5-0.3c0.6-0.3,0.9-0.6,1.5-0.4c0,0,0-0.1-0.1-0.2c0,0,0,0,0,0l0,0c-0.1-0.2-0.3-0.4-0.5-0.7c-0.3-0.5-0.5-1-0.4-1.2C29.5,14.1,30.2,13.8,30.5,14.9 M29.9,13.2h-0.8C29,13.1,28.9,13,28.8,13C29.2,13,29.7,13.2,29.9,13.2 M16.1,12.6C16.8,12.3,17,12,17,12l-2.2-0.6l2.3-0.5c0,0-0.1-0.1-1.4-0.5c-0.3-0.1,0-0.3-1.1-0.6c0.4-0.1,0.3,0.1,1,0.2c0.5,0,0.9,0.1,1.7-0.1c0,0-1.3-1-2.2-1.5c0,0,1.5,0.4,2.6,0.7c0-0.1-0.9-0.8-1.5-1.6c-0.1-0.2-0.2-0.3-0.3-0.4c0.6,0.2,0.6,0.4,1,0.6c0.4,0.1,1.1,0.6,1.4,0.5c-0.7-0.9-1.6-2.3-1.6-2.3l2.3,1.6c-0.1-0.6-0.5-1.1-0.6-1.3c-0.3-1-0.2-0.9-0.4-1.3c0.6,0.9,0.9,1.5,1.8,2l-0.4-2.9l1.4,2.5c0.1-0.4,0-1.1-0.1-1.3c0.1-1.3,0.1-0.5,0-1.5c0.2,0.5,0.2,0.4,0.2,1.1c0.3,0.6,0.4,1,0.8,1.5l0.6-2.7c0,0,0.4,2.7,0.4,2.7c0.3-0.6,0.3-0.9,0.5-1.3C23.5,4.6,23.7,4,23.7,4c-0.2,1.1-0.2,0.7-0.3,1.3c0,0.6,0,1.4,0.1,1.5l1.7-2.4l-0.7,2.8c0.2-0.1,0.9-0.9,1.5-1.4c0.2-0.2,0.5-0.6,0.5-0.6C26.1,5.7,26,6,25.8,6.4c-0.3,0.7-0.2,0.4-0.5,1.4l2.4-1.6l-1.6,2.3c0,0,0.1,0.1,1.2-0.5c0.6-0.2,1.1-0.4,1.5-0.6c-0.8,0.7-1.1,0.6-2.2,2l2.7-0.5c0,0-2.2,1.3-2.3,1.4c0.1,0.1,1.1-0.1,1.7,0c0.6,0,0.6,0,1.2-0.1c-0.7,0.2-0.9,0.1-1.7,0.4c-0.3,0.2-1,0.4-1.1,0.6l2.7,0.5c0,0-2.6,0.6-3.1,0.8c-0.2,0-0.3,0-0.5,0c-0.1,0-0.2,0-0.3,0c0.1-0.2,0.2-0.4,0.1-0.6c-0.9,0.2-1.7,0-2.4,0.2c0.1-0.2,0.1-0.4,0-0.5c-1.1,0.5-2,0.3-3,1c0-0.2,0-0.5-0.1-0.7c-1,0.5-1.8,0.2-2.5,0.8c0-0.2,0-0.4,0-0.5c-1,0.4-1.8,0.5-2.5,1.3c-0.2,0-0.4-0.1-0.6-0.1c0,0,0-0.1-0.1-0.1c0,0-0.1,0.1-0.1,0.1c-0.1,0-0.3,0-0.5,0C15.2,12.9,15.7,12.8,16.1,12.6 M13,15.8c0.3-1.1,0.9-0.9,1.6-1.6c0.2,0.3-0.4,1.6-0.9,2c0.4-0.1,1.1,0.3,1.8,0.4c-0.7,0.2-0.8,0.6-1.6,0.5c-0.6-0.1-0.6-0.3-0.8-0.4c0.2-0.2,0.3-0.5,0.3-0.8c-0.1,0.3-0.4,0.5-0.6,0.7C12.9,16.4,13,16.4,13,15.8 M14.4,15.9C14.4,15.9,14.4,15.9,14.4,15.9C14.3,15.9,14.3,15.9,14.4,15.9L14.4,15.9z M11.3,17.2c0.1-1.2,0.7-1.1,1.3-1.9c0.2,0.3-0.1,1.7-0.5,2.2c0.4-0.2,1.1,0.1,1.8,0.1c-0.6,0.3-0.7,0.7-1.5,0.7c-0.6,0-0.7-0.2-0.8-0.3c0.1-0.3,0.2-0.6,0.2-0.9c-0.1,0.3-0.3,0.6-0.5,0.9C11.3,17.8,11.5,17.8,11.3,17.2 M10.8,18.1c0,0.2-0.1,0.3-0.1,0.4c0,0,0,0,0,0C10.7,18.5,10.8,18.3,10.8,18.1 M9.3,18.7c0.1-1.2,0.4-1.1,1-2c0.2,0.3,0.1,1.6-0.2,2.2c0.4-0.2,1.1,0,1.8,0c-0.6,0.4-0.7,0.8-1.4,0.9c-0.6,0.1-0.7-0.2-0.8-0.2c0.1-0.3,0.1-0.6,0.1-0.9c-0.1,0.3-0.2,0.6-0.5,0.9C9.4,19.4,9.5,19.4,9.3,18.7 M8.5,18.6c0.2,0.3,0.2,1.7-0.1,2.3c0.3-0.3,1.1-0.2,1.8-0.3c-0.6,0.4-0.6,0.9-1.3,1.1c-0.5,0.1-0.6-0.1-0.8-0.1c0.1-0.3,0.1-0.6,0.1-0.9c-0.1,0.3-0.2,0.7-0.4,1c0-0.3,0.2-0.3-0.1-0.9C7.7,19.6,8.1,19.6,8.5,18.6M7.4,22.8c0.1-0.1,0.2-0.2,0.3-0.2C7.6,22.6,7.4,22.8,7.4,22.8C7.4,22.9,7.4,22.8,7.4,22.8 M6.6,21.4c0.3,0.1,0.5,1.4,0.2,2.1C7.2,23.1,8,23,8.8,22.7c-0.5,0.6-0.5,1-1.3,1.3c-0.6,0.3-0.8,0.1-0.9,0.2c0-0.3,0-0.5-0.1-0.8c0,0.3-0.1,0.6-0.2,0.9c0-0.2,0.1-0.3-0.3-0.7C5.7,22.6,6.4,22.3,6.6,21.4 M5.1,25.7c-0.5-1,0.1-1.3,0.2-2.2c0.3,0.1,0.7,1.3,0.6,2c0.3-0.3,1.1-0.6,1.7-1c-0.4,0.6-0.3,1-1,1.5c-0.5,0.4-0.7,0.2-0.9,0.3c0-0.3-0.1-0.5-0.3-0.8c0.1,0.3,0,0.6,0,0.9C5.5,26.1,5.6,26,5.1,25.7 M6.6,26.5c0,0.1-0.1,0.2-0.1,0.2C6.2,26.9,6,27,5.7,27.1C5.9,26.9,6.2,26.8,6.6,26.5 M4.2,26.2c0.3,0.1,0.7,1.4,0.6,2c0.3-0.4,1.1-0.6,1.7-0.9c-0.4,0.6-0.3,1-1,1.4C5,29.1,4.8,28.9,4.6,29c0-0.3-0.1-0.6-0.2-0.8c0.1,0.3,0,0.6,0,1c0-0.2,0-0.3-0.4-0.7C3.5,27.4,4.1,27.1,4.2,26.2 M3.4,30.5c-0.6-0.9-0.1-1.3-0.2-2.2c0.4,0.1,1,1.3,1,1.9c0.2-0.4,1-0.7,1.5-1.2c-0.3,0.7-0.1,1-0.7,1.6C4.6,31,4.4,30.9,4.2,31c-0.1-0.3-0.2-0.5-0.4-0.7c0.1,0.3,0.2,0.6,0.2,1C3.9,31,4,30.8,3.4,30.5 M2.4,31.2c0.4,0.1,1,1.3,1,2c0.2-0.4,1-0.7,1.5-1.1c-0.3,0.7-0.1,1-0.7,1.5c-0.4,0.4-0.6,0.3-0.8,0.3c-0.1-0.3-0.2-0.5-0.4-0.7c0.1,0.3,0.2,0.6,0.2,1c-0.1-0.2,0-0.3-0.5-0.7C2,32.5,2.5,32.1,2.4,31.2 M3.5,36c-0.1-0.3-0.3-0.5-0.5-0.7c0.2,0.3,0.3,0.6,0.3,1c-0.2-0.2-0.1-0.3-0.6-0.6c-0.8-0.9-0.5-1.1-0.7-2c0.3,0,1.2,1.1,1.4,1.7c0.1-0.4,0.8-0.8,1.3-1.3c-0.2,0.7,0.1,1-0.4,1.6C3.9,36,3.6,35.9,3.5,36 M4.4,36.2v0.3c-0.3,0.2-0.5,0.4-0.7,0.6C3.8,36.7,4,36.6,4.4,36.2 M1.9,36.5c0.3,0.1,1.3,1.1,1.4,1.8c0.1-0.4,0.8-0.8,1.2-1.3c-0.2,0.7,0.1,1.1-0.4,1.6c-0.3,0.4-0.6,0.3-0.7,0.4c-0.1-0.3-0.3-0.5-0.5-0.7c0.2,0.3,0.3,0.6,0.3,1c-0.1-0.2-0.1-0.3-0.6-0.7C1.8,37.8,2.2,37.5,1.9,36.5M3.3,40.1v0.1c-0.2-0.3-0.5-0.7-0.9-1.1C3,39.4,3.2,39.8,3.3,40.1 M1.8,39.4c0.3,0,1.3,0.9,1.6,1.5c0-0.4,0.6-0.9,1-1.5c0,0.7,0.3,1.1-0.1,1.7c-0.2,0.5-0.5,0.4-0.6,0.5C3.5,41.4,3.2,41.2,3,41c0.2,0.3,0.4,0.6,0.5,0.9c-0.2-0.2-0.1-0.3-0.7-0.6C1.4,40.1,2.8,41.7,1.8,39.4 M3.6,42.7c0,0.1,0,0.1,0,0.2c-0.2-0.4-0.5-0.7-0.9-1C3.1,42.2,3.4,42.5,3.6,42.7 M3.5,43.7c0.1-0.5,0.7-1.1,1.1-1.8c-0.1,0.7,0.2,1.1-0.2,1.8c-0.3,0.6-0.5,0.6-0.6,0.7c-0.1-0.3-0.3-0.4-0.6-0.6c0.2,0.2,0.3,0.5,0.4,0.9c-0.2-0.2-0.1-0.3-0.7-0.5c-0.8-0.6-0.5-0.9-0.8-1.9C2.4,42.3,3.3,43.1,3.5,43.7 M2.3,44.6c0.3-0.1,1.4,0.6,1.7,1.2c0-0.4,0.5-1.1,0.8-1.9c0,0.7,0.4,1,0.1,1.8c-0.2,0.6-0.4,0.6-0.5,0.8c-0.2-0.2-0.4-0.4-0.7-0.5c0.2,0.2,0.4,0.5,0.6,0.8C4,46.7,4,46.5,3.4,46.5C2.5,46,2.8,45.4,2.3,44.6 M5,48.6c0-0.4,0.5-1.1,0.7-1.8c0,0.7,0.4,1,0.1,1.8c-0.2,0.6-0.4,0.6-0.5,0.7c-0.2-0.2-0.4-0.3-0.7-0.4C4.8,49,5,49.3,5.2,49.6C5,49.5,5,49.3,4.4,49.3c-1-0.5-0.7-1.1-1.2-1.9C3.5,47.3,4.6,48,5,48.6M3.8,49.6c0.3-0.2,1.6,0.4,2,0.9c-0.1-0.4,0.3-1.2,0.5-1.9c0.2,0.7,0.5,0.9,0.4,1.7c-0.1,0.6-0.3,0.7-0.4,0.8c-0.2-0.2-0.5-0.3-0.8-0.3c0.3,0.1,0.5,0.4,0.7,0.6C6,51.3,6,51.1,5.4,51.2C4.3,50.9,4.5,50.3,3.8,49.6 M5,52.1c0.3-0.1,1.6,0.4,2,1c-0.1-0.4,0.3-1.1,0.5-1.8c0.1,0.7,0.5,0.9,0.4,1.7c-0.1,0.6-0.3,0.6-0.4,0.8c-0.2-0.2-0.5-0.3-0.8-0.4C7,53.4,7.2,53.7,7.4,54c-0.2-0.1-0.2-0.3-0.8-0.2C5.5,53.4,5.7,52.8,5,52.1 M6,54.1c0.3-0.2,1.7,0.2,2.2,0.6C8,54.4,8.3,53.7,8.4,53c0.3,0.7,0.7,0.8,0.7,1.5c0,0.6-0.3,0.6-0.3,0.8c-0.3-0.1-0.5-0.2-0.8-0.2c0.3,0.1,0.6,0.3,0.8,0.5c-0.2-0.1-0.3-0.2-0.9-0.1C6.7,55.3,6.8,54.8,6,54.1 M9.1,56.2c0,0.1,0.1,0.2,0.1,0.3c-0.3-0.2-0.7-0.4-1.1-0.5C8.5,56,8.8,56.1,9.1,56.2 M7.3,56.3c0.3-0.2,1.7,0.3,2.2,0.8c-0.2-0.4,0.2-1.1,0.3-1.8c0.3,0.7,0.7,0.8,0.6,1.6c0,0.6-0.3,0.6-0.3,0.8c-0.3-0.2-0.6-0.2-0.9-0.3c0.3,0.1,0.6,0.4,0.8,0.6c-0.2-0.1-0.3-0.2-0.9-0.2C8,57.5,8.1,57,7.3,56.3M12.4,59.9c-0.2-0.2-0.5-0.4-0.9-0.3c-1.2-0.1-1.5-0.9-2.5-1.4c0.3-0.2,1.8,0.1,2.4,0.5c-0.2-0.3,0-1-0.1-1.7c0.4,0.6,0.9,0.7,0.9,1.4c0.1,0.6,0.1,0.9,0.2,1.3c-0.2-0.2-0.4-0.3-0.7-0.4C12,59.4,12.2,59.6,12.4,59.9 M10.9,58.1L10.9,58.1L10.9,58.1L10.9,58.1z M18.8,63.1c-2.7-0.8-5-2.1-5.6-3c-0.2-0.5-0.3-1.1-0.4-1.8c0,0,0,0,0-0.1c1.9,1.6,4,2.8,6.2,3.3h-0.2C18,62.4,18.4,62.9,18.8,63.1 M21.9,60.9c-7.3-0.2-11.7-6.1-13.3-9c-0.3-0.3,4.2-1.7,5.2-2l1.2-0.3c0,0.5,1,0.7,0.9,0.5c0.2,0.1-0.1,0.5,0.5,0.9c0.6,0.4,1,0.2,1,0.1c-0.4,0.4,0.9,1.1,1.7,0.6c-0.1,0.4,0.5,0.5,0.7,0.5c0.3,0.2,0.9,0.3,1.4,0v4c0.1,0.8,0.1,0.9,0.5,1.1c1.6,0.1,1.3-0.4,1.5-0.9C23,54.6,23,52.1,23,52.1c1.1-0.1,0.8-0.4,1.3-0.5c0.5,0.1,0.7,0.1,1.1-0.5c0.6,0.1,1.1-0.1,1.3-0.6c0.5,0.2,1.2-0.3,1.6-1.2c1.1,0.3,5,2.4,6.9,3C34.3,53.7,29.7,60.9,21.9,60.9 M34.7,56.7c0.2-0.1,0.4-0.2,0.6-0.2c-0.3,0.1-0.5,0.2-0.7,0.4C34.6,56.8,34.7,56.7,34.7,56.7 M32.9,58.5C32.9,58.5,32.9,58.5,32.9,58.5C32.9,58.5,32.9,58.5,32.9,58.5 M31,58.6c-0.1,0.7-0.2,1.2-0.3,1.7c-0.7,1.3-4.1,2.4-5.5,2.8c0.4-0.4,0.7-1.2,0.1-1.6h-0.1C27.2,61,29.2,59.9,31,58.6C31,58.5,31,58.5,31,58.6 M32.7,59.8c-0.5-0.1-0.9,0.2-1.2,0.4c0.2-0.3,0.4-0.6,0.7-0.8c-0.3,0.1-0.5,0.2-0.7,0.3c0-0.3,0-0.6,0.1-1c0.1-0.7,0.6-0.8,1-1.4c-0.1,0.7,0.2,1.4-0.1,1.8c0.6-0.4,2.2-0.7,2.5-0.5C33.9,59.1,33.9,59.7,32.7,59.8 M34.6,58.2c-0.6-0.1-0.7,0.1-0.9,0.2c0.3-0.2,0.6-0.4,0.9-0.6c-0.3,0.1-0.6,0.1-0.9,0.3c-0.1-0.2-0.3-0.2-0.3-0.8c0-0.8,0.4-0.9,0.7-1.6c0.1,0.7,0.4,1.4,0.2,1.8c0.5-0.5,2-1,2.3-0.8C35.7,57.4,35.8,57.9,34.6,58.2M36,56c-0.6-0.1-0.7,0-0.9,0.1c0.3-0.2,0.5-0.5,0.9-0.6c-0.3,0-0.6,0.1-0.9,0.2c-0.1-0.2-0.3-0.2-0.3-0.8c0-0.8,0.4-0.9,0.7-1.6c0.1,0.7,0.4,1.4,0.2,1.9c0.5-0.5,1.9-0.9,2.2-0.7C37.1,55.2,37.2,55.8,36,56 M37.3,54.2c-0.6,0-0.6,0.1-0.9,0.2c0.2-0.3,0.4-0.5,0.7-0.7c-0.3,0.1-0.6,0.2-0.8,0.4c-0.1-0.2-0.4-0.2-0.5-0.8c-0.2-0.8,0.2-1,0.4-1.7c0.2,0.7,0.6,1.4,0.5,1.9c0.4-0.6,1.7-1.2,2-1C38.2,53.3,38.4,53.9,37.3,54.2 M38.7,51.6c-0.6-0.1-0.6,0.1-0.8,0.2c0.2-0.3,0.4-0.5,0.7-0.7c-0.3,0.1-0.6,0.2-0.8,0.3c-0.1-0.2-0.3-0.2-0.4-0.8c-0.1-0.8,0.3-1,0.4-1.7c0.2,0.7,0.6,1.5,0.5,1.9c0.4-0.5,1.7-1.1,2-0.9C39.6,50.7,39.7,51.3,38.7,51.6 M39.6,49.6c-0.6,0-0.6,0.2-0.8,0.3c0.2-0.3,0.3-0.6,0.6-0.8c-0.3,0.1-0.5,0.2-0.7,0.5c-0.1-0.1-0.4-0.2-0.5-0.8c-0.3-0.8,0.1-1.1,0.1-1.8c0.3,0.7,0.8,1.4,0.8,1.9c0.3-0.6,1.5-1.3,1.8-1.2C40.4,48.6,40.6,49.2,39.6,49.6 M39.9,47.7c0.1-0.1,0.3-0.2,0.5-0.2C40.2,47.5,40,47.5,39.9,47.7 M40.6,46.8c-0.6,0-0.6,0.2-0.8,0.3c0.2-0.3,0.3-0.6,0.6-0.8c-0.3,0.1-0.5,0.2-0.7,0.4c-0.1-0.1-0.3-0.1-0.6-0.7c-0.3-0.8,0.1-1.1,0.1-1.8c0.3,0.7,0.8,1.4,0.8,1.9c0.3-0.6,1.4-1.4,1.7-1.3C41.3,45.7,41.6,46.3,40.6,46.8"/>
			</g>
			<g>
				<path fill="#FACC63" d="M16.1,12.6C16.8,12.3,17,12,17,12l-2.2-0.6l2.3-0.5c0,0-0.1-0.1-1.4-0.5c-0.3-0.1,0-0.3-1.1-0.6c0.4-0.1,0.3,0.1,1,0.2c0.5,0,0.9,0.1,1.7-0.1c0,0-1.3-1-2.2-1.5c0,0,1.5,0.4,2.6,0.7c0-0.1-0.9-0.8-1.5-1.6c-0.1-0.2-0.2-0.3-0.3-0.4c0.6,0.2,0.6,0.4,1,0.6c0.4,0.1,1.1,0.6,1.4,0.5c-0.7-0.9-1.6-2.3-1.6-2.3l2.3,1.6c-0.1-0.6-0.5-1.1-0.6-1.3c-0.3-1-0.2-0.9-0.4-1.3c0.6,0.9,0.9,1.5,1.8,2l-0.4-2.9l1.4,2.5c0.1-0.4,0-1.1-0.1-1.3c0.1-1.3,0.1-0.5,0-1.5c0.2,0.5,0.2,0.5,0.2,1.1c0.3,0.6,0.4,1,0.8,1.5l0.6-2.7c0,0,0.4,2.7,0.4,2.7c0.3-0.6,0.3-0.9,0.5-1.3C23.5,4.6,23.7,4,23.7,4c-0.2,1.1-0.2,0.7-0.3,1.3c0,0.6,0,1.4,0.1,1.5l1.7-2.4l-0.7,2.8c0.2-0.1,0.9-0.9,1.5-1.4c0.2-0.2,0.5-0.6,0.5-0.6C26.1,5.7,26,6,25.8,6.4c-0.3,0.7-0.2,0.4-0.5,1.4l2.4-1.6l-1.6,2.3c0,0,0.1,0.1,1.2-0.5c0.6-0.2,1.1-0.4,1.5-0.6c-0.8,0.7-1.1,0.6-2.2,2l2.7-0.5c0,0-2.2,1.3-2.3,1.4c0.1,0.1,1.1-0.1,1.7,0c0.6,0,0.6,0,1.2-0.1c-0.7,0.2-0.9,0.1-1.6,0.4c-0.3,0.2-1,0.4-1.1,0.6l2.7,0.5c0,0-2.6,0.6-3.1,0.8c-0.1,0-0.3,0-0.5,0c-0.1,0-0.2,0-0.3,0c0.1-0.2,0.2-0.4,0.1-0.6c-0.9,0.2-1.7,0-2.4,0.2c0.1-0.2,0.1-0.4,0-0.5c-1.1,0.5-2,0.3-3,1c0-0.2,0-0.5-0.1-0.7c-1,0.5-1.8,0.2-2.5,0.8c0-0.2,0-0.4,0-0.5c-1,0.4-1.8,0.5-2.5,1.3c-0.2,0-0.4-0.1-0.6-0.1c0,0-0.1-0.1-0.1-0.1c0,0-0.1,0.1-0.1,0.1c-0.1,0-0.3,0-0.5,0C15.2,12.9,15.7,12.8,16.1,12.6"/>
			</g>
			<g>
				<path fill="#231F20" d="M25.8,9.7l0.3,0c0,0-0.2-1.2-2.4-1.1h-0.5c0,0-0.2,0.7-0.2,0.7l1.5-0.1C24.4,9.2,25.5,9.1,25.8,9.7"/>
			</g>
			<g>
				<path fill="#231F20" d="M23.3,10.5c0-0.1,0.3-0.4,0.3-0.4s0.1,0,0.1,0c0,0.1,0,0.1,0,0.2c0,0.2,0.1,0.4,0.4,0.5c0.1,0,0.4,0,0.4,0c0.2-0.1,0.4-0.3,0.4-0.5c0-0.1,0-0.1,0-0.2c0.2,0,0.4,0.2,0.6,0.4l0.5,0c0,0-0.3-1.2-2.4-0.9c0,0-0.5,0.7-0.5,0.8C22.8,10.6,23.3,10.6,23.3,10.5"/>
			</g>
			<g>
				<path fill="#231F20" d="M18.5,10.5l0.5-0.1c0.1-0.2,0.4-0.3,0.5-0.4c0,0.1,0,0.1,0,0.1c0,0.3,0.1,0.5,0.4,0.5c0,0,0.3,0,0.4,0c0.2-0.1,0.4-0.3,0.4-0.5c0,0,0,0,0-0.1c0.1,0,0.1,0,0.1,0s0.3,0.3,0.3,0.3c0,0.1,0.5,0.1,0.5,0c0-0.1-0.5-0.8-0.5-0.8C18.8,9.3,18.5,10.5,18.5,10.5"/>
			</g>
			<g>
				<path fill="#231F20" d="M19.8,9.2l1.6,0.1c0,0-0.2-0.6-0.2-0.7h-0.4c-2.4-0.1-2.6,1-2.6,1l0.3,0C18.8,9,19.8,9.2,19.8,9.2"/>
			</g>
			<g>
				<path fill="#0B9E5C" d="M42,42.4c-0.3,0.9,0,1.5-0.8,2.2c-0.5,0.1-0.5,0.3-0.7,0.5c0.1-0.3,0.2-0.7,0.4-0.9c-0.2,0.2-0.4,0.3-0.6,0.6c-0.1-0.1-0.3-0.1-0.7-0.7c-0.4-0.8-0.1-1.1-0.3-1.9c0.4,0.7,1,1.3,1.1,1.8C40.8,43.3,41.7,42.3,42,42.4"/>
			</g>
			<g>
				<path fill="#0B9E5C" d="M42.4,39.3c-0.4,1-0.1,1.4-1,2.3c-0.6,0.3-0.6,0.4-0.7,0.6c0.1-0.4,0.3-0.7,0.5-1c-0.3,0.2-0.5,0.4-0.7,0.7c-0.1-0.1-0.4,0-0.6-0.5c-0.4-0.7,0-1-0.1-1.8c0.4,0.6,1,1.1,1,1.5C41,40.4,42.1,39.3,42.4,39.3"/>
			</g>
			<g>
				<path fill="#0B9E5C" d="M40.8,38.5c0.2-0.7,1-1.9,1.4-2c-0.3,1,0.1,1.4-0.7,2.3c-0.6,0.3-0.5,0.5-0.7,0.7c0.1-0.4,0.2-0.7,0.4-1c-0.2,0.2-0.4,0.5-0.6,0.7c-0.1-0.1-0.4,0.1-0.7-0.4c-0.5-0.6-0.2-1-0.4-1.7C40,37.6,40.6,38,40.8,38.5"/>
			</g>
			<g>
				<path fill="#0B9E5C" d="M42.1,33.5c-0.3,1,0.1,1.4-0.7,2.3c-0.6,0.3-0.5,0.4-0.7,0.6c0.1-0.3,0.2-0.7,0.3-0.9c-0.2,0.2-0.4,0.4-0.6,0.7c-0.1-0.1-0.4,0-0.8-0.5c-0.5-0.6-0.2-0.9-0.4-1.7c0.5,0.5,1.2,0.9,1.3,1.3C40.9,34.7,41.8,33.5,42.1,33.5"/>
			</g>
			<g>
				<path fill="#0B9E5C" d="M40.6,33.2c0-0.7,0.7-1.9,1-2c-0.1,1,0.4,1.3-0.2,2.3c-0.5,0.4-0.4,0.5-0.5,0.7c0-0.3,0-0.7,0.2-1c-0.2,0.2-0.4,0.5-0.4,0.8c-0.2,0-0.4,0.1-0.8-0.3c-0.6-0.5-0.4-0.9-0.7-1.5C39.6,32.5,40.4,32.8,40.6,33.2"/>
			</g>
			<g>
				<path fill="#0B9E5C" d="M15.1,15.2c0.1-0.2,0.3-0.2,0.4-0.8c0.4-1.3,1.1-1.1,2-1.7c0.3,0.4-0.8,1.8-1.4,2.2c0.4-0.1,1,0.5,1.6,0.7c-0.7,0.1-1,0.5-1.7,0.2c-0.5-0.2-0.5-0.4-0.6-0.5c0.2-0.2,0.4-0.5,0.6-0.8C15.7,14.9,15.4,15.1,15.1,15.2"/>
			</g>
			<g>
				<path fill="#0B9E5C" d="M27.3,14.8c-0.3,0-0.5-0.1-0.8-0.2c0.4-0.1,0.8-0.3,1.1-0.5c0.7,0.1,1.3,0.5,1.3,1.1c-0.6-0.2-0.7,0.2-1.6,0.3c-0.8,0.2-1.2-0.3-1.9-0.4c-0.2-0.2-0.3-0.3-0.3-0.5c0.4,0.1,0.7,0.1,1.1,0l0,0.1C26.6,14.9,26.9,14.9,27.3,14.8"/>
			</g>
			<g>
				<path fill="#0B9E5C" d="M24.7,13.8c0.4,0,0.7-0.1,1-0.2c-0.2,0.1-0.5,0-0.8,0c0.5-0.3,0.8-0.7,1.5-0.7c0.9,0,0.9,0.5,1.5,0.3C28,13.6,25.4,14.8,24.7,13.8"/>
			</g>
			<g>
				<path fill="#0B9E5C" d="M23.5,13.6c0.4,0.1,0.8,0.9,1.3,1.4c-0.7-0.2-1,0-1.6-0.5c-0.5-0.4-0.4-0.6-0.4-0.8c0.3-0.1,0.5-0.3,0.7-0.5c-0.3,0.2-0.6,0.3-0.9,0.3c0.2-0.1,0.3-0.1,0.6-0.6c0.8-0.8,1.2-0.3,2.2-0.6C25.2,12.7,24.1,13.5,23.5,13.6"/>
			</g>
			<g>
				<path fill="#0B9E5C" d="M21.4,13.8c0.4,0.1,0.9,0.7,1.5,1.1c-0.7-0.1-1,0.2-1.7-0.2c-0.5-0.3-0.4-0.5-0.5-0.7c0.3-0.2,0.4-0.4,0.6-0.7c-0.2,0.2-0.6,0.4-0.9,0.5c0.2-0.2,0.3-0.2,0.5-0.7c0.7-0.9,1-0.6,2-1C22.9,12.6,22,13.6,21.4,13.8"/>
			</g>
			<g>
				<path fill="#0B9E5C" d="M20,15.1c-0.7,0-1,0.3-1.7,0c-0.5-0.2-0.5-0.4-0.6-0.6c0.3-0.2,0.4-0.4,0.6-0.7c-0.2,0.2-0.6,0.4-0.9,0.6c0.2-0.2,0.3-0.1,0.5-0.8c0.7-1,1.1-0.7,2.1-1.2c0,0.3-0.9,1.5-1.6,1.8C18.8,14.2,19.4,14.8,20,15.1"/>
			</g>
			<g>
				<path fill="#0B9E5C" d="M40.8,28.3c-0.1,1,0.4,1.3-0.2,2.3c-0.5,0.3-0.4,0.5-0.5,0.7c0-0.3,0-0.7,0.2-1c-0.2,0.2-0.3,0.5-0.4,0.8c-0.2-0.1-0.4,0-0.8-0.4c-0.6-0.5-0.4-0.9-0.8-1.6c0.6,0.5,1.4,0.8,1.6,1.2C39.8,29.6,40.5,28.3,40.8,28.3"/>
			</g>
			<g>
				<path fill="#0B9E5C" d="M39.3,28.2c-0.1-0.7,0.3-1.9,0.6-2.1c0.1,1,0.7,1.3,0.2,2.3c-0.4,0.4-0.3,0.5-0.4,0.7c-0.1-0.3-0.1-0.7,0-1c-0.1,0.2-0.2,0.5-0.3,0.8c-0.2,0-0.4,0.1-0.9-0.2c-0.7-0.4-0.6-0.9-1-1.5C38.2,27.6,39,27.8,39.3,28.2"/>
			</g>
			<g>
				<path fill="#0B9E5C" d="M38.5,23.3c0.1,1,0.7,1.3,0.2,2.3c-0.4,0.4-0.3,0.5-0.4,0.7c-0.1-0.3-0.1-0.7,0-1c-0.1,0.2-0.3,0.5-0.3,0.8c-0.2,0-0.4,0.1-0.9-0.3c-0.7-0.5-0.6-0.9-1-1.5c0.6,0.4,1.5,0.6,1.8,1C37.8,24.6,38.2,23.4,38.5,23.3"/>
			</g>
			<g>
				<path fill="#0B9E5C" d="M37.2,21.2c0.3,0.9,0.9,1.2,0.6,2.2c-0.4,0.4-0.2,0.6-0.3,0.8c-0.1-0.3-0.2-0.6-0.2-1c-0.1,0.3-0.2,0.5-0.1,0.8c-0.2,0-0.3,0.1-0.9-0.2c-0.8-0.4-0.8-0.8-1.3-1.4c0.7,0.3,1.6,0.5,1.9,0.8C36.7,22.7,36.9,21.4,37.2,21.2"/>
			</g>
			<g>
				<path fill="#0B9E5C" d="M35.3,18.5c0.4,1,0.8,0.9,0.7,2.1c-0.2,0.6-0.1,0.7-0.1,1c-0.2-0.3-0.3-0.7-0.4-1c0,0.3,0,0.6,0.1,1c-0.2,0-0.3,0.3-0.8,0.1c-0.7-0.2-0.8-0.7-1.3-1.1c0.7,0.1,1.5,0,1.8,0.3C35,20.1,35.1,18.7,35.3,18.5"/>
			</g>
			<g>
				<path fill="#0B9E5C" d="M33.7,19c-0.4-0.6-0.5-1.9-0.2-2.2c0.5,0.9,0.9,0.7,0.9,1.9c-0.1,0.6,0,0.7,0,0.9c-0.2-0.3-0.4-0.6-0.5-0.9c0,0.3,0,0.6,0.2,0.9c-0.2,0.1-0.2,0.3-0.8,0.2c-0.8-0.1-0.9-0.5-1.5-0.9C32.6,19,33.3,18.8,33.7,19"/>
			</g>
			<g>
				<path fill="#0B9E5C" d="M31.1,14.7c0.6,0.8,1.2,0.8,1.3,2c-0.2,0.6,0,0.7,0,0.9c-0.2-0.3-0.4-0.6-0.5-0.9c0,0.3,0.1,0.6,0.2,0.9c-0.2,0.1-0.2,0.3-0.8,0.3c-0.8,0-0.9-0.4-1.5-0.8c0.7,0,1.5-0.3,1.9-0.1C31.2,16.4,30.9,15,31.1,14.7"/>
			</g>
			<g>
				<path fill="#0B9E5C" d="M30.5,14.9c-0.1,0.7,0.1,0.6,0.2,0.9c-0.1,0-0.1,0-0.2,0c-0.2-0.3-0.5-0.6-0.6-0.7c0.1,0.5,0.1,0.7,0.3,1c-0.1,0.1-0.2,0.2-0.5,0.2c-1,0.1-1.1-0.2-1.5-0.4c0.6-0.3,0.9-0.6,1.5-0.4c0-0.1,0-0.1-0.1-0.2h0c0,0,0,0,0,0c-0.1-0.2-0.3-0.4-0.5-0.7c-0.3-0.5-0.5-1-0.4-1.2C29.5,14.1,30.2,13.8,30.5,14.9"/>
			</g>
			<g>
				<path fill="#0B9E5C" d="M13,15.8c0.3-1.1,0.9-0.9,1.5-1.6c0.2,0.3-0.3,1.6-0.8,2.1c0.4-0.1,1.1,0.3,1.9,0.4c-0.7,0.2-0.9,0.6-1.6,0.5c-0.6-0.1-0.6-0.3-0.8-0.4c0.2-0.2,0.3-0.5,0.3-0.8c-0.1,0.3-0.4,0.5-0.6,0.7C12.9,16.4,13,16.4,13,15.8"/>
			</g>
			<g>
				<path fill="#0B9E5C" d="M11.3,17.2c0.1-1.1,0.7-1.1,1.3-1.9c0.2,0.3-0.1,1.7-0.5,2.3c0.4-0.2,1.1,0,1.8,0.1c-0.6,0.3-0.7,0.7-1.5,0.7c-0.6,0-0.7-0.2-0.8-0.3c0.1-0.3,0.2-0.6,0.2-0.9c-0.1,0.3-0.3,0.6-0.5,0.9C11.3,17.8,11.5,17.8,11.3,17.2"/>
			</g>
			<g>
				<path fill="#0B9E5C" d="M9.4,18.8c0.1-1.2,0.4-1.1,0.9-2c0.2,0.3,0.1,1.7-0.2,2.2c0.4-0.2,1.1,0,1.8,0c-0.6,0.4-0.7,0.8-1.4,0.9c-0.6,0-0.7-0.2-0.8-0.2c0.1-0.3,0.1-0.6,0.1-0.9c-0.1,0.3-0.2,0.7-0.5,0.9C9.4,19.4,9.5,19.4,9.4,18.8"/>
			</g>
			<g>
				<path fill="#0B9E5C" d="M8.5,18.6c0.2,0.3,0.3,1.7-0.1,2.3c0.4-0.3,1.1-0.2,1.8-0.3c-0.6,0.4-0.6,0.9-1.3,1.1c-0.5,0.1-0.7-0.1-0.8-0.1c0.1-0.3,0.1-0.6,0.1-0.9c-0.1,0.3-0.2,0.7-0.4,1c0-0.2,0.1-0.3-0.1-0.9C7.7,19.6,8.1,19.6,8.5,18.6"/>
			</g>
			<g>
				<path fill="#0B9E5C" d="M6.7,21.4c0.3,0.1,0.5,1.4,0.2,2.1c0.3-0.3,1.2-0.5,1.9-0.8c-0.5,0.6-0.5,1-1.3,1.4c-0.6,0.3-0.7,0.1-0.9,0.2c0-0.3,0-0.6-0.1-0.8c0,0.3-0.1,0.7-0.2,1c0-0.2,0.1-0.3-0.3-0.8C5.7,22.6,6.4,22.3,6.7,21.4"/>
			</g>
			<g>
				<path fill="#0B9E5C" d="M5.1,25.7c-0.5-1,0.1-1.3,0.2-2.2c0.3,0.1,0.8,1.3,0.6,2c0.3-0.4,1.1-0.6,1.8-1c-0.4,0.6-0.3,1-1,1.5c-0.5,0.4-0.7,0.2-0.9,0.3c0-0.3-0.1-0.5-0.3-0.8c0.1,0.3,0.1,0.6,0,0.9C5.5,26.2,5.6,26,5.1,25.7"/>
			</g>
			<g>
				<path fill="#0B9E5C" d="M4.2,26.2c0.3,0.1,0.7,1.3,0.6,2c0.3-0.4,1.1-0.6,1.8-0.9c-0.5,0.6-0.3,1-1,1.4C5,29,4.8,28.9,4.6,29c0-0.3-0.1-0.5-0.3-0.8c0.1,0.3,0,0.6,0,1c-0.1-0.2,0.1-0.4-0.4-0.7C3.5,27.4,4.1,27.1,4.2,26.2"/>
			</g>
			<g>
				<path fill="#0B9E5C" d="M3.5,30.5c-0.6-0.9-0.1-1.3-0.2-2.2c0.3,0,1,1.2,1,1.9c0.2-0.4,1-0.7,1.5-1.2c-0.3,0.7-0.1,1-0.7,1.6C4.6,31,4.4,30.9,4.2,31c-0.1-0.3-0.2-0.5-0.4-0.7C4,30.5,4,30.9,4,31.2C3.9,31,4,30.9,3.5,30.5"/>
			</g>
			<g>
				<path fill="#0B9E5C" d="M2.5,31.2c0.3,0.1,1,1.3,1,2c0.2-0.4,1-0.7,1.5-1.1c-0.3,0.7-0.1,1-0.7,1.5c-0.5,0.4-0.7,0.3-0.8,0.3c-0.1-0.3-0.2-0.5-0.4-0.8c0.1,0.3,0.2,0.6,0.2,1c-0.1-0.2,0-0.3-0.5-0.7C2.1,32.5,2.5,32.2,2.5,31.2"/>
			</g>
			<g>
				<path fill="#0B9E5C" d="M3.5,36c-0.1-0.3-0.3-0.5-0.5-0.7c0.2,0.3,0.3,0.6,0.3,0.9c-0.1-0.2-0.1-0.3-0.6-0.6c-0.8-0.9-0.5-1.1-0.7-2.1c0.3,0,1.3,1.1,1.4,1.7c0.1-0.4,0.8-0.8,1.3-1.3c-0.2,0.7,0.1,1-0.4,1.6C3.9,36,3.6,35.9,3.5,36"/>
			</g>
			<g>
				<path fill="#0B9E5C" d="M1.9,36.5c0.3,0.1,1.3,1.1,1.4,1.8c0.1-0.4,0.8-0.8,1.2-1.3c-0.2,0.7,0.1,1-0.4,1.6c-0.3,0.5-0.6,0.3-0.7,0.4c-0.1-0.3-0.3-0.5-0.5-0.7c0.2,0.3,0.3,0.6,0.4,0.9c-0.2-0.2-0.1-0.3-0.6-0.6C1.9,37.8,2.2,37.5,1.9,36.5"/>
			</g>
			<g>
				<path fill="#0B9E5C" d="M1.8,39.4c0.3,0,1.3,0.9,1.6,1.5c0-0.4,0.6-0.9,1-1.5c0,0.7,0.3,1.1-0.1,1.7c-0.3,0.5-0.5,0.4-0.6,0.5C3.5,41.4,3.2,41.2,3,41c0.2,0.2,0.4,0.6,0.5,0.9c-0.2-0.2-0.1-0.3-0.7-0.6C1.4,40.1,2.8,41.8,1.8,39.4"/>
			</g>
			<g>
				<path fill="#0B9E5C" d="M3.5,43.7c0-0.4,0.7-1.1,1.1-1.8c-0.1,0.7,0.2,1.1-0.2,1.8c-0.3,0.6-0.5,0.6-0.6,0.7c-0.2-0.2-0.3-0.4-0.6-0.6c0.2,0.2,0.3,0.6,0.4,0.9c-0.2-0.2-0.1-0.3-0.7-0.5c-0.8-0.6-0.4-0.9-0.8-1.8C2.5,42.3,3.3,43.1,3.5,43.7"/>
			</g>
			<g>
				<path fill="#0B9E5C" d="M2.3,44.6c0.3-0.1,1.4,0.6,1.7,1.3c0-0.4,0.5-1.2,0.8-1.9c0,0.7,0.4,1,0.1,1.8c-0.2,0.6-0.4,0.6-0.5,0.8c-0.2-0.2-0.4-0.4-0.7-0.5c0.3,0.2,0.4,0.5,0.6,0.8C4,46.7,4,46.5,3.5,46.5C2.5,46,2.8,45.4,2.3,44.6"/>
			</g>
			<g>
				<path fill="#0B9E5C" d="M5,48.6c0-0.4,0.5-1.2,0.8-1.9c0,0.7,0.4,1,0.1,1.8c-0.2,0.6-0.4,0.6-0.5,0.8c-0.2-0.2-0.4-0.3-0.7-0.5C4.9,49,5,49.3,5.2,49.6C5,49.5,5,49.3,4.4,49.3c-1-0.5-0.7-1.1-1.2-1.9C3.5,47.3,4.7,48,5,48.6"/>
			</g>
			<g>
				<path fill="#0B9E5C" d="M3.8,49.6c0.3-0.2,1.6,0.4,2,0.9c-0.1-0.4,0.3-1.2,0.4-1.9c0.2,0.7,0.6,0.9,0.4,1.7c-0.1,0.6-0.3,0.6-0.4,0.8c-0.2-0.2-0.5-0.3-0.8-0.3c0.3,0.2,0.5,0.4,0.7,0.6C6,51.3,6,51.1,5.4,51.2C4.3,50.9,4.5,50.3,3.8,49.6"/>
			</g>
			<g>
				<path fill="#0B9E5C" d="M5.1,52.1c0.3-0.2,1.6,0.4,2,1c-0.1-0.4,0.3-1.1,0.5-1.8c0.1,0.7,0.5,0.9,0.4,1.7c-0.1,0.6-0.3,0.6-0.4,0.7c-0.2-0.2-0.5-0.3-0.8-0.4C7,53.4,7.2,53.7,7.4,54c-0.2-0.1-0.2-0.3-0.8-0.2C5.5,53.4,5.7,52.8,5.1,52.1"/>
			</g>
			<g>
				<path fill="#0B9E5C" d="M6,54.1c0.3-0.2,1.7,0.2,2.2,0.6C8,54.4,8.3,53.7,8.4,53c0.3,0.7,0.7,0.8,0.7,1.6c0,0.6-0.3,0.6-0.3,0.8c-0.2-0.1-0.6-0.2-0.8-0.2c0.3,0.1,0.6,0.3,0.8,0.5c-0.2-0.1-0.3-0.2-0.9-0.1C6.7,55.3,6.8,54.8,6,54.1"/>
			</g>
			<g>
				<path fill="#0B9E5C" d="M7.3,56.3c0.3-0.2,1.7,0.3,2.2,0.8c-0.2-0.4,0.2-1.1,0.3-1.8c0.2,0.7,0.7,0.8,0.6,1.6c0,0.6-0.3,0.6-0.3,0.8c-0.3-0.2-0.6-0.2-0.9-0.3c0.3,0.1,0.6,0.4,0.8,0.6c-0.2-0.1-0.3-0.3-0.9-0.2C8,57.5,8.1,57,7.3,56.3"/>
			</g>
			<g>
				<path fill="#0B9E5C" d="M12.4,59.9c-0.2-0.2-0.5-0.4-0.9-0.3c-1.2-0.1-1.5-0.9-2.4-1.4c0.3-0.2,1.8,0.1,2.4,0.5c-0.2-0.4,0-1.1-0.1-1.8c0.4,0.6,0.8,0.7,0.9,1.4c0.1,0.6,0.1,1,0.2,1.3c-0.2-0.2-0.4-0.3-0.7-0.5C12,59.4,12.2,59.7,12.4,59.9"/>
			</g>
			<g>
				<path fill="#0B9E5C" d="M32.7,59.8c-0.5-0.1-0.9,0.2-1.1,0.4c0.2-0.3,0.4-0.6,0.7-0.8c-0.2,0-0.5,0.2-0.7,0.3c0-0.3,0-0.6,0.1-1.1c0.1-0.7,0.6-0.8,1-1.4c-0.1,0.7,0.1,1.4-0.1,1.8c0.6-0.4,2.1-0.7,2.4-0.5C33.9,59.1,33.9,59.7,32.7,59.8"/>
			</g>
			<g>
				<path fill="#0B9E5C" d="M34.6,58.2c-0.6-0.1-0.7,0.1-0.9,0.2c0.3-0.2,0.5-0.4,0.9-0.6c-0.3,0.1-0.6,0.2-0.9,0.3c-0.1-0.2-0.3-0.2-0.3-0.8c0-0.7,0.4-0.9,0.7-1.6c0.1,0.7,0.4,1.4,0.2,1.8c0.5-0.5,2-1,2.3-0.8C35.7,57.4,35.8,58,34.6,58.2"/>
			</g>
			<g>
				<path fill="#0B9E5C" d="M36,56c-0.6-0.1-0.7,0-0.9,0.1c0.3-0.2,0.5-0.5,0.9-0.6c-0.3,0-0.6,0.1-0.9,0.2c-0.1-0.2-0.3-0.2-0.3-0.8c0-0.8,0.4-0.9,0.7-1.6c0.1,0.7,0.4,1.5,0.2,1.9c0.5-0.5,1.9-0.9,2.2-0.7C37.1,55.2,37.2,55.8,36,56"/>
			</g>
			<g>
				<path fill="#0B9E5C" d="M37.3,54.2c-0.6,0-0.6,0.1-0.8,0.2c0.2-0.3,0.4-0.5,0.7-0.7c-0.3,0.1-0.6,0.2-0.8,0.3C36.3,54,36,54,35.9,53.4c-0.2-0.8,0.2-1,0.4-1.7c0.2,0.7,0.6,1.4,0.5,1.9c0.4-0.6,1.7-1.2,2-1C38.2,53.3,38.4,53.9,37.3,54.2"/>
			</g>
			<g>
				<path fill="#0B9E5C" d="M38.7,51.6c-0.6-0.1-0.6,0.1-0.8,0.2c0.2-0.3,0.4-0.5,0.7-0.7c-0.3,0.1-0.6,0.2-0.8,0.3c-0.1-0.2-0.3-0.2-0.4-0.8c-0.1-0.8,0.2-1,0.4-1.7c0.2,0.7,0.6,1.5,0.5,1.9c0.4-0.6,1.7-1.1,2-0.9C39.6,50.7,39.8,51.3,38.7,51.6"/>
			</g>
			<g>
				<path fill="#0B9E5C" d="M39.7,49.6c-0.6,0-0.6,0.2-0.8,0.3c0.1-0.3,0.3-0.6,0.6-0.8c-0.3,0.1-0.5,0.2-0.7,0.5c-0.1-0.1-0.3-0.2-0.5-0.8c-0.3-0.8,0.1-1,0.1-1.8c0.3,0.7,0.8,1.4,0.8,1.8c0.3-0.6,1.5-1.3,1.8-1.2C40.4,48.6,40.6,49.2,39.7,49.6"/>
			</g>
			<g>
				<path fill="#0B9E5C" d="M40.7,46.8c-0.6,0.1-0.6,0.2-0.8,0.3c0.1-0.3,0.3-0.6,0.6-0.8c-0.3,0.1-0.5,0.2-0.7,0.5c-0.1-0.1-0.3-0.1-0.6-0.8c-0.3-0.8,0.1-1.1,0.1-1.8c0.3,0.7,0.8,1.4,0.8,1.9c0.3-0.6,1.4-1.4,1.7-1.2C41.3,45.7,41.6,46.3,40.7,46.8"/>
			</g>
			<g>
				<path fill="#EFB780" d="M36,50.5c0,0-3,0.5-6.8-2c0.3-0.4,0.4-1.4,0.3-2c-0.1-0.5-0.1-0.1-0.2,0.2c-0.4,0.9-0.6,1-1,1.3c-1.1-1.1-1.3-1.1-2.7-2c-1-0.6-1.1-0.9-1.7-1.3c-1,0.5-2.5,1.4-3.3,0.8c-0.6-0.3,0.8-0.7,1.3-1.5c0.5-0.7,1.1-0.9,1.9-0.7c1.5,0.3,2.3,0.9,4.6,1.8c2.8,0.2,4.8,1,7.6,1.6c0.5,0.1,1.2,0.2,1.5,0.2C37.1,48.2,36.7,49,36,50.5"/>
			</g>
			<g>
				<path fill="#EFB780" d="M23.9,47.5c0.8,0.9,1.6,1.1,2.1,2.2c-0.2,0.3-0.5,0.4-0.9,0.2c-1.2-1.4-2.4-1.6-1.9-2.3c-0.3,0-0.5,0.3-0.4,0.5c0.2,1,1.3,1.4,1.7,2.2c-0.2,0.7-1.5,0.1-2.1-1.7l0-0.1c-0.3,0.5-0.5,0.7,0.4,1.8c0.2,0.4,0.3,0.8-0.3,0.7c0.1,0.1-0.3,0-0.1,0h0.1c0,0-0.1,0-0.1-0.1c0.3-1.7-1.3-1.4-1.2-1.4c0.2-0.6-0.7-1.2-1.5-0.8c0.1-0.5-0.8-1.2-2.1-0.7c-0.2-0.5-1.4-0.9-2.5,0.5c-2,0.2-5.3,1.9-7.2,1c-0.1,0.1-1.2-3.2-1.3-3.3c2.3-0.2,7.5-0.6,9.3-1.4c1.5-0.9,4.2-1.4,4.8-1.1c-0.1,0.5-1.2,1.4-0.6,1.9c1,1,2.7,0.5,3.8-0.1c1.1,1.2,3,1.4,3.7,2.9l-0.2,0.5c-0.4,0.3-0.4,0.3-0.9-0.4c-1.1-1.5-2.1-1.1-2.3-2.2C23.6,46.8,23.9,47.2,23.9,47.5"/>
			</g>
			<g>
				<path fill="#EFB780" d="M18.5,50.5c-0.4,0.2,0.2-0.3,0.3-0.4l0.2-0.2c0.3-0.3,0.8-0.7,1.1-0.1c0.2,0.4-1.2,1.2-1.4,1.2c-0.2,0.1-0.3,0.1-0.4-0.1C18.2,50.7,18.3,50.6,18.5,50.5"/>
			</g>
			<g>
				<path fill="#EFB780" d="M17.3,50.3c-0.2,0.1-0.4,0.1-0.6-0.1c-0.1-0.2,0.3-0.7,0.5-0.9c0.2-0.2,0.3-0.2,0.3-0.2l0.3-0.2c0.5-0.1,0.5,0,0.6,0.2C18.5,49.3,17.6,50.3,17.3,50.3"/>
			</g>
			<g>
				<path fill="#EFB780" d="M20.6,50.6c0,0,0.6-0.6,0.8,0.2c0.1,0.3-0.5,0.7-1.1,0.9C20.1,51.5,19.4,51.5,20.6,50.6"/>
			</g>
			<g>
				<path fill="#EFB780" d="M16,49.4c-0.2,0.1-0.6-0.3-0.4-0.4l0.2-0.4c0.4-0.1,0.6-0.3,0.7-0.1C16.6,48.7,16.1,49.3,16,49.4"/>
			</g>
			<g>
				<path fill="#168FBA" d="M22,15.8c-9.1,0-16.5,9.6-16.8,21.7h33.7C38.5,25.5,31.1,15.8,22,15.8"/>
			</g>
			<g>
				<path fill="#231F20" d="M23,42.5l0-9.6c0,0,3.3,0.1,4-0.1c0,0,1.2-0.5,1.4-1.5c0.1-0.7-0.4-2.8-0.5-3.2c0,0-0.6-0.4-0.6-0.9c0,0-0.3-3.6-1.1-4.7c-0.7-1-1.8-2.2-4.3-2.2c-2.4,0-3.6,1.6-3.8,2.7c-0.2,1.4,1.3,1.4,1.3,1.4s-0.7,0.6-0.9,0.9c-0.2,0.3-0.8,0.9-1.5,2.1c-0.7,1.2-1.1,3.2-0.8,3.8c0.3,0.6,1.4,1.4,2.7,1.6c1.3,0.1,2.2-0.1,2.2-0.1v9.5L23,42.5z"/>
			</g>
			<g>
				<path fill="#D93E26" d="M19.4,29.4c-1,0-1.4,0.5-2.2,0.6c0,0,0.2-1.8,1.9-3.9c0.7-0.8,2.4-1.7,3.3-2.1l0-0.2c-0.8,0.1-2.8,0.5-3.3-0.4c-0.1-0.9,1.1-1.9,2.8-2c1,0,1.8,0.3,2.6,0.8c0.9,0.6,1.3,1.7,1.5,2.7c-1.2,0.5-1.4,0.7-1.6,0.8c0.2,0,0.4,0.1,0.8,0.1c0.4,0,0.7-0.1,0.9-0.1v0.6c0.1,0.1,0.2,0.2,0.2,0.3c-2,0.9-3,1.3-3.2,1.2c0,0,0.4,0.1,0.8,0.1c0.7,0,1.7-0.3,2.4-0.5c0,0.4,0,0.7,0.6,0.9l0,0l0,0c-2.1,1.1-2.8,1-3,0.9l-1.5-0.3c0.4,0.1,1.2,0.8,1.9,1c0.7,0.1,2.1-0.5,2.8-0.7l0.3,0.9c-1.2,0-2.6,1.8-4.4,1.1C21.9,30.5,20.7,29.4,19.4,29.4"/>
			</g>
			<g>
				<path fill="#D93E26" d="M21.1,31.9c-0.9,0-2.4,0-2.4-0.1c-0.5-0.1-1.7-0.8-1.5-0.9c0.1,0,0.4,0.1,1.5-0.4C20,30,21.1,31.6,21.1,31.9"/>
			</g>
			<g>
				<path fill="#D93E26" d="M27.5,30.9c-0.1,0.3-0.4,0.9-0.7,1c-0.3,0-1.4,0-2.1,0c0.5,0,0.8-0.2,1.1-0.3C27.7,30.6,27.5,30.9,27.5,30.9"/>
			</g>
			<g>
				<path fill="#FFFFFF" d="M21,66.2c0.1-0.3,0-0.7,0-0.7s-0.7,1-1.6,1.5c-0.8,0.5-2.2,0.8-2.4,0.8c0.2,0.2,0.4,0.4,0.6,0.5c0.2,0,1.3-0.1,2.3-0.8C20.5,67.2,21,66.2,21,66.2"/>
			</g>
			<g>
				<path fill="#168FBA" d="M23.1,66.2c-0.1-0.3,0-0.7,0-0.7s0.7,1,1.6,1.5c0.8,0.5,2.2,0.8,2.4,0.8c0.4-0.4,0.7-0.7,0.7-0.7s-1.3-0.2-2.5-0.5c-1.2-0.4-1.8-1.1-1.9-1.4c-0.1-0.2,0.1-0.8,0.3-0.9c0.2-0.2,2.2-0.3,2.1-2c-0.1-2-3.4-1.5-3.9-1.4c-0.4-0.1-3.8-0.7-3.8,1.4c-0.1,1.7,2,1.9,2.1,2c0.2,0.2,0.4,0.7,0.3,0.9c-0.1,0.2-0.6,1-1.8,1.4c-1.2,0.4-2.5,0.5-2.5,0.5s0.3,0.4,0.6,0.7c0.2-0.1,1.6-0.4,2.4-0.8c0.9-0.6,1.6-1.5,1.6-1.5s0.2,0.4,0,0.7c0,0-0.5,1-1.2,1.4c-1,0.7-2.1,0.7-2.3,0.8c0.3,0.2,0.7,0.4,1,0.4c2.1-0.1,2.9-2.4,2.9-2.4s0.3,0.2,0.6,0.2h0h0c0.3,0,0.6-0.2,0.6-0.2s0.8,2.4,2.9,2.4c0.3,0,0.7-0.2,1-0.4c-0.3,0-1.3-0.2-2.3-0.8C23.6,67.2,23.1,66.2,23.1,66.2"/>
			</g>
			<g>
				<path fill="#FFFFFF" d="M27.2,67.8c-0.3-0.1-1.6-0.4-2.4-0.8c-0.9-0.6-1.6-1.5-1.6-1.5s-0.1,0.4,0,0.7c0,0,0.5,1,1.2,1.4c1,0.6,2,0.7,2.3,0.8h0C26.8,68.2,27,68,27.2,67.8"/>
			</g>
			<g>
				<path fill="#FFFFFF" d="M20.5,61.5c0,0-0.5,0.4-0.6,0.9c-0.1,0.5,0.1,1,0.1,1S18.9,63,19,62.3C19,61.2,20.5,61.5,20.5,61.5"/>
			</g>
			<g>
				<path fill="#FFFFFF" d="M23.7,61.5c0,0,0.5,0.4,0.6,0.9c0.1,0.5-0.1,1-0.1,1s1.1-0.4,1.1-1.1C25.1,61.2,23.7,61.5,23.7,61.5"/>
			</g>
			<g>
				<path fill="#FFFFFF" d="M22.1,61.9H22c-1.9,0-0.8,1.7-0.8,1.7s0.3-0.2,0.8-0.2h0.2c0.5,0,0.8,0.2,0.8,0.2S24,61.9,22.1,61.9"/>
			</g>
			<g>
				<path fill="#FFFFFF" d="M22.2,64.2h-0.1h0H22c-0.5,0-0.5,0.3-0.5,0.5c0,0.2,0.1,1.3,0.5,1.3h0h0.1c0.4,0,0.5-1,0.5-1.3C22.6,64.4,22.7,64.2,22.2,64.2"/>
			</g>
		</g>
	</g>
</svg>
