<?xml version="1.0" encoding="utf-8"?>
<!-- Generator: Adobe Illustrator 18.0.0, SVG Export Plug-In . SVG Version: 6.00 Build 0)  -->
<!DOCTYPE svg PUBLIC "-//W3C//DTD SVG 1.1//EN" "http://www.w3.org/Graphics/SVG/1.1/DTD/svg11.dtd">
<svg version="1.1" id="Capa_1" xmlns="http://www.w3.org/2000/svg" xmlns:xlink="http://www.w3.org/1999/xlink" x="0px" y="0px"
	 viewBox="0 0 265 50" enable-background="new 0 0 265 50" xml:space="preserve">
<g>
	<g>
		<path fill="#4D8FCA" d="M42.6,11.5h1.9l3,4.7l3-4.7h1.9v10h-1.8v-7.1L47.5,19h-0.1l-3.1-4.7v7.1h-1.7V11.5z"/>
		<path fill="#4D8FCA" d="M54.5,11.2h1.9v1.6h-1.9V11.2z M54.6,14h1.7v7.5h-1.7V14z"/>
		<path fill="#4D8FCA" d="M58.3,14H60v1.2c0.5-0.7,1.2-1.3,2.3-1.3c1.7,0,2.7,1.1,2.7,2.9v4.8h-1.7v-4.3c0-1.2-0.6-1.8-1.6-1.8
			c-1,0-1.7,0.7-1.7,1.9v4.2h-1.7V14z"/>
		<path fill="#4D8FCA" d="M66.9,11.2h1.9v1.6h-1.9V11.2z M66.9,14h1.7v7.5h-1.7V14z"/>
		<path fill="#4D8FCA" d="M70,20.5l0.8-1.2c0.8,0.6,1.7,0.9,2.5,0.9c0.7,0,1.2-0.3,1.2-0.8v0c0-0.6-0.8-0.8-1.7-1.1
			c-1.1-0.3-2.3-0.8-2.3-2.2v0c0-1.4,1.2-2.3,2.7-2.3c0.9,0,2,0.3,2.8,0.9l-0.7,1.2c-0.7-0.4-1.5-0.7-2.1-0.7
			c-0.7,0-1.1,0.3-1.1,0.7v0c0,0.6,0.8,0.8,1.7,1.1c1.1,0.3,2.3,0.8,2.3,2.2v0c0,1.6-1.2,2.4-2.8,2.4C72.2,21.6,71,21.2,70,20.5z"/>
		<path fill="#4D8FCA" d="M77.9,19.4v-4h-1V14h1v-2.1h1.7V14h2v1.5h-2v3.7c0,0.7,0.3,0.9,0.9,0.9c0.4,0,0.7-0.1,1.1-0.3v1.4
			c-0.4,0.2-0.9,0.4-1.6,0.4C78.7,21.6,77.9,21,77.9,19.4z"/>
		<path fill="#4D8FCA" d="M82.7,17.7L82.7,17.7c0-2.2,1.5-3.9,3.7-3.9c2.4,0,3.6,1.9,3.6,4c0,0.2,0,0.3,0,0.5h-5.5
			c0.2,1.2,1.1,1.9,2.2,1.9c0.8,0,1.4-0.3,2-0.9l1,0.9c-0.7,0.9-1.7,1.4-3.1,1.4C84.3,21.6,82.7,20.1,82.7,17.7z M88.2,17.2
			c-0.1-1.1-0.8-2-1.9-2c-1.1,0-1.8,0.8-2,2H88.2z"/>
		<path fill="#4D8FCA" d="M91.4,14h1.7v1.7c0.5-1.1,1.3-1.9,2.7-1.8v1.8h-0.1c-1.5,0-2.6,1-2.6,3v2.9h-1.7V14z"/>
		<path fill="#4D8FCA" d="M97,11.2h1.9v1.6H97V11.2z M97.1,14h1.7v7.5h-1.7V14z"/>
		<path fill="#4D8FCA" d="M100.4,17.8L100.4,17.8c0-2.2,1.7-4,4-4c2.3,0,4,1.8,4,3.9v0c0,2.1-1.7,3.9-4,3.9
			C102.1,21.6,100.4,19.9,100.4,17.8z M106.7,17.8L106.7,17.8c0-1.4-1-2.4-2.3-2.4c-1.4,0-2.3,1.1-2.3,2.4v0c0,1.3,1,2.4,2.3,2.4
			C105.8,20.1,106.7,19.1,106.7,17.8z"/>
		<path fill="#4D8FCA" d="M113.5,17.7L113.5,17.7c0-2.5,1.7-3.9,3.5-3.9c1.2,0,2,0.6,2.6,1.3v-4h1.7v10.4h-1.7v-1.3
			c-0.6,0.8-1.3,1.4-2.6,1.4C115.2,21.6,113.5,20.2,113.5,17.7z M119.6,17.7L119.6,17.7c0-1.5-1-2.4-2.2-2.4c-1.2,0-2.2,0.9-2.2,2.4
			v0c0,1.5,1,2.4,2.2,2.4C118.5,20.1,119.6,19.2,119.6,17.7z"/>
		<path fill="#4D8FCA" d="M122.7,17.7L122.7,17.7c0-2.2,1.5-3.9,3.7-3.9c2.4,0,3.6,1.9,3.6,4c0,0.2,0,0.3,0,0.5h-5.5
			c0.2,1.2,1.1,1.9,2.2,1.9c0.8,0,1.4-0.3,2-0.9l1,0.9c-0.7,0.9-1.7,1.4-3.1,1.4C124.4,21.6,122.7,20.1,122.7,17.7z M128.3,17.2
			c-0.1-1.1-0.8-2-1.9-2c-1.1,0-1.8,0.8-2,2H128.3z"/>
		<path fill="#4D8FCA" d="M135.7,11.5h1.9l3,4.7l3-4.7h1.9v10h-1.8v-7.1l-3.1,4.7h-0.1l-3.1-4.7v7.1h-1.7V11.5z"/>
		<path fill="#4D8FCA" d="M147.1,17.8L147.1,17.8c0-2.2,1.7-4,4-4c2.3,0,4,1.8,4,3.9v0c0,2.1-1.7,3.9-4,3.9
			C148.8,21.6,147.1,19.9,147.1,17.8z M153.4,17.8L153.4,17.8c0-1.4-1-2.4-2.3-2.4c-1.4,0-2.3,1.1-2.3,2.4v0c0,1.3,1,2.4,2.3,2.4
			C152.6,20.1,153.4,19.1,153.4,17.8z"/>
		<path fill="#4D8FCA" d="M156.3,17.7L156.3,17.7c0-2.5,1.7-3.9,3.5-3.9c1.2,0,2,0.6,2.6,1.3v-4h1.7v10.4h-1.7v-1.3
			c-0.6,0.8-1.3,1.4-2.6,1.4C158,21.6,156.3,20.2,156.3,17.7z M162.3,17.7L162.3,17.7c0-1.5-1-2.4-2.2-2.4c-1.2,0-2.2,0.9-2.2,2.4v0
			c0,1.5,1,2.4,2.2,2.4C161.3,20.1,162.3,19.2,162.3,17.7z"/>
		<path fill="#4D8FCA" d="M165.5,17.7L165.5,17.7c0-2.2,1.5-3.9,3.7-3.9c2.4,0,3.6,1.9,3.6,4c0,0.2,0,0.3,0,0.5h-5.5
			c0.2,1.2,1.1,1.9,2.2,1.9c0.8,0,1.4-0.3,2-0.9l1,0.9c-0.7,0.9-1.7,1.4-3.1,1.4C167.2,21.6,165.5,20.1,165.5,17.7z M171.1,17.2
			c-0.1-1.1-0.8-2-1.9-2c-1.1,0-1.8,0.8-2,2H171.1z"/>
		<path fill="#4D8FCA" d="M174.2,14h1.7v1.7c0.5-1.1,1.3-1.9,2.7-1.8v1.8h-0.1c-1.5,0-2.6,1-2.6,3v2.9h-1.7V14z"/>
		<path fill="#4D8FCA" d="M179.9,14h1.7v1.2c0.5-0.7,1.2-1.3,2.3-1.3c1.7,0,2.7,1.1,2.7,2.9v4.8h-1.7v-4.3c0-1.2-0.6-1.8-1.6-1.8
			c-1,0-1.7,0.7-1.7,1.9v4.2h-1.7V14z"/>
		<path fill="#4D8FCA" d="M188.4,11.2h1.9v1.6h-1.9V11.2z M188.5,14h1.7v7.5h-1.7V14z"/>
		<path fill="#4D8FCA" d="M191.8,20.3l4.3-4.9H192V14h6.4v1.2l-4.3,4.9h4.3v1.4h-6.5V20.3z"/>
		<path fill="#4D8FCA" d="M199.4,19.3L199.4,19.3c0-1.7,1.3-2.4,3.1-2.4c0.8,0,1.4,0.1,2,0.3V17c0-1.1-0.7-1.6-1.9-1.6
			c-0.8,0-1.5,0.2-2.1,0.5l-0.5-1.4c0.8-0.4,1.6-0.6,2.8-0.6c1.1,0,2,0.3,2.5,0.8c0.6,0.5,0.8,1.3,0.8,2.3v4.5h-1.7v-0.9
			c-0.5,0.6-1.3,1.1-2.4,1.1C200.6,21.6,199.4,20.8,199.4,19.3z M204.5,18.8v-0.5c-0.4-0.2-1-0.3-1.7-0.3c-1.1,0-1.8,0.5-1.8,1.3v0
			c0,0.7,0.6,1.1,1.5,1.1C203.7,20.4,204.5,19.7,204.5,18.8z"/>
		<path fill="#4D8FCA" d="M207.5,17.8L207.5,17.8c0-2.2,1.7-4,3.9-4c1.4,0,2.3,0.5,3,1.3l-1.1,1.2c-0.5-0.6-1.1-0.9-1.9-0.9
			c-1.3,0-2.2,1.1-2.2,2.4v0c0,1.3,0.9,2.4,2.2,2.4c0.8,0,1.4-0.4,2-0.9l1,1c-0.7,0.8-1.6,1.4-3.1,1.4
			C209.2,21.6,207.5,19.9,207.5,17.8z"/>
		<path fill="#4D8FCA" d="M215.8,11.2h1.9v1.6h-1.9V11.2z M215.9,14h1.7v7.5h-1.7V14z"/>
		<path fill="#4D8FCA" d="M219.2,17.8L219.2,17.8c0-2.2,1.7-4,4-4c2.3,0,4,1.8,4,3.9v0c0,2.1-1.7,3.9-4,3.9
			C220.9,21.6,219.2,19.9,219.2,17.8z M225.5,17.8L225.5,17.8c0-1.4-1-2.4-2.3-2.4c-1.4,0-2.3,1.1-2.3,2.4v0c0,1.3,1,2.4,2.3,2.4
			C224.6,20.1,225.5,19.1,225.5,17.8z M224,10.7l1.6,0.7l-1.8,1.6h-1.3L224,10.7z"/>
		<path fill="#4D8FCA" d="M228.7,14h1.7v1.2c0.5-0.7,1.2-1.3,2.3-1.3c1.7,0,2.7,1.1,2.7,2.9v4.8h-1.7v-4.3c0-1.2-0.6-1.8-1.6-1.8
			c-1,0-1.7,0.7-1.7,1.9v4.2h-1.7V14z"/>
	</g>
	<path fill="#4D8FCA" d="M42.6,26.9h5.1c3,0,4.9,1.7,4.9,4.3v0c0,2.9-2.3,4.4-5.2,4.4h-2.6v4.1h-2.3V26.9z M47.5,33.6
		c1.7,0,2.8-1,2.8-2.3v0c0-1.5-1.1-2.3-2.8-2.3h-2.6v4.6H47.5z"/>
	<path fill="#4D8FCA" d="M54.4,30.1h2.2v2.2c0.6-1.5,1.7-2.4,3.4-2.4v2.4H60c-2,0-3.3,1.3-3.3,3.8v3.7h-2.2V30.1z"/>
	<path fill="#4D8FCA" d="M61.3,35L61.3,35c0-2.8,2-5.1,4.7-5.1c3.1,0,4.7,2.4,4.7,5.2c0,0.2,0,0.4,0,0.6h-7.1
		c0.2,1.6,1.4,2.5,2.8,2.5c1.1,0,1.9-0.4,2.6-1.2l1.3,1.2c-0.9,1.1-2.2,1.8-4,1.8C63.5,40,61.3,38,61.3,35 M68.5,34.3
		c-0.1-1.4-1-2.6-2.5-2.6c-1.4,0-2.3,1-2.5,2.6H68.5z"/>
	<path fill="#4D8FCA" d="M72,38.5l1-1.5c1,0.8,2.2,1.2,3.2,1.2c1,0,1.5-0.4,1.5-1v0c0-0.8-1-1-2.2-1.4c-1.4-0.4-3-1-3-2.9v0
		c0-1.8,1.5-3,3.5-3c1.2,0,2.5,0.4,3.6,1.1l-0.9,1.6c-0.9-0.6-1.9-0.9-2.7-0.9c-0.9,0-1.4,0.4-1.4,1v0c0,0.7,1,1,2.2,1.4
		c1.4,0.4,3,1.1,3,2.8v0c0,2-1.6,3.1-3.6,3.1C74.7,40,73.2,39.5,72,38.5"/>
	<path fill="#4D8FCA" d="M81.9,26.5h2.4v2.1h-2.4V26.5z M81.9,30.1h2.2v9.7h-2.2V30.1z"/>
	<path fill="#4D8FCA" d="M86.4,35L86.4,35c0-3.3,2.2-5.1,4.5-5.1c1.6,0,2.6,0.8,3.3,1.7v-5.2h2.2v13.4h-2.2v-1.6
		c-0.7,1-1.7,1.8-3.3,1.8C88.6,40,86.4,38.2,86.4,35 M94.3,35L94.3,35c0-1.9-1.3-3.1-2.8-3.1c-1.5,0-2.8,1.2-2.8,3.1v0
		c0,1.9,1.3,3.1,2.8,3.1C92.9,38.1,94.3,36.8,94.3,35"/>
	<path fill="#4D8FCA" d="M98.5,35L98.5,35c0-2.8,2-5.1,4.7-5.1c3.1,0,4.7,2.4,4.7,5.2c0,0.2,0,0.4,0,0.6h-7.1
		c0.2,1.6,1.4,2.5,2.8,2.5c1.1,0,1.9-0.4,2.6-1.2l1.3,1.2c-0.9,1.1-2.2,1.8-4,1.8C100.7,40,98.5,38,98.5,35 M105.7,34.3
		c-0.1-1.4-1-2.6-2.5-2.6c-1.4,0-2.3,1-2.5,2.6H105.7z"/>
	<path fill="#4D8FCA" d="M110,30.1h2.2v1.5c0.6-0.9,1.5-1.7,3-1.7c2.2,0,3.5,1.5,3.5,3.7v6.2h-2.2v-5.5c0-1.5-0.8-2.4-2.1-2.4
		c-1.3,0-2.2,0.9-2.2,2.4v5.5H110V30.1z"/>
	<path fill="#4D8FCA" d="M120.7,35L120.7,35c0-2.8,2.1-5.1,5-5.1c1.8,0,3,0.7,3.9,1.7l-1.4,1.5c-0.7-0.7-1.4-1.2-2.5-1.2
		c-1.6,0-2.8,1.4-2.8,3.1v0c0,1.7,1.2,3.1,2.9,3.1c1,0,1.8-0.5,2.5-1.2l1.3,1.3c-1,1.1-2.1,1.8-4,1.8C122.8,40,120.7,37.8,120.7,35"
		/>
	<path fill="#4D8FCA" d="M131.6,26.5h2.4v2.1h-2.4V26.5z M131.7,30.1h2.2v9.7h-2.2V30.1z"/>
	<path fill="#4D8FCA" d="M142.6,39.8v-1.2c-0.7,0.8-1.7,1.4-3.1,1.4c-1.8,0-3.5-1-3.5-3v0c0-2.2,1.7-3.2,3.9-3.2
		c1.2,0,1.9,0.2,2.7,0.4V34c0-1.3-0.8-2.1-2.4-2.1c-1.1,0-1.9,0.2-2.8,0.6l-0.6-1.8c1.1-0.5,2.1-0.8,3.7-0.8c2.9,0,4.3,1.5,4.3,4.1
		v5.8H142.6z M142.6,35.8c-0.6-0.2-1.4-0.4-2.2-0.4c-1.4,0-2.2,0.6-2.2,1.5v0c0,0.9,0.8,1.4,1.9,1.4c1.5,0,2.6-0.8,2.6-2V35.8z"/>
	<path fill="#4D8FCA" d="M152.1,35L152.1,35c0-3.3,2.2-5.1,4.5-5.1c1.6,0,2.6,0.8,3.3,1.7v-5.2h2.2v13.4h-2.2v-1.6
		c-0.7,1-1.7,1.8-3.3,1.8C154.3,40,152.1,38.2,152.1,35 M159.9,35L159.9,35c0-1.9-1.3-3.1-2.8-3.1c-1.5,0-2.8,1.2-2.8,3.1v0
		c0,1.9,1.3,3.1,2.8,3.1C158.6,38.1,159.9,36.8,159.9,35"/>
	<path fill="#4D8FCA" d="M164.2,35L164.2,35c0-2.8,2-5.1,4.7-5.1c3.1,0,4.7,2.4,4.7,5.2c0,0.2,0,0.4,0,0.6h-7.1
		c0.2,1.6,1.4,2.5,2.8,2.5c1.1,0,1.9-0.4,2.6-1.2l1.3,1.2c-0.9,1.1-2.2,1.8-4,1.8C166.3,40,164.2,38,164.2,35 M171.4,34.3
		c-0.1-1.4-1-2.6-2.5-2.6c-1.4,0-2.3,1-2.5,2.6H171.4z"/>
	<rect x="181.1" y="26.4" fill="#4D8FCA" width="2.2" height="13.4"/>
	<path fill="#4D8FCA" d="M192,39.8v-1.2c-0.7,0.8-1.7,1.4-3.1,1.4c-1.8,0-3.5-1-3.5-3v0c0-2.2,1.7-3.2,3.9-3.2
		c1.2,0,1.9,0.2,2.7,0.4V34c0-1.3-0.8-2.1-2.4-2.1c-1.1,0-1.9,0.2-2.8,0.6l-0.6-1.8c1.1-0.5,2.1-0.8,3.7-0.8c2.9,0,4.3,1.5,4.3,4.1
		v5.8H192z M192.1,35.8c-0.6-0.2-1.4-0.4-2.2-0.4c-1.4,0-2.2,0.6-2.2,1.5v0c0,0.9,0.8,1.4,1.9,1.4c1.5,0,2.6-0.8,2.6-2V35.8z"/>
	<polygon fill="#4D8FCA" points="202.3,26.9 204.4,26.9 211.3,35.8 211.3,26.9 213.5,26.9 213.5,39.8 211.6,39.8 204.5,30.7 
		204.5,39.8 202.3,39.8 	"/>
	<path fill="#4D8FCA" d="M222.3,39.8v-1.2c-0.7,0.8-1.7,1.4-3.1,1.4c-1.8,0-3.5-1-3.5-3v0c0-2.2,1.7-3.2,3.9-3.2
		c1.2,0,1.9,0.2,2.7,0.4V34c0-1.3-0.8-2.1-2.4-2.1c-1.1,0-1.9,0.2-2.8,0.6l-0.6-1.8c1.1-0.5,2.1-0.8,3.7-0.8c2.9,0,4.3,1.5,4.3,4.1
		v5.8H222.3z M222.4,35.8c-0.6-0.2-1.4-0.4-2.2-0.4c-1.4,0-2.2,0.6-2.2,1.5v0c0,0.9,0.8,1.4,1.9,1.4c1.5,0,2.6-0.8,2.6-2V35.8z"/>
	<path fill="#4D8FCA" d="M226.5,35L226.5,35c0-2.8,2.1-5.1,5-5.1c1.8,0,3,0.7,3.9,1.7l-1.4,1.5c-0.7-0.7-1.4-1.2-2.5-1.2
		c-1.6,0-2.8,1.4-2.8,3.1v0c0,1.7,1.2,3.1,2.9,3.1c1,0,1.8-0.5,2.5-1.2l1.3,1.3c-1,1.1-2.1,1.8-4,1.8C228.6,40,226.5,37.8,226.5,35"
		/>
	<path fill="#4D8FCA" d="M237.4,26.5h2.4v2.1h-2.4V26.5z M237.4,30.1h2.2v9.7h-2.2V30.1z"/>
	<path fill="#4D8FCA" d="M241.9,35L241.9,35c0-2.8,2.2-5.1,5.2-5.1c3,0,5.2,2.3,5.2,5v0c0,2.8-2.2,5.1-5.2,5.1
		C244.1,40,241.9,37.8,241.9,35 M250,35L250,35c0-1.7-1.2-3.2-3-3.2c-1.8,0-2.9,1.4-2.9,3.1v0c0,1.7,1.2,3.1,3,3.1
		C248.9,38.1,250,36.7,250,35 M248.1,25.8l2,0.9l-2.3,2.1h-1.7L248.1,25.8z"/>
	<path fill="#4D8FCA" d="M254.3,30.1h2.2v1.5c0.6-0.9,1.5-1.7,3-1.7c2.2,0,3.5,1.5,3.5,3.7v6.2h-2.2v-5.5c0-1.5-0.8-2.4-2.1-2.4
		c-1.3,0-2.2,0.9-2.2,2.4v5.5h-2.2V30.1z"/>
	<path fill="#4D8FCA" d="M16.7,24.3H14c-0.6,0-0.9-0.2-1.1-0.4c-0.1-0.2-0.2-0.4-0.3-0.7c0,0,0,0,0-0.1c0-0.2,0-0.5,0-0.8
		c0.3-1.8,1.1-2.9,1.6-3.7c-0.1,0-0.1,0-0.2-0.1c-0.4-0.2-0.5-0.6-0.5-1.1c0.1-0.6,0.7-1.2,0.7-1.3c0.9-1.1,2.3-1.1,2.5-1.1
		c0.2,0,2-0.1,3,1.8c1.2,2.3,1.4,4.1,1.7,5.6l0,0.1c0,0.3,0,0.5,0,0.7c0,0,0,0,0,0.1c-0.1,0.2-0.2,0.4-0.3,0.5
		c-0.2,0.3-0.6,0.4-1.1,0.5c-0.2,0-0.4,0-0.5,0c-0.1,0-0.1,0-0.1,0h-0.8c0,0,0,0,0,0c0,0,0,0,0,0h-1.3v3.8h12c0-2.2-0.3-4.4-1-6.4
		c-0.6-2-1.5-3.7-2.7-5.2c-1.1-1.5-2.5-2.7-3.9-3.5c-1.5-0.8-3.1-1.3-4.8-1.3c-1.7,0-3.3,0.4-4.8,1.3c-1.5,0.8-2.8,2-3.9,3.5
		c-1.1,1.5-2,3.3-2.7,5.2c-0.6,2-1,4.2-1,6.4h12V24.3z"/>
	<path fill="#FFFFFF" d="M4.7,28.1c0,1.7,0.2,3.3,0.6,4.9c5.3-0.6,8.5-1.2,9.5-1.9c0.7-0.5,1.2-0.7,1.9-0.7v-2.3H4.7z"/>
	<path fill="#FFFFFF" d="M17.5,30.5c0.5,0.1,0.8,0.2,1.2,0.4c0,0,0.1,0,0.1,0c0.7,0,1.3,0.2,2.1,0.5c0.2,0.1,0.5,0.2,0.7,0.3
		c0.1,0,4,1.2,7.2,1.4c0.4-1.6,0.6-3.3,0.6-5h-12V30.5z"/>
	<polyline fill="#211915" points="16.3,9.6 16.3,9.6 16.3,9.6 16.3,9.6 	"/>
	<path fill="#211915" d="M13.8,10"/>
	<path fill="#211915" d="M13.8,10"/>
	<path fill="#FFFFFF" d="M22.4,35.7c0,0.1-0.1,0.2-0.2,0.3c-0.2,0.2-0.5,0.3-0.8,0.3c0,0.1-0.1,0.2-0.2,0.3c-0.2,0.2-0.5,0.4-1,0.4
		c0,0.1-0.1,0.2-0.2,0.3c-0.3,0.3-0.6,0.4-1,0.3c-0.1,0.1-0.2,0.2-0.4,0.2c-0.2,0.1-0.6,0.2-1,0.1v3.2c0,0.2-0.2,0.4-0.4,0.4
		s-0.4-0.2-0.4-0.4v-3c-0.2,0.1-0.3,0.1-0.5,0.1c-0.1,0-0.1,0-0.2,0c-0.2,0-0.4-0.2-0.6-0.3c-0.3,0-0.7,0.1-1.1-0.2
		c-0.1-0.1-0.2-0.2-0.3-0.4c-0.1,0-0.2,0-0.4-0.1c-0.4-0.1-0.6-0.3-0.7-0.6c-0.1,0-0.2,0-0.3,0c-0.3,0-0.7-0.2-0.8-0.5
		c0-0.1-0.1-0.1-0.1-0.2c-1.7,0.9-3.7,1.8-4.5,2.1c0.3,0.6,0.7,1.1,1.1,1.7c1.1,1.5,2.5,2.7,3.9,3.5c0.7,0.4,1.4,0.7,2.1,0.9
		c0.1-0.1,0.2-0.3,0.3-0.3c0.7-0.4,2-0.1,2.4,0c0.4-0.1,1.7-0.4,2.4,0c0.1,0.1,0.2,0.2,0.3,0.3c0.7-0.2,1.4-0.5,2.1-0.9
		c1.5-0.8,2.8-2,3.9-3.5c0.4-0.5,0.7-1,1-1.6C25.9,37.7,23.7,36.8,22.4,35.7"/>
	<path fill="#4D8FCA" d="M18.2,46.6c0-0.1,0-0.2,0-0.3c0-0.1,0-0.2,0-0.3c0.4-0.1,1.1-0.3,1.4-0.7c0.2-0.3,0.3-0.6,0.3-0.9
		c0-0.3-0.2-0.5-0.4-0.7c-0.7-0.4-2-0.1-2.4,0c-0.4-0.1-1.7-0.4-2.4,0c-0.2,0.2-0.4,0.4-0.4,0.7c0,0.3,0,0.6,0.3,0.9
		c0.4,0.4,1,0.6,1.4,0.7c0,0.1,0,0.2,0,0.2c0,0.1,0,0.2,0,0.3c-0.3,0.3-1.2,1.1-2.6,1.3c0,0.1,0.2,0.3,0.4,0.5
		c1.2-0.2,2.1-0.9,2.5-1.3c0,0,0.1,0.1,0.1,0.1c-0.1,0.3-0.4,1.2-1.9,1.6c0.2,0.1,0.5,0.2,0.9,0.3c1-0.5,1.4-1.2,1.5-1.6
		c0.1,0,0.1,0,0.2,0c0.1,0,0.1,0,0.2,0c0.1,0.4,0.5,1.1,1.5,1.6c0.4-0.1,0.6-0.1,0.9-0.3c-1.5-0.4-1.8-1.2-1.9-1.6
		c0,0,0.1-0.1,0.1-0.1c0.4,0.4,1.3,1,2.5,1.3c0.2-0.2,0.4-0.4,0.4-0.5C19.4,47.7,18.5,46.9,18.2,46.6"/>
	<path fill="#FFFFFF" d="M19.1,44.2c0.1,0.1,0.2,0.2,0.2,0.3c0,0.2,0,0.4-0.1,0.5c-0.2,0.2-0.4,0.3-0.7,0.4c0.1-0.3,0.1-0.5,0.1-0.8
		c-0.1-0.3-0.2-0.4-0.4-0.6C18.5,44,18.9,44,19.1,44.2"/>
	<path fill="#FFFFFF" d="M16.1,44.8c0.2-0.5,0.9-0.5,1-0.5h0c0,0,0.2,0,0.4,0.1c0.3,0.1,0.5,0.2,0.5,0.5c0.1,0.2-0.1,0.5-0.2,0.7
		c-0.2-0.2-0.5-0.3-0.7-0.3c-0.3,0-0.6,0.1-0.8,0.3C16.2,45.3,16,45.1,16.1,44.8"/>
	<path fill="#FFFFFF" d="M15.7,45.4c-0.3-0.1-0.5-0.2-0.7-0.4c-0.1-0.1-0.2-0.3-0.1-0.5c0-0.1,0.1-0.2,0.2-0.3
		c0.2-0.1,0.4-0.1,0.7-0.1c0.1,0,0.2,0,0.3,0c-0.2,0.1-0.3,0.3-0.4,0.6C15.5,44.9,15.5,45.2,15.7,45.4"/>
	<path fill="#FFFFFF" d="M16.5,46.3c0-0.3,0.3-0.6,0.6-0.6c0.3,0,0.6,0.3,0.6,0.6c0,0.3-0.3,0.6-0.6,0.6
		C16.8,46.9,16.5,46.6,16.5,46.3"/>
	<path fill="#FFFFFF" d="M20.4,48.3c-1.2-0.2-2.1-0.9-2.5-1.3c0,0-0.1,0.1-0.1,0.1c0.1,0.3,0.5,1.2,1.9,1.6
		C20,48.6,20.2,48.5,20.4,48.3"/>
	<path fill="#FFFFFF" d="M16.2,47.1c-0.4,0.4-1.3,1-2.5,1.3c0.2,0.1,0.4,0.3,0.7,0.4c1.5-0.4,1.8-1.2,1.9-1.6
		C16.3,47.1,16.3,47.1,16.2,47.1"/>
	<path fill="#211915" d="M32,31.3c0-0.1,0-0.2-0.1-0.2c0,0-0.1-0.1-0.2-0.1c0.1-0.1,0.1-0.2,0.1-0.3c0.2-0.5,0.3-1.1,0.3-1.7
		c0-0.1,0-0.2-0.1-0.2c-0.1,0-0.1,0-0.2,0c0-0.1,0.1-0.2,0.1-0.3c0.1-0.5,0.2-1.1,0.1-1.8c0-0.1-0.1-0.2-0.1-0.2c-0.1,0-0.1,0-0.2,0
		c0-0.1,0.1-0.3,0.1-0.4c0.1-0.5,0.1-1.1-0.1-1.8c0-0.1-0.1-0.2-0.2-0.2c0,0-0.1,0-0.1,0c0-0.1,0-0.2,0-0.3c0.1-0.5,0-1.1-0.1-1.8
		c0-0.1-0.1-0.2-0.2-0.2c-0.1,0-0.2,0-0.2,0h0c0-0.1,0-0.3,0-0.4c0-0.5-0.1-1.1-0.4-1.7c0-0.1-0.1-0.1-0.2-0.2c-0.1,0-0.1,0-0.2,0
		c0-0.1,0-0.3,0-0.4c-0.1-0.5-0.3-1.1-0.6-1.7c0-0.1-0.1-0.1-0.2-0.1c-0.1,0-0.1,0-0.2,0.1c0-0.1,0-0.2-0.1-0.4
		c-0.1-0.5-0.4-1.1-0.7-1.6c0-0.1-0.1-0.1-0.2-0.1c-0.1,0-0.2,0-0.2,0.1c0-0.1-0.1-0.3-0.2-0.4c-0.2-0.5-0.6-1-1-1.5
		c-0.1-0.1-0.2-0.1-0.2-0.1c-0.1,0-0.1,0-0.2,0.1c-0.1-0.1-0.1-0.3-0.2-0.4c-0.3-0.5-0.7-0.9-1.2-1.3c-0.1-0.1-0.2-0.1-0.2,0
		c-0.1,0-0.1,0.1-0.1,0.1c-0.3-0.4-0.8-0.8-1.4-1c0.1,0,0.2,0,0.3,0c0.7,0,1.2-0.1,1.2-0.1c0.2,0,0.2-0.2,0.2-0.4
		c0-0.2-0.1-0.3-0.3-0.3c-0.8,0-1.1-0.2-1.4-0.4c-0.1,0-0.1-0.1-0.2-0.1l1.8-0.3c0.2,0,0.3-0.2,0.3-0.3c0-0.2-0.1-0.3-0.3-0.3
		l-1.8-0.3c0.2-0.1,0.5-0.1,0.7-0.2c0.7-0.2,1.1-0.6,1.1-0.6c0.1-0.1,0.2-0.3,0.1-0.4c-0.1-0.1-0.2-0.2-0.4-0.1
		c-0.7,0.3-1.1,0.2-1.5,0.2c-0.1,0-0.2,0-0.2,0l1.6-0.9c0.1-0.1,0.2-0.3,0.1-0.4c-0.1-0.1-0.2-0.2-0.4-0.2l-1.8,0.5
		C22.6,6.2,22.8,6,23,5.8c0.5-0.5,0.8-0.9,0.8-1c0.1-0.1,0-0.3-0.1-0.4c-0.1-0.1-0.3-0.1-0.4,0C22.7,5,22.4,5.1,22,5.2
		c-0.1,0-0.2,0-0.2,0.1l1.1-1.5c0.1-0.1,0.1-0.3,0-0.4c-0.1-0.1-0.3-0.1-0.4,0l-1.5,1.1C21,4.3,21.2,4,21.3,3.8
		c0.3-0.6,0.4-1.2,0.4-1.2c0-0.2-0.1-0.3-0.2-0.3c-0.2,0-0.3,0-0.4,0.2c-0.3,0.7-0.6,0.9-0.9,1.2c-0.1,0-0.1,0.1-0.2,0.2L20.4,2
		c0-0.2,0-0.3-0.2-0.4c-0.1-0.1-0.3,0-0.4,0.1l-0.9,1.6c0-0.2,0.1-0.5,0.1-0.7c0-0.7-0.1-1.2-0.1-1.2c0-0.2-0.2-0.2-0.4-0.2
		c-0.2,0-0.3,0.2-0.3,0.3c0,0.8-0.2,1.1-0.4,1.4c0,0.1-0.1,0.1-0.1,0.2l-0.3-1.8c0-0.2-0.2-0.3-0.3-0.3c-0.2,0-0.3,0.1-0.3,0.3
		l-0.3,1.8c-0.1-0.2-0.1-0.4-0.2-0.7c-0.2-0.7-0.6-1.1-0.6-1.1c-0.1-0.1-0.3-0.2-0.4-0.1c-0.1,0.1-0.2,0.2-0.1,0.4
		c0.3,0.7,0.2,1.1,0.2,1.5c0,0.1,0,0.2,0,0.3l-1-1.6c-0.1-0.1-0.3-0.2-0.4-0.1c-0.1,0.1-0.2,0.2-0.2,0.4l0.5,1.8
		c-0.1-0.2-0.3-0.4-0.5-0.6c-0.5-0.5-0.9-0.8-1-0.8c-0.1-0.1-0.3,0-0.4,0.1c-0.1,0.1-0.1,0.3,0,0.4c0.5,0.6,0.6,0.9,0.7,1.3
		c0,0.1,0,0.2,0.1,0.2l-1.5-1.1c-0.1-0.1-0.3-0.1-0.4,0c-0.1,0.1-0.1,0.3,0,0.4l1.1,1.5C12.2,5.2,12,5,11.7,4.9
		c-0.6-0.3-1.2-0.4-1.2-0.4c-0.2,0-0.3,0.1-0.3,0.2c0,0.2,0,0.3,0.2,0.4c0.7,0.3,0.9,0.6,1.2,0.9c0,0.1,0.1,0.1,0.2,0.2L9.9,5.8
		c-0.2,0-0.3,0-0.4,0.2c-0.1,0.1,0,0.3,0.1,0.4l1.6,0.9c-0.2,0-0.5-0.1-0.7-0.1c-0.7,0-1.2,0.1-1.2,0.1c-0.2,0-0.2,0.2-0.2,0.4
		C9.1,7.9,9.2,8,9.4,8c0.8,0,1.1,0.2,1.4,0.4c0.1,0,0.1,0.1,0.2,0.1L9.2,8.8C9.1,8.8,8.9,9,8.9,9.1c0,0.2,0.1,0.3,0.3,0.3L11,9.7
		c-0.2,0.1-0.5,0.1-0.7,0.2c-0.7,0.2-1.1,0.6-1.1,0.6c-0.1,0.1-0.2,0.3-0.1,0.4c0.1,0.1,0.2,0.2,0.4,0.1c0.4-0.2,0.7-0.2,1-0.2
		c-0.4,0.3-0.7,0.6-0.8,0.8c-0.1,0.1-0.1,0.2-0.2,0.3c0-0.1-0.1-0.1-0.1-0.1c-0.1,0-0.2,0-0.2,0c-0.5,0.4-0.9,0.8-1.2,1.3
		c-0.1,0.1-0.2,0.3-0.2,0.4c0-0.1-0.1-0.1-0.2-0.1c-0.1,0-0.2,0-0.2,0.1c-0.4,0.5-0.8,1-1,1.5c-0.1,0.1-0.1,0.3-0.2,0.4
		c0,0-0.1-0.1-0.2-0.1c-0.1,0-0.2,0-0.2,0.1c-0.4,0.5-0.7,1-0.8,1.6c0,0.1-0.1,0.3-0.1,0.4c-0.1-0.1-0.1-0.1-0.2-0.1
		c-0.1,0-0.2,0.1-0.2,0.1c-0.3,0.6-0.5,1.1-0.6,1.7c0,0.1,0,0.3,0,0.4c-0.1,0-0.1-0.1-0.2-0.1c-0.1,0-0.2,0.1-0.2,0.2
		C3.2,20.2,3,20.8,3,21.4c0,0.1,0,0.3,0,0.4c-0.1,0-0.1,0-0.2,0c-0.1,0-0.1,0.1-0.2,0.2c-0.2,0.6-0.2,1.2-0.1,1.8c0,0.1,0,0.2,0,0.3
		c0,0-0.1,0-0.1,0c-0.1,0-0.1,0.1-0.2,0.2c-0.1,0.6-0.1,1.2-0.1,1.8c0,0.1,0,0.3,0.1,0.4c0,0-0.1,0-0.1,0c-0.1,0-0.1,0.1-0.1,0.2
		C2,27.2,2,27.8,2.2,28.3c0,0.1,0.1,0.2,0.1,0.3c-0.1,0-0.1,0-0.2,0C2,28.8,2,28.8,2,28.9c0,0.6,0.1,1.2,0.2,1.7
		c0,0.1,0.1,0.3,0.2,0.4c0,0,0,0,0,0c-0.1,0-0.2,0-0.2,0.1C2,31.2,2,31.3,2,31.4c0.1,0.6,0.3,1.2,0.5,1.7c0,0.1,0.1,0.2,0.2,0.3
		c0,0-0.1,0-0.1,0.1c-0.1,0.1-0.1,0.2-0.1,0.2c0.1,0.6,0.4,1.2,0.7,1.6c0.1,0.1,0.1,0.2,0.2,0.3c-0.1,0-0.1,0-0.2,0.1
		c-0.1,0.1-0.1,0.2,0,0.2c0.2,0.6,0.5,1.1,0.9,1.5c0.1,0.1,0.2,0.2,0.2,0.3c-0.1,0-0.1,0.1-0.1,0.1c0,0.1,0,0.2,0,0.2
		c0.3,0.6,0.6,1.1,1,1.4c0.1,0.1,0.2,0.2,0.3,0.2c-0.1,0-0.1,0.1-0.1,0.1c0,0.1,0,0.2,0,0.2c0.4,0.5,0.7,1,1.2,1.3
		c0.1,0.1,0.3,0.2,0.4,0.3c0,0,0,0-0.1,0c-0.1,0-0.1,0.1-0.2,0.2c0,0.1,0,0.2,0.1,0.2c0.4,0.5,0.9,0.8,1.4,1.1
		c0.4,0.2,0.8,0.4,1.1,0.4c0.3,0.1,0.6,0.1,0.9,0c0,0,0,0,0.1,0c0.8,0.6,1.6,1,2.5,1.4c0.7,0.3,1.5,0.5,2.2,0.7
		c0.2,0,0.3,0.1,0.4,0.1c-0.3-0.1-0.6-0.3-0.9-0.6c0,0-0.1-0.1-0.1-0.1c-0.5-0.1-1-0.3-1.5-0.5c-0.8-0.4-1.6-0.8-2.4-1.3
		c0,0,0,0,0,0c0-0.3,0-0.5-0.1-0.8c0.6,0.4,1,0.8,1.6,1.1c0.7,0.4,1.5,0.7,2.3,0.9c0,0,0-0.1,0-0.1c0-0.1,0.1-0.3,0.1-0.4
		c-0.7-0.2-1.4-0.5-2.1-0.9c-1.5-0.8-2.8-2-3.9-3.5C8,39.2,7.6,38.6,7.3,38c0.9-0.4,2.8-1.3,4.5-2.1c0,0.1,0,0.1,0.1,0.2
		c0.1,0.3,0.5,0.5,0.8,0.5c0.1,0,0.2,0,0.3,0c0.1,0.3,0.4,0.5,0.7,0.6c0.1,0,0.3,0.1,0.4,0.1c0.1,0.2,0.2,0.3,0.3,0.4
		c0.3,0.2,0.8,0.2,1.1,0.2c0.2,0.2,0.3,0.3,0.6,0.3c0.1,0,0.1,0,0.2,0c0.2,0,0.4,0,0.5-0.1v3c0,0.2,0.2,0.4,0.4,0.4
		c0.2,0,0.4-0.2,0.4-0.4V38c0.4,0.1,0.7,0,1-0.1c0.2-0.1,0.3-0.2,0.4-0.2c0.4,0.1,0.7,0,1-0.3c0.1-0.1,0.2-0.2,0.2-0.3
		c0.5,0,0.9-0.2,1-0.4c0.1-0.1,0.2-0.2,0.2-0.3c0.3,0,0.6-0.1,0.8-0.3c0.1-0.1,0.2-0.2,0.2-0.3c1.4,1.1,3.5,2,4.5,2.4
		c-0.3,0.5-0.7,1.1-1,1.6c-1.1,1.5-2.5,2.7-3.9,3.5c-0.7,0.4-1.4,0.7-2.1,0.9c0.1,0.1,0.1,0.2,0.1,0.4c0,0,0,0.1,0,0.1
		c0.8-0.2,1.5-0.5,2.3-0.9c0.6-0.3,1.1-0.7,1.6-1.1c-0.1,0.3-0.1,0.5-0.1,0.8c0,0,0,0,0,0c-0.2,0.2-0.9,0.6-1.8,1.1
		c-0.7,0.3-1.4,0.6-2.1,0.8c0,0-0.1,0-0.1,0c0,0-0.1,0.1-0.1,0.1c-0.2,0.3-0.6,0.5-0.9,0.6c0.4-0.1,0.8-0.1,1.2-0.2
		c0.7-0.2,1.5-0.5,2.2-0.8c1-0.5,1.6-0.9,1.8-1.1c0,0,0,0,0,0c0.3,0.1,0.6,0.1,0.9,0c0.4-0.1,0.8-0.2,1.1-0.4
		c0.5-0.3,0.9-0.6,1.4-1.1c0.1-0.1,0.1-0.2,0.1-0.2c0-0.1-0.1-0.2-0.2-0.2c0,0,0,0,0,0c0.1-0.1,0.3-0.2,0.4-0.3
		c0.4-0.3,0.8-0.8,1.2-1.3c0-0.1,0.1-0.2,0-0.2c0-0.1-0.1-0.1-0.1-0.1c0.1-0.1,0.2-0.1,0.3-0.2c0.4-0.4,0.7-0.9,1-1.4
		c0-0.1,0-0.2,0-0.2c0-0.1-0.1-0.1-0.2-0.1c0.1-0.1,0.2-0.2,0.3-0.3c0.3-0.4,0.6-0.9,0.9-1.5c0-0.1,0-0.2,0-0.2
		c0-0.1-0.1-0.1-0.2-0.1h0c0.1-0.1,0.1-0.2,0.2-0.3c0.3-0.5,0.5-1,0.7-1.6c0-0.1,0-0.2-0.1-0.2c-0.1-0.1-0.1-0.1-0.2-0.1
		c0.1-0.1,0.1-0.2,0.2-0.3C31.8,32.5,32,31.9,32,31.3 M31.7,29.3C31.7,29.3,31.7,29.3,31.7,29.3c0,0.5-0.1,0.9-0.2,1.2
		c-0.1,0.4-0.3,0.7-0.5,0.9c-0.3,0.3-0.5,0.5-0.6,0.5c0,0,0,0,0,0c0,0,0,0,0,0c-0.4-0.5-0.5-1.1-0.5-1.8c0-0.2,0-0.4,0.1-0.7
		c0,0,0,0,0,0c0,0,0,0,0,0c0.3,0.4,0.5,0.9,0.5,0.9c0,0.1,0.1,0.1,0.2,0.1c0.1,0,0.2,0,0.2-0.1C31,29.8,31.4,29.5,31.7,29.3
		C31.7,29.3,31.7,29.3,31.7,29.3 M31.7,27C31.7,27,31.7,27,31.7,27C31.7,27,31.7,27,31.7,27c0,0.5,0,0.9-0.1,1.2
		c-0.1,0.4-0.2,0.7-0.4,1c-0.2,0.3-0.5,0.5-0.6,0.6c0,0,0,0,0,0c0,0,0,0,0,0c-0.6-0.7-0.7-1.8-0.7-2.3c0,0,0,0,0,0c0,0,0,0,0,0
		c0.3,0.4,0.6,0.8,0.6,0.8c0,0.1,0.1,0.1,0.2,0.1c0.1,0,0.1-0.1,0.2-0.1C31.1,27.6,31.4,27.2,31.7,27 M31.4,24.6
		C31.4,24.6,31.4,24.6,31.4,24.6C31.5,24.6,31.5,24.6,31.4,24.6c0.1,0.4,0.1,0.9,0,1.2c-0.1,0.4-0.2,0.7-0.3,1
		c-0.2,0.4-0.4,0.6-0.5,0.7c0,0,0,0,0,0c0,0,0,0,0,0c-0.6-0.5-0.8-1.6-0.9-2.2c0,0,0,0,0,0c0,0,0,0,0,0c0.4,0.3,0.6,0.7,0.6,0.7
		c0,0.1,0.1,0.1,0.2,0.1c0.1,0,0.1-0.1,0.2-0.1C30.9,25.3,31.2,24.9,31.4,24.6 M31.1,22.4C31.1,22.4,31.1,22.4,31.1,22.4
		C31.1,22.4,31.1,22.4,31.1,22.4c0.1,0.4,0.1,0.9,0.1,1.2c0,0.4-0.1,0.7-0.3,1c-0.2,0.4-0.4,0.6-0.5,0.7c0,0,0,0,0,0c0,0,0,0,0,0
		c-0.5-0.4-0.8-1.1-0.9-1.6c-0.1-0.2-0.1-0.4-0.1-0.7c0,0,0,0,0,0c0,0,0,0,0,0c0.4,0.3,0.7,0.7,0.7,0.7c0,0.1,0.1,0.1,0.2,0.1
		c0.1,0,0.1-0.1,0.1-0.1C30.5,23.1,30.8,22.7,31.1,22.4 M13.3,22.5C13.3,22.5,13.3,22.5,13.3,22.5c0.3-1.6,0.9-2.7,1.4-3.3
		c0.3-0.5,0.6-0.7,0.8-0.9c0,0,0.1-0.1,0.1-0.1c0.1-0.1,0.2-0.3,0.1-0.5c-0.1-0.2-0.3-0.2-0.5-0.1c0,0-0.1,0-0.2,0.1
		c-0.3,0.2-0.5,0.2-0.6,0.1c-0.1-0.1-0.2-0.2-0.1-0.4c0.1-0.3,0.4-0.8,0.6-0.9c0,0,0,0,0,0c0.8-0.9,1.9-0.9,2-0.9c0,0,0,0,0,0
		c0,0,0.4,0,0.8,0.1c0.6,0.2,1.1,0.6,1.5,1.3c0.5,0.9,0.8,1.8,1.1,2.8c-0.7-0.2-1.2-0.7-1.2-0.7c-0.2-0.1-0.4-0.1-0.5,0
		c-0.1,0.1-0.1,0.2-0.1,0.3s0.1,0.2,0.1,0.2c0,0,0.9,0.7,1.9,0.9c0.1,0.3,0.1,0.7,0.2,1.1c-0.3-0.2-0.7-0.3-1-0.3
		c-0.2-0.1-0.4-0.1-0.6-0.2c-0.7-0.3-1.3-0.7-1.3-0.7c-0.2-0.1-0.4-0.1-0.5,0.1c-0.1,0.2-0.1,0.4,0.1,0.5c0,0,0.7,0.5,1.5,0.8
		c0.2,0.1,0.4,0.1,0.7,0.2c0.9,0.2,1.3,0.4,1.3,0.8c0,0.1-0.1,0.1-0.1,0.2c-0.3,0.3-0.9,0.3-1.1,0.3c0,0,0,0,0,0h-0.8
		c-0.2,0-1,0-1.7-0.5C15.2,21.9,14.4,22.1,13.3,22.5 M16.5,23.6H14c-0.3,0-0.4-0.1-0.5-0.2c0,0,0-0.1-0.1-0.1
		C14.4,22.8,15,22.7,16.5,23.6 M17.5,28.1v-3.8h1.3c0,0,0,0,0,0c0,0,0,0,0,0h0.8c0,0,0.1,0,0.1,0c0.1,0,0.3,0,0.5,0
		c0.5-0.1,0.8-0.2,1.1-0.5c0.1-0.1,0.2-0.3,0.3-0.5c0,0,0,0,0-0.1c0-0.2,0.1-0.4,0-0.7l0-0.1c-0.2-1.5-0.5-3.4-1.7-5.6
		c-1-1.9-2.8-1.8-3-1.8c-0.2,0-1.5,0.1-2.5,1.1c-0.1,0.1-0.6,0.7-0.7,1.3c-0.1,0.5,0.1,0.9,0.5,1.1c0.1,0,0.1,0.1,0.2,0.1
		c-0.6,0.7-1.3,1.9-1.6,3.7c-0.1,0.3-0.1,0.6,0,0.8c0,0,0,0,0,0.1c0,0.3,0.1,0.5,0.3,0.7c0.2,0.2,0.5,0.4,1.1,0.4h2.7v3.8v2.3
		c-0.7,0-1.2,0.3-1.9,0.7c-0.9,0.6-4.1,1.3-9.5,1.9c-0.4-1.6-0.6-3.2-0.6-4.9c0-2.2,0.3-4.4,1-6.4c0.6-2,1.5-3.7,2.7-5.2
		c1.1-1.5,2.5-2.7,3.9-3.5c1.5-0.8,3.1-1.3,4.8-1.3s3.3,0.4,4.8,1.3c1.5,0.8,2.8,2,3.9,3.5c1.1,1.5,2,3.3,2.7,5.2c0.6,2,1,4.2,1,6.4
		c0,1.7-0.2,3.4-0.6,5c-3.3-0.2-7.1-1.4-7.2-1.4c-0.3-0.1-0.5-0.2-0.7-0.3c-0.8-0.3-1.4-0.5-2.1-0.5c0,0-0.1,0-0.1,0
		c-0.4-0.2-0.7-0.3-1.2-0.4V28.1z M22.5,11c-0.2,0.1-0.5,0.2-0.9,0.2c-0.2,0-0.4,0.1-0.6,0.1c-0.5,0-0.9-0.1-1.2-0.3c0,0,0,0,0,0
		c0,0,0,0,0,0c0.1-0.1,0.4-0.2,0.7-0.3c0.3-0.1,0.7-0.1,1,0C21.9,10.7,22.2,10.8,22.5,11C22.5,10.9,22.5,11,22.5,11
		C22.5,11,22.5,11,22.5,11 M23,12.3C23,12.3,23,12.3,23,12.3C23,12.3,23,12.3,23,12.3c-0.1,0.1-0.4,0.1-0.6,0.1c0,0-0.1,0-0.1,0
		c-0.6,0-1.1-0.2-1.6-0.6c0,0,0,0,0,0c0,0,0,0,0,0c0.2-0.1,0.5-0.1,0.7-0.1C22,11.6,22.6,11.8,23,12.3 M20.4,10.2
		c-0.2,0.1-0.6,0.2-1.2,0.3c-0.1,0-0.1,0.1-0.2,0.1c0,0.1,0,0.2,0.1,0.2c0,0,0.4,0.3,0.8,0.7c0,0,0,0,0,0c0,0,0,0,0,0h0
		c-0.5,0-1.5-0.2-2.2-1c0,0,0,0,0,0c0.1-0.1,0.3-0.3,0.6-0.4C18.9,10,19.6,10,20.4,10.2C20.4,10.2,20.5,10.2,20.4,10.2
		C20.5,10.2,20.4,10.2,20.4,10.2 M18.1,9.8c-0.2,0.1-0.5,0.4-1.1,0.5c-0.1,0-0.1,0.1-0.1,0.2c0,0.1,0,0.2,0.1,0.2
		c0,0,0.5,0.2,0.9,0.5c0,0,0,0,0,0c0,0,0,0,0,0c-0.1,0-0.3,0-0.5,0c-0.6,0-1.3-0.1-1.9-0.5c0,0,0,0,0,0c0.1-0.1,0.3-0.3,0.5-0.5
		C16.5,9.9,17.2,9.8,18.1,9.8C18.1,9.8,18.1,9.8,18.1,9.8C18.1,9.8,18.1,9.8,18.1,9.8 M15.6,9.9c-0.1,0.2-0.4,0.5-1,0.8
		c-0.1,0-0.1,0.1-0.1,0.2c0,0.1,0.1,0.1,0.2,0.2c0,0,0.5,0.1,1,0.3c0,0,0,0,0,0c0,0,0,0,0,0c-0.2,0.1-0.4,0.1-0.6,0.2
		c-0.2,0-0.4,0.1-0.7,0.1c-0.4,0-0.8-0.1-1.1-0.2c0,0,0,0,0,0c0.1-0.1,0.2-0.4,0.4-0.6C14,10.3,14.7,10,15.6,9.9
		C15.6,9.9,15.6,9.9,15.6,9.9C15.6,9.9,15.6,9.9,15.6,9.9 M12.4,11.4c-0.1,0.1-0.1,0.1-0.1,0.2c0,0.1,0.1,0.1,0.2,0.1h0
		c0,0,0.2,0,0.5,0c0.2,0,0.4,0.1,0.5,0.1c0,0,0,0,0,0c0,0,0,0,0,0c-0.2,0.1-0.4,0.2-0.6,0.3c-0.4,0.2-0.8,0.2-1.2,0.2
		c-0.3,0-0.5,0-0.7-0.1c0,0,0,0,0,0c0.1-0.4,0.5-1.4,2.2-2c0,0,0,0,0,0c0,0,0,0,0,0C13.2,10.6,12.9,11,12.4,11.4 M29.9,21.6
		c0-0.7,0.3-1.2,0.5-1.5c0,0,0,0,0,0c0,0,0,0,0,0c0.1,0.4,0.2,0.8,0.2,1.2c0,0.4,0,0.7-0.1,1.1c-0.1,0.4-0.3,0.6-0.4,0.7
		c0,0,0,0,0,0c0,0,0,0,0,0c-0.5-0.3-0.9-0.8-1.1-1.4c-0.1-0.2-0.1-0.4-0.2-0.6c0,0,0,0,0,0c0,0,0,0,0,0c0.4,0.3,0.8,0.6,0.8,0.6
		c0.1,0.1,0.1,0.1,0.2,0.1C29.8,21.8,29.9,21.7,29.9,21.6 M29.1,19.5c0-0.7,0.2-1.2,0.3-1.5c0,0,0,0,0,0c0,0,0,0,0,0
		c0.2,0.4,0.3,0.8,0.3,1.2c0.1,0.4,0,0.7,0,1.1c-0.1,0.4-0.3,0.7-0.3,0.8c0,0,0,0,0,0c0,0,0,0,0,0c-0.5-0.3-0.9-0.7-1.3-1.3
		c-0.1-0.2-0.2-0.4-0.3-0.6c0,0,0,0,0,0c0,0,0,0,0,0c0.5,0.2,0.8,0.6,0.8,0.6c0.1,0.1,0.1,0.1,0.2,0C29.1,19.7,29.1,19.6,29.1,19.5
		 M28.1,17.7L28.1,17.7c0.1,0,0.1-0.1,0.1-0.2c-0.1-0.7,0-1.2,0.1-1.5c0,0,0,0,0,0c0,0,0,0,0,0c0.2,0.4,0.4,0.8,0.5,1.1
		c0.1,0.4,0.1,0.7,0.1,1.1c0,0.4-0.2,0.7-0.2,0.8c0,0,0,0,0,0c0,0,0,0,0,0c-0.6-0.2-1.1-0.6-1.4-1.2c-0.1-0.2-0.2-0.4-0.3-0.6
		c0,0,0,0,0,0c0,0,0,0,0,0c0.5,0.1,0.9,0.5,0.9,0.5C27.9,17.7,28,17.7,28.1,17.7 M26.6,15.9c0.1,0,0.2,0,0.2,0
		c0.1,0,0.1-0.1,0.1-0.2c-0.2-0.6-0.2-1.2-0.1-1.5c0,0,0,0,0,0c0,0,0,0,0,0c0.3,0.3,0.5,0.7,0.6,1c0.2,0.4,0.2,0.7,0.3,1
		c0,0.4,0,0.7-0.1,0.8c0,0,0,0,0,0c0,0,0,0,0,0c-0.6-0.1-1.1-0.4-1.6-0.9c-0.2-0.2-0.3-0.4-0.4-0.6c0,0,0,0,0,0c0,0,0,0,0,0
		C26.2,15.6,26.6,15.9,26.6,15.9 M25.2,14.2c0.1,0,0.2,0,0.2,0c0.1-0.1,0.1-0.1,0-0.2c-0.3-0.6-0.4-1.1-0.4-1.5c0,0,0,0,0,0
		c0,0,0,0,0,0c0.3,0.3,0.6,0.6,0.8,0.9c0.2,0.3,0.4,0.7,0.4,1c0.1,0.4,0.1,0.7,0.1,0.8c0,0,0,0,0,0c0,0,0,0,0,0
		c-0.6,0-1.2-0.3-1.6-0.6c-0.2-0.1-0.4-0.3-0.6-0.5c0,0,0,0,0,0c0,0,0,0,0,0c0,0,0,0,0.1,0C24.7,14.1,25.2,14.2,25.2,14.2
		 M24.6,12.7c0.2,0.4,0.2,0.8,0.2,0.9c0,0,0,0,0,0c0,0-0.1,0-0.1,0c-0.8,0-1.7-0.5-2.2-0.9c0,0,0,0,0,0c0,0,0,0,0,0c0.5-0.1,1,0,1,0
		c0.1,0,0.2,0,0.2-0.1c0-0.1,0-0.2,0-0.2c-0.3-0.4-0.5-0.8-0.6-1.1c0,0,0,0,0,0c0,0,0,0,0,0C23.9,11.6,24.4,12.1,24.6,12.7
		 M10.4,10.4c0,0,0.1,0,0.1,0c0.5-0.2,0.9-0.3,1.1-0.3c0.5-0.1,0.9-0.3,0.9-0.3c0,0,0.1-0.1,0.1-0.1c0-0.1-0.1-0.1-0.1-0.1l-2.3-0.3
		l2.3-0.3c0.1,0,0.1-0.1,0.1-0.1c0-0.1,0-0.1-0.1-0.1c0,0-0.5-0.1-1-0.3C11.3,8.2,11.2,8.1,11,8c-0.2-0.1-0.4-0.2-0.6-0.3
		c0,0,0.1,0,0.1,0c0.5,0,0.9,0.1,1.2,0.1c0.5,0.1,0.9,0,1,0c0.1,0,0.1-0.1,0.1-0.1c0-0.1,0-0.1-0.1-0.1l-2-1.2l2.2,0.6
		C13,7.1,13,7,13.1,7c0-0.1,0-0.1-0.1-0.2c0,0-0.4-0.3-0.8-0.7C12.1,6,12,5.9,11.9,5.8c-0.1-0.2-0.3-0.3-0.5-0.5c0,0,0.1,0,0.1,0.1
		c0.4,0.2,0.8,0.5,1,0.6c0.4,0.3,0.9,0.4,0.9,0.4c0.1,0,0.1,0,0.1-0.1c0,0,0-0.1,0-0.2l-1.4-1.8L14,5.6c0.1,0,0.1,0,0.2,0
		c0,0,0.1-0.1,0-0.2c0,0-0.3-0.4-0.5-0.9c-0.1-0.2-0.1-0.3-0.1-0.4c-0.1-0.2-0.1-0.4-0.2-0.7c0,0,0.1,0.1,0.1,0.1
		c0.3,0.4,0.6,0.7,0.7,0.9c0.3,0.4,0.6,0.7,0.7,0.7c0,0,0.1,0,0.2,0C15,5.1,15,5,15,5l-0.6-2.2l1.2,2c0,0.1,0.1,0.1,0.2,0.1
		c0.1,0,0.1-0.1,0.1-0.2c0,0-0.1-0.5-0.1-1c0-0.2,0-0.3,0-0.4c0-0.2,0-0.4,0-0.7c0,0,0,0.1,0,0.1C16,3,16.1,3.4,16.2,3.7
		c0.1,0.5,0.3,0.8,0.3,0.9c0,0,0.1,0.1,0.1,0.1c0.1,0,0.1-0.1,0.1-0.1l0.3-2.2l0.3,2.2c0,0.1,0.1,0.1,0.1,0.1c0.1,0,0.1,0,0.1-0.1
		c0,0,0.1-0.5,0.3-1c0.1-0.1,0.1-0.3,0.2-0.4c0.1-0.2,0.2-0.4,0.3-0.7c0,0,0,0.1,0,0.1c0,0.5-0.1,0.9-0.1,1.2c-0.1,0.5,0,0.9,0,1
		c0,0.1,0.1,0.1,0.1,0.1c0.1,0,0.1,0,0.1-0.1l1.2-2L19.2,5c0,0.1,0,0.1,0.1,0.2c0.1,0,0.1,0,0.2-0.1c0,0,0.3-0.4,0.7-0.8
		c0.1-0.1,0.2-0.2,0.3-0.3c0.2-0.1,0.3-0.3,0.5-0.5c0,0,0,0.1-0.1,0.1c-0.2,0.4-0.4,0.8-0.6,1c-0.3,0.4-0.4,0.9-0.4,0.9
		c0,0.1,0,0.1,0.1,0.1c0,0,0.1,0,0.1,0L22,4.3l-1.4,1.8c0,0.1,0,0.1,0,0.2c0,0,0.1,0.1,0.2,0c0,0,0.4-0.3,0.9-0.5
		c0.2-0.1,0.3-0.1,0.4-0.1c0.2-0.1,0.4-0.1,0.7-0.3c0,0-0.1,0.1-0.1,0.1c-0.4,0.3-0.7,0.6-0.9,0.7c-0.4,0.3-0.7,0.6-0.7,0.7
		c0,0,0,0.1,0,0.2c0,0,0.1,0.1,0.1,0.1l2.2-0.6l-2,1.2c-0.1,0-0.1,0.1-0.1,0.2c0,0.1,0.1,0.1,0.2,0.1c0.1,0,0.5-0.1,1-0.1
		c0.2,0,0.3,0,0.4,0c0.2,0,0.4,0,0.7,0c0,0-0.1,0-0.1,0c-0.5,0.2-0.9,0.3-1.1,0.3c-0.5,0.1-0.9,0.3-0.9,0.3c0,0-0.1,0.1-0.1,0.1
		c0,0.1,0.1,0.1,0.1,0.1L24,9.1l-2.3,0.3c-0.1,0-0.1,0.1-0.1,0.1c0,0.1,0,0.1,0.1,0.1c0.1,0,0.5,0.1,1,0.3c0.1,0.1,0.3,0.1,0.4,0.2
		c0.2,0.1,0.4,0.2,0.6,0.3c0,0-0.1,0-0.1,0c-0.5,0-0.9-0.1-1.2-0.1l-0.1,0c-0.4-0.2-0.8-0.3-1.3-0.3c0,0,0,0,0,0
		c0-0.1-0.1-0.2-0.2-0.2c-0.6-0.2-1.2-0.3-1.7-0.3c-0.2,0-0.4,0-0.6,0c0,0,0,0,0-0.1c0-0.1-0.1-0.1-0.2-0.1c-0.6-0.1-1.2-0.1-1.7,0
		c-0.2,0-0.4,0.1-0.6,0.2c0-0.1,0-0.1-0.1-0.2c-0.1-0.1-0.1-0.1-0.2-0.1c-0.7,0.1-1.2,0.2-1.7,0.4C14.1,9.8,14,9.9,13.8,10
		c0-0.1,0-0.1-0.1-0.2c-0.1-0.1-0.2-0.1-0.2,0c-0.6,0.2-1.2,0.4-1.6,0.7l0,0c-0.1,0-0.2,0-0.4,0c-0.1,0-0.4,0-0.4,0
		C10.9,10.4,10.6,10.4,10.4,10.4 M11,11.1C11,11.1,11,11.1,11,11.1C11,11.1,11,11.1,11,11.1c0,0.4-0.1,0.9-0.5,1.5
		c0,0.1,0,0.1,0,0.2c0,0.1,0.1,0.1,0.2,0.1c0,0,0.5-0.1,1-0.1c0,0,0,0,0,0s0,0,0,0c-0.4,0.3-1.3,0.9-2.2,0.9c0,0-0.1,0-0.1,0
		c0,0,0,0,0,0C9.4,13.2,9.5,12.1,11,11.1 M7.9,14.4c0.1-0.3,0.2-0.7,0.4-1c0.2-0.3,0.5-0.6,0.8-0.9c0,0,0,0,0,0c0,0,0,0,0,0
		c0,0.3,0,0.9-0.4,1.5c0,0.1,0,0.2,0,0.2c0.1,0.1,0.1,0.1,0.2,0.1c0,0,0.5-0.2,1-0.2c0,0,0,0,0,0c0,0,0,0,0,0
		c-0.2,0.2-0.4,0.4-0.6,0.5c-0.4,0.3-1,0.6-1.5,0.6c0,0,0,0-0.1,0c0,0,0,0,0,0C7.8,15.1,7.8,14.8,7.9,14.4 M7.4,14.1
		C7.4,14.1,7.4,14.1,7.4,14.1C7.4,14.1,7.4,14.1,7.4,14.1c0.1,0.3,0.1,0.9-0.1,1.5c0,0.1,0,0.2,0.1,0.2c0.1,0,0.2,0.1,0.2,0
		c0,0,0.4-0.3,1-0.3c0,0,0,0,0,0c0,0,0,0,0,0c-0.3,0.5-1.1,1.3-2,1.5c0,0,0,0,0,0c0,0,0,0,0,0C6.4,16.6,6.2,15.5,7.4,14.1 M5.4,17.1
		c0.1-0.4,0.3-0.7,0.5-1.1c0,0,0,0,0,0c0,0,0,0,0,0C6,16.3,6.1,16.9,6,17.5c0,0.1,0,0.2,0.1,0.2c0.1,0,0.2,0,0.2,0
		c0,0,0.4-0.4,0.9-0.5c0,0,0,0,0,0c0,0,0,0,0,0c-0.1,0.2-0.2,0.4-0.4,0.6C6.5,18.5,6,18.8,5.4,19c0,0,0,0,0,0c0,0,0,0,0,0
		c0-0.1-0.2-0.4-0.2-0.8C5.2,17.8,5.2,17.5,5.4,17.1 M4.3,19.2c0.1-0.4,0.2-0.8,0.4-1.2c0,0,0,0,0,0s0,0,0,0C4.8,18.3,5,18.8,5,19.5
		c0,0.1,0,0.1,0.1,0.2c0.1,0,0.2,0,0.2,0c0,0,0.4-0.4,0.9-0.6c0,0,0,0,0,0c0,0,0,0,0,0c0,0.2-0.1,0.4-0.2,0.6
		c-0.3,0.6-0.7,1-1.4,1.4c0,0,0,0,0,0c0,0,0,0,0,0c-0.1-0.1-0.2-0.4-0.3-0.8C4.2,19.9,4.2,19.6,4.3,19.2 M3.7,20.1
		C3.7,20.1,3.7,20.1,3.7,20.1C3.7,20.1,3.7,20.1,3.7,20.1c0.2,0.3,0.5,0.8,0.5,1.5c0,0.1,0.1,0.1,0.1,0.2c0.1,0,0.2,0,0.2-0.1
		c0,0,0.3-0.4,0.8-0.7c0,0,0,0,0,0c0,0,0,0,0,0c0,0.2-0.1,0.4-0.1,0.6c-0.2,0.6-0.6,1.1-1.2,1.5c0,0,0,0,0,0c0,0,0,0,0,0
		c-0.1-0.1-0.3-0.3-0.4-0.7c-0.1-0.3-0.2-0.7-0.2-1.1C3.5,21,3.6,20.6,3.7,20.1 M3,22.4C3,22.4,3,22.4,3,22.4
		C3,22.4,3.1,22.4,3,22.4c0.3,0.3,0.6,0.7,0.7,1.4c0,0.1,0.1,0.1,0.1,0.1c0.1,0,0.2,0,0.2-0.1c0,0,0.3-0.4,0.7-0.8c0,0,0,0,0,0
		c0,0,0,0,0,0c0,0.2,0,0.4-0.1,0.6c-0.1,0.7-0.5,1.2-0.9,1.6c0,0,0,0,0,0c0,0,0,0,0,0c-0.1-0.1-0.3-0.3-0.5-0.7
		C3.1,24.3,3,24,3,23.6C2.9,23.2,3,22.8,3,22.4 M2.7,24.6C2.7,24.6,2.7,24.6,2.7,24.6C2.7,24.6,2.7,24.6,2.7,24.6
		C3,24.9,3.3,25.3,3.5,26c0,0.1,0.1,0.1,0.2,0.1c0.1,0,0.2,0,0.2-0.1c0,0,0.2-0.4,0.6-0.8c0,0,0,0,0,0c0,0,0,0,0,0
		c0,0.2,0,0.5-0.1,0.7c-0.1,0.7-0.4,1.2-0.8,1.6c0,0,0,0,0,0c0,0,0,0,0,0c-0.1-0.1-0.3-0.3-0.5-0.6c-0.2-0.3-0.3-0.6-0.3-1
		C2.6,25.5,2.6,25.1,2.7,24.6 M2.5,27C2.5,27,2.5,27,2.5,27C2.5,27,2.5,27,2.5,27c0.1,0,0.1,0.1,0.2,0.1c0.2,0.2,0.5,0.6,0.7,1.2
		c0,0.1,0.1,0.1,0.2,0.1c0.1,0,0.2-0.1,0.2-0.2c0,0,0.1-0.5,0.5-0.9c0,0,0,0,0,0c0,0,0,0,0,0c0,0.3,0.1,0.7,0,1.1
		c-0.1,0.5-0.3,1-0.7,1.3c0,0,0,0,0,0c0,0,0,0,0,0C3.2,29.6,2.4,28.8,2.5,27 M2.4,29.3C2.4,29.3,2.4,29.3,2.4,29.3
		c0.1,0,0.1,0.1,0.2,0.1c0.2,0.2,0.6,0.6,0.8,1.1c0,0.1,0.1,0.1,0.2,0.1c0,0,0,0,0,0c0.1,0,0.1,0,0.2-0.1c0,0,0.2-0.5,0.5-0.9
		c0,0,0,0,0,0c0,0,0,0,0,0C4.4,30.1,4.5,31,3.8,32c0,0,0,0,0,0c0,0,0,0,0,0C3.4,31.8,2.5,31.1,2.4,29.3C2.4,29.3,2.4,29.3,2.4,29.3
		 M2.5,31.7C2.5,31.7,2.5,31.7,2.5,31.7C2.5,31.7,2.6,31.7,2.5,31.7c0.3,0.1,0.8,0.5,1.2,1c0,0.1,0.1,0.1,0.2,0.1
		c0.1,0,0.1-0.1,0.2-0.1l0,0l0,0c0,0,0.1-0.6,0.4-1c0,0,0,0,0,0c0,0,0,0,0,0c0.1,0.2,0.2,0.4,0.2,0.6c0.1,0.6,0,1.3-0.3,1.9
		c0,0,0,0,0,0c0,0,0,0,0,0c-0.1,0-0.4-0.2-0.7-0.4c-0.3-0.2-0.5-0.5-0.7-0.9C2.8,32.5,2.6,32.1,2.5,31.7 M3.1,33.9
		C3.1,33.9,3.1,33.9,3.1,33.9C3.1,33.9,3.1,33.9,3.1,33.9c0.1,0,0.1,0,0.2,0.1c0.3,0.1,0.7,0.4,1,0.9c0,0.1,0.1,0.1,0.2,0.1
		c0.1,0,0.1-0.1,0.1-0.2c0,0,0.1-0.5,0.3-1c0,0,0,0,0,0c0,0,0,0,0,0c0.2,0.5,0.5,1.5,0.1,2.4c0,0,0,0,0,0c0,0,0,0,0,0
		C4.6,36.1,3.6,35.6,3.1,33.9 M4.4,37.2c-0.2-0.3-0.5-0.7-0.6-1.1c0,0,0,0,0,0c0,0,0,0,0,0c0.1,0,0.1,0,0.2,0.1
		c0.3,0.1,0.7,0.3,1.1,0.7C5.2,37,5.3,37,5.3,37c0.1,0,0.1-0.1,0.1-0.2c0,0,0-0.5,0.2-1c0,0,0,0,0,0c0,0,0,0,0,0
		c0.1,0.2,0.2,0.4,0.3,0.6C6.2,37,6.2,37.6,6,38.2c0,0,0,0,0,0c0,0,0,0,0,0c-0.1,0-0.4-0.1-0.8-0.3C4.9,37.7,4.7,37.5,4.4,37.2
		 M4.7,38.2C4.7,38.2,4.7,38.2,4.7,38.2C4.7,38.2,4.7,38.2,4.7,38.2c0.4,0,0.9,0.2,1.4,0.6c0.1,0,0.1,0.1,0.2,0
		c0.1,0,0.1-0.1,0.1-0.2c0,0-0.1-0.5,0-1c0,0,0,0,0,0c0,0,0,0,0,0c0.1,0.2,0.2,0.4,0.3,0.6c0.2,0.4,0.4,1.1,0.3,1.8c0,0,0,0,0,0h0
		c-0.1,0-0.4,0-0.8-0.2c-0.3-0.1-0.6-0.3-0.9-0.6C5.2,38.9,5,38.6,4.7,38.2 M9.1,42.1c0,0-0.2-0.5-0.2-1c0,0,0,0,0,0c0,0,0,0,0,0
		c0.4,0.4,1.2,1.2,1.1,2.2c0,0,0,0,0,0c-0.1,0-0.2,0-0.3,0c-0.1,0-0.3,0-0.5,0c-0.6-0.1-1.3-0.5-2-1.1c0,0,0,0,0,0c0,0,0,0,0,0
		c0.3,0,0.9,0,1.5,0.2c0.1,0,0.2,0,0.2,0C9.2,42.2,9.2,42.1,9.1,42.1 M7.4,40.7c0.1,0,0.2,0,0.2,0c0.1,0,0.1-0.1,0.1-0.2
		c0,0-0.1-0.5-0.1-1c0,0,0,0,0,0c0,0,0,0,0,0c0.4,0.4,1,1.3,0.9,2.2c0,0,0,0,0,0c0,0-0.1,0-0.1,0c-0.2,0-0.4,0-0.7-0.1
		c-0.3-0.1-0.7-0.3-1-0.5c-0.3-0.2-0.6-0.5-0.8-0.9c0,0,0,0,0,0c0,0,0,0,0,0C6.3,40.2,6.8,40.3,7.4,40.7 M14.9,35.7
		c-0.1,0-0.1,0.1-0.2,0.1c-0.4,0.3-0.7,0.6-0.8,0.9c-0.1,0-0.1,0-0.2,0c-0.3-0.1-0.3-0.3-0.3-0.3c0-0.2,0.1-0.3,0.3-0.5
		c0.3-0.3,0.5-0.4,0.7-0.4c0.1,0,0.1,0,0.2,0C14.8,35.5,14.9,35.6,14.9,35.7C14.9,35.6,14.9,35.6,14.9,35.7 M15.3,37.2
		c-0.1,0-0.5,0.1-0.6-0.1c0,0-0.1-0.1-0.1-0.2c0-0.3,0.3-0.5,0.5-0.7c0.3-0.2,0.5-0.4,0.7-0.4c0.1,0,0.2,0,0.3,0.1
		c0.1,0.1,0.1,0.1,0.1,0.2c0,0.1-0.1,0.2-0.2,0.3C15.6,36.7,15.4,37,15.3,37.2 M16.9,37.3c-0.1,0.1-0.5,0.4-0.8,0.3
		c0,0-0.1,0-0.2-0.1c0.1-0.3,0.4-0.5,0.7-0.6c0.4-0.2,0.5-0.1,0.5-0.1c0.1,0.1,0.1,0.2,0.1,0.2C17.2,37.1,17,37.2,16.9,37.3
		C16.9,37.3,16.9,37.3,16.9,37.3 M13.5,35.2c0,0-0.1,0.1-0.1,0.1c-0.2,0.2-0.4,0.4-0.5,0.7c0,0-0.1,0-0.1,0c-0.2,0-0.3-0.1-0.3-0.1
		c0,0-0.1-0.1,0.1-0.3c0.2-0.2,0.6-0.4,0.8-0.4c0,0,0,0,0.1,0c0,0,0,0,0,0C13.4,35.2,13.4,35.2,13.5,35.2 M21.7,35.6
		c-0.1,0.1-0.2,0.1-0.4,0.1c-0.3-0.4-1-1.2-1.8-1.6c-0.1,0-0.2,0-0.2,0c-0.1,0-0.1,0.1-0.2,0.2c0,0.1,0,0.2,0,0.2s0.1,0.1,0.2,0.2
		c0.7,0.4,1.4,1.1,1.6,1.4c0,0.1-0.1,0.1-0.1,0.1c-0.1,0.1-0.3,0.2-0.5,0.2c-0.1-0.2-0.2-0.4-0.4-0.6c-0.3-0.3-0.8-0.7-0.8-0.7
		c-0.1,0-0.2-0.1-0.2-0.1c-0.1,0-0.2,0.1-0.2,0.1c0,0.1-0.1,0.2-0.1,0.2c0,0.1,0.1,0.2,0.1,0.2c0.1,0.1,0.5,0.4,0.7,0.6
		c0.2,0.2,0.3,0.4,0.3,0.5c0,0.1-0.1,0.1-0.1,0.2c-0.1,0.1-0.3,0.2-0.4,0.1c-0.1-0.2-0.3-0.5-0.6-0.9c-0.1-0.1-0.3-0.1-0.4,0
		c-0.1,0.1-0.1,0.1-0.1,0.2c0,0.1,0,0.2,0.1,0.2c0.2,0.2,0.4,0.5,0.4,0.6c-0.1,0-0.1,0.1-0.2,0.1c-0.2,0.1-0.3,0.1-0.5,0.1
		c0.1-0.1,0.1-0.3,0.1-0.4c0-0.2,0-0.4-0.3-0.7c-0.1-0.1-0.4-0.3-0.8-0.2c0-0.2-0.1-0.4-0.3-0.5c-0.3-0.3-0.6-0.3-1-0.2h0
		c-0.1-0.1-0.2-0.3-0.5-0.5c-0.3-0.1-0.6-0.2-0.9-0.1c-0.3-0.2-0.6-0.3-0.7-0.3c-0.4-0.1-1,0.1-1.3,0.5c-1.8,1-4.2,2-5.1,2.4
		c-0.5-0.9-0.9-2-1.3-3c-0.1-0.3-0.2-0.6-0.3-0.9c2.7-0.3,4.8-0.6,6.4-0.9c1.6-0.3,2.7-0.7,3.3-1c0.6-0.4,1.1-0.7,1.7-0.6
		c0.1,0,0.3,0,0.4,0c-0.1,0-0.2,0.1-0.3,0.2c-0.3,0.2-0.4,0.3-0.5,0.4c-0.1,0.1-0.2,0.2-0.4,0.3c-0.1,0.1-0.3,0.2-0.4,0.2
		c-0.4,0.2-0.7,0.3-0.8,0.6c-0.1,0.3-0.1,0.5,0.1,0.8c0.3,0.4,0.8,0.4,1.1,0.4c0.4,0,0.9-0.2,1.3-0.4c0.1-0.1,0.3-0.2,0.4-0.2
		c0.2-0.1,0.3-0.2,0.4-0.2c0,0,0,0,0,0c0.3-0.1,0.7-0.1,1.1,0.1c0.4,0.1,0.8,0.4,1.1,0.6c0.8,0.5,1.5,1.3,1.6,1.5
		C21.8,35.4,21.8,35.5,21.7,35.6 M22.9,35.4c-0.3-0.2-0.5-0.4-0.6-0.5c0,0,0,0,0,0l0,0c0,0,0,0,0-0.1c-0.3-0.3-0.9-1-1.7-1.5
		c-0.6-0.4-1.7-1.1-2.7-0.8c-0.2,0-0.4,0.2-0.6,0.3c-0.1,0.1-0.2,0.1-0.3,0.2c-0.3,0.2-0.7,0.3-1,0.3c-0.3,0-0.5,0-0.6-0.1
		c-0.1-0.1-0.1-0.1-0.1-0.2c0.1-0.1,0.3-0.2,0.5-0.3c0.2-0.1,0.4-0.2,0.5-0.3c0.2-0.1,0.3-0.2,0.5-0.4c0.1-0.1,0.3-0.2,0.5-0.4
		c0.3-0.2,0.7-0.2,1.2-0.2l0,0c0.1,0,0.2,0,0.2,0c0.1,0,0.1,0,0.2,0c0.6,0,1.1,0.2,1.8,0.4c0.2,0.1,0.5,0.2,0.8,0.3
		c0,0,1.1,0.3,2.5,0.7c1.2,0.3,3,0.7,4.7,0.8c-0.1,0.3-0.2,0.5-0.2,0.8c-0.4,1.1-0.8,2.1-1.3,3.1C26.3,37.2,24.2,36.4,22.9,35.4
		 M26.8,42.1c-0.8,0.8-1.5,1-2,1.1c-0.2,0-0.3,0-0.5,0c-0.1,0-0.2,0-0.3,0c0,0,0,0,0,0c0-0.6,0.2-1.2,0.7-1.7
		c0.1-0.2,0.3-0.3,0.5-0.5c0,0,0,0,0,0c0,0,0,0,0,0c-0.1,0.5-0.2,1-0.2,1c0,0.1,0,0.2,0,0.2c0.1,0.1,0.1,0.1,0.2,0
		C25.9,42.1,26.5,42.1,26.8,42.1C26.8,42.1,26.8,42.1,26.8,42.1C26.8,42.1,26.8,42.1,26.8,42.1 M28.3,40.2c-0.3,0.4-0.5,0.7-0.8,0.9
		c-0.3,0.2-0.6,0.4-1,0.5c-0.3,0.1-0.6,0.1-0.7,0.1c0,0-0.1,0-0.1,0c0,0,0,0,0,0c0-0.6,0.1-1.1,0.5-1.7c0.1-0.2,0.2-0.4,0.4-0.5
		c0,0,0,0,0,0c0,0,0,0,0,0c0,0.5-0.1,1-0.1,1c0,0.1,0,0.2,0.1,0.2c0.1,0,0.1,0,0.2,0C27.4,40.3,27.9,40.2,28.3,40.2
		C28.3,40.2,28.3,40.2,28.3,40.2C28.3,40.2,28.3,40.2,28.3,40.2 M28.7,39.2c-0.3,0.3-0.6,0.5-0.9,0.6C27.4,40,27.1,40,27,40h0
		c0,0,0,0,0,0c-0.1-0.6,0-1.2,0.3-1.8c0.1-0.2,0.2-0.4,0.3-0.6c0,0,0,0,0,0c0,0,0,0,0,0c0.1,0.5,0.1,1,0.1,1c0,0.1,0,0.2,0.1,0.2
		c0.1,0,0.1,0,0.2,0c0.5-0.4,1.1-0.6,1.4-0.6c0,0,0,0,0,0c0,0,0,0,0,0C29.2,38.6,29,38.9,28.7,39.2 M29.8,37.2
		c-0.2,0.3-0.5,0.5-0.8,0.7c-0.3,0.2-0.6,0.3-0.8,0.3c0,0,0,0,0,0c0,0,0,0,0,0C28,37.6,28,37,28.3,36.3c0.1-0.2,0.2-0.4,0.3-0.6
		c0,0,0,0,0,0c0,0,0,0,0,0c0.2,0.5,0.2,1,0.2,1c0,0.1,0.1,0.1,0.1,0.2c0.1,0,0.2,0,0.2-0.1c0.4-0.5,0.8-0.7,1.1-0.8
		c0.1,0,0.1,0,0.2-0.1c0,0,0,0,0,0c0,0,0,0,0,0C30.2,36.5,30,36.8,29.8,37.2 M30.6,35c-0.2,0.3-0.5,0.6-0.7,0.8
		c-0.3,0.2-0.6,0.3-0.7,0.4c0,0,0,0,0,0c0,0,0,0,0,0c-0.3-0.7-0.2-1.4-0.1-1.8c0.1-0.2,0.1-0.4,0.2-0.6c0,0,0,0,0,0c0,0,0,0,0,0
		c0.2,0.5,0.3,1,0.3,1c0,0.1,0.1,0.1,0.1,0.2c0.1,0,0.2,0,0.2-0.1c0.4-0.5,0.9-0.8,1.2-0.9c0,0,0,0,0,0c0,0,0,0,0,0
		C31,34.3,30.8,34.7,30.6,35 M31.2,32.8c-0.2,0.3-0.4,0.6-0.6,0.9c-0.3,0.3-0.6,0.4-0.7,0.5c0,0,0,0,0,0c0,0,0,0,0,0
		c-0.3-0.5-0.4-1.1-0.3-1.8c0-0.2,0.1-0.4,0.1-0.6c0,0,0,0,0,0c0,0,0,0,0,0c0.3,0.4,0.4,1,0.4,1c0,0.1,0.1,0.1,0.2,0.1
		c0.1,0,0.2,0,0.2-0.1c0.4-0.6,0.8-0.9,1.1-1.1c0,0,0,0,0,0c0,0,0,0,0,0C31.5,32,31.3,32.4,31.2,32.8"/>
	<path fill="#ECC400" d="M21.2,10.1c0.4,0,0.8,0.1,1.3,0.3l0.1,0c0.2,0,0.7,0.1,1.2,0.1c0,0,0.1,0,0.1,0c-0.3-0.1-0.4-0.2-0.6-0.3
		c-0.1-0.1-0.3-0.1-0.4-0.2c-0.5-0.2-0.9-0.3-1-0.3c-0.1,0-0.1-0.1-0.1-0.1c0-0.1,0-0.1,0.1-0.1L24,9.1l-2.3-0.3
		c-0.1,0-0.1,0-0.1-0.1c0-0.1,0-0.1,0.1-0.1c0,0,0.4-0.2,0.9-0.3c0.2,0,0.7-0.2,1.1-0.3c0,0,0.1,0,0.1,0c-0.3,0-0.5,0-0.7,0
		c-0.1,0-0.3,0-0.4,0c-0.5,0-1,0.1-1,0.1c-0.1,0-0.1,0-0.2-0.1c0-0.1,0-0.1,0.1-0.2l2-1.2l-2.2,0.6c-0.1,0-0.1,0-0.1-0.1
		c0,0,0-0.1,0-0.2c0,0,0.3-0.4,0.7-0.7c0.2-0.1,0.6-0.4,0.9-0.7c0,0,0.1-0.1,0.1-0.1c-0.2,0.1-0.4,0.2-0.7,0.3
		c-0.1,0-0.3,0.1-0.4,0.1c-0.5,0.2-0.9,0.5-0.9,0.5c-0.1,0-0.1,0-0.2,0c0,0-0.1-0.1,0-0.2L22,4.3l-1.8,1.4c0,0-0.1,0-0.1,0
		c0,0-0.1-0.1-0.1-0.1c0,0,0.1-0.4,0.4-0.9c0.1-0.2,0.4-0.6,0.6-1c0,0,0-0.1,0.1-0.1c-0.2,0.2-0.3,0.3-0.5,0.5
		c-0.1,0.1-0.2,0.2-0.3,0.3c-0.4,0.4-0.6,0.8-0.7,0.8c0,0.1-0.1,0.1-0.2,0.1c-0.1,0-0.1-0.1-0.1-0.2l0.6-2.2l-1.2,2
		c0,0-0.1,0.1-0.1,0.1c-0.1,0-0.1-0.1-0.1-0.1c0,0-0.1-0.4,0-1c0-0.2,0.1-0.7,0.1-1.2c0,0,0-0.1,0-0.1c-0.1,0.3-0.2,0.4-0.3,0.7
		C18.1,3.2,18,3.3,18,3.5c-0.2,0.5-0.3,1-0.3,1c0,0.1-0.1,0.1-0.1,0.1c-0.1,0-0.1,0-0.1-0.1l-0.3-2.2l-0.3,2.2c0,0.1,0,0.1-0.1,0.1
		c-0.1,0-0.1,0-0.1-0.1c0,0-0.2-0.4-0.3-0.9c0-0.2-0.2-0.7-0.3-1.1c0,0,0-0.1,0-0.1c0,0.3,0,0.5,0,0.7c0,0.1,0,0.3,0,0.4
		c0,0.6,0.1,1,0.1,1c0,0.1,0,0.1-0.1,0.2c-0.1,0-0.1,0-0.2-0.1l-1.2-2L15,5C15,5,15,5.1,15,5.1c0,0-0.1,0-0.2,0c0,0-0.4-0.3-0.7-0.7
		c-0.1-0.2-0.4-0.6-0.7-0.9c0,0-0.1-0.1-0.1-0.1c0.1,0.2,0.2,0.4,0.2,0.7c0,0.1,0.1,0.3,0.1,0.4c0.2,0.5,0.5,0.9,0.5,0.9
		c0,0.1,0,0.1,0,0.2c0,0-0.1,0.1-0.2,0l-1.8-1.4l1.4,1.8c0,0,0,0.1,0,0.2c0,0-0.1,0.1-0.1,0.1c0,0-0.4-0.1-0.9-0.4
		c-0.2-0.1-0.6-0.4-1-0.6c0,0-0.1,0-0.1-0.1c0.2,0.2,0.3,0.3,0.5,0.5C12,5.9,12.1,6,12.2,6.1C12.6,6.6,13,6.8,13,6.8
		c0.1,0,0.1,0.1,0.1,0.2C13,7,13,7.1,12.9,7.1l-2.2-0.6l2,1.2c0,0,0.1,0.1,0.1,0.1c0,0.1-0.1,0.1-0.1,0.1c0,0-0.4,0.1-1,0
		c-0.2,0-0.7-0.1-1.2-0.1c0,0-0.1,0-0.1,0C10.6,7.8,10.8,7.9,11,8c0.1,0.1,0.2,0.1,0.4,0.2c0.5,0.2,1,0.3,1,0.3
		c0.1,0,0.1,0.1,0.1,0.1c0,0.1,0,0.1-0.1,0.1l-2.3,0.3l2.3,0.3c0.1,0,0.1,0,0.1,0.1c0,0.1,0,0.1-0.1,0.1c0,0-0.4,0.2-0.9,0.3
		c-0.2,0-0.7,0.2-1.1,0.3c0,0-0.1,0-0.1,0c0.3,0,0.5,0,0.7,0c0,0,0.3,0,0.4,0c0.1,0,0.2,0,0.4,0l0,0c0.4-0.3,1-0.5,1.6-0.7
		c0.1,0,0.2,0,0.2,0c0.1,0,0.1,0.1,0.1,0.2c0.1-0.1,0.2-0.1,0.4-0.2c0.5-0.2,1.1-0.3,1.7-0.4c0.1,0,0.2,0,0.2,0.1
		c0,0,0.1,0.1,0.1,0.2c0.2-0.1,0.4-0.1,0.6-0.2c0.5-0.1,1.1-0.1,1.7,0c0.1,0,0.2,0.1,0.2,0.1c0,0,0,0,0,0.1c0.2,0,0.4,0,0.6,0
		c0.5,0,1.1,0.1,1.7,0.3C21.1,9.9,21.2,10,21.2,10.1C21.2,10.1,21.2,10.1,21.2,10.1"/>
	<path fill="#211915" d="M17.9,7.2c2.2-0.4,2.4,0.3,2.4,0.3s0.1,0.1,0.2,0.1c0,0,0.2,0,0.1-0.2c0,0-0.2-0.7-1.4-0.8
		c0,0-0.6-0.1-1.3,0c-0.2,0-0.2,0.5-0.2,0.5C17.7,7.3,17.9,7.2,17.9,7.2"/>
	<path fill="#211915" d="M16,7.7c-0.3-0.1-0.9-0.1-0.9-0.1c-1,0-1.3,0.7-1.3,0.7C13.8,8.4,14,8.5,14,8.5c0.2,0.1,0.3-0.1,0.3-0.1
		s0.1-0.2,0.5-0.3c0,0.1,0,0.1,0,0.2c0,0.3,0.2,0.5,0.5,0.5c0.3,0,0.5-0.2,0.5-0.5c0-0.1,0-0.1,0-0.2c0.1,0.1,0.3,0.2,0.4,0.3
		c0,0.1,0.1,0.1,0.3,0.1c0.2,0,0.2-0.1,0.2-0.1C16.3,7.8,16,7.7,16,7.7"/>
	<path fill="#211915" d="M17.8,8.5c0.2,0,0.3,0,0.3-0.1c0.1-0.2,0.2-0.3,0.4-0.3c0,0.1,0,0.1,0,0.2c0,0.3,0.2,0.5,0.5,0.5
		c0.3,0,0.5-0.2,0.5-0.5c0-0.1,0-0.1,0-0.2c0.4,0.1,0.5,0.3,0.5,0.3s0.1,0.2,0.3,0.1c0,0,0.2,0,0.1-0.2c0,0-0.3-0.6-1.3-0.7
		c0,0-0.6,0-0.9,0.1c0,0-0.3,0.2-0.5,0.7C17.7,8.4,17.6,8.5,17.8,8.5"/>
	<path fill="#211915" d="M13.6,7.6c0.2,0,0.2-0.1,0.2-0.1s0.2-0.6,2.4-0.3c0,0,0.2,0,0.2-0.2c0,0-0.1-0.4-0.3-0.5
		c-0.7-0.1-1.3,0-1.3,0c-1.2,0.1-1.4,0.8-1.4,0.8C13.4,7.6,13.6,7.6,13.6,7.6"/>
	<path fill="#629A3B" d="M26.8,42.1c-0.4,0-0.9,0-1.5,0.2c-0.1,0-0.2,0-0.2,0c-0.1-0.1-0.1-0.1,0-0.2c0,0,0.2-0.5,0.2-1c0,0,0,0,0,0
		s0,0,0,0c-0.2,0.1-0.3,0.3-0.5,0.5c-0.5,0.5-0.7,1.1-0.7,1.7c0,0,0,0,0,0c0.1,0,0.2,0,0.3,0c0.1,0,0.3,0,0.5,0
		C25.3,43.2,26,42.9,26.8,42.1C26.8,42.1,26.8,42.1,26.8,42.1C26.8,42.1,26.8,42.1,26.8,42.1"/>
	<path fill="#629A3B" d="M8.9,41.1C8.9,41.1,8.9,41.1,8.9,41.1C8.9,41.1,8.9,41.1,8.9,41.1c0,0.5,0.2,1,0.2,1c0,0.1,0,0.2,0,0.2
		c-0.1,0.1-0.1,0.1-0.2,0c-0.6-0.3-1.2-0.3-1.5-0.2c0,0,0,0,0,0c0,0,0,0,0,0c0.7,0.6,1.3,1,2,1.1c0.2,0,0.3,0,0.5,0
		c0.1,0,0.2,0,0.3,0c0,0,0,0,0,0C10.1,42.2,9.4,41.5,8.9,41.1"/>
	<path fill="#629A3B" d="M28.3,40.2c-0.4,0-0.9,0.1-1.5,0.5c-0.1,0-0.1,0-0.2,0c-0.1,0-0.1-0.1-0.1-0.2c0,0,0.1-0.5,0.1-1
		c0,0,0,0,0,0c0,0,0,0,0,0c-0.1,0.2-0.3,0.3-0.4,0.5c-0.4,0.6-0.5,1.2-0.5,1.7c0,0,0,0,0,0c0,0,0.1,0,0.1,0c0.2,0,0.4,0,0.7-0.1
		c0.3-0.1,0.7-0.3,1-0.5C27.7,40.9,28,40.6,28.3,40.2C28.3,40.2,28.3,40.2,28.3,40.2C28.3,40.2,28.3,40.2,28.3,40.2"/>
	<path fill="#629A3B" d="M29.4,38.2c-0.3,0.1-0.9,0.2-1.4,0.6c-0.1,0-0.1,0.1-0.2,0c-0.1,0-0.1-0.1-0.1-0.2c0,0,0-0.5-0.1-1
		c0,0,0,0,0,0c0,0,0,0,0,0c-0.1,0.2-0.2,0.4-0.3,0.6C27,38.9,26.9,39.5,27,40c0,0,0,0,0,0h0c0.1,0,0.4,0,0.8-0.2
		c0.3-0.1,0.6-0.3,0.9-0.6C29,38.9,29.2,38.6,29.4,38.2C29.5,38.2,29.5,38.2,29.4,38.2C29.4,38.2,29.4,38.2,29.4,38.2"/>
	<path fill="#629A3B" d="M30.4,36c-0.1,0-0.1,0-0.2,0.1c-0.3,0.1-0.7,0.3-1.1,0.8c-0.1,0.1-0.1,0.1-0.2,0c-0.1,0-0.1-0.1-0.1-0.2
		c0,0,0-0.5-0.2-1c0,0,0,0,0,0c0,0,0,0,0,0c-0.1,0.2-0.2,0.4-0.3,0.6C28,37,28,37.6,28.1,38.2c0,0,0,0,0,0c0,0,0,0,0,0
		c0.1,0,0.4-0.1,0.8-0.3c0.3-0.2,0.6-0.4,0.8-0.7C30,36.8,30.2,36.5,30.4,36C30.4,36.1,30.4,36.1,30.4,36C30.4,36,30.4,36,30.4,36"
		/>
	<path fill="#629A3B" d="M31.1,33.9c-0.3,0.1-0.8,0.4-1.2,0.9c0,0.1-0.1,0.1-0.2,0.1c-0.1,0-0.1-0.1-0.1-0.2c0,0-0.1-0.6-0.3-1
		c0,0,0,0,0,0h0c0,0,0,0,0,0c-0.1,0.2-0.2,0.4-0.2,0.6c-0.1,0.5-0.2,1.2,0.1,1.8c0,0,0,0,0,0c0,0,0,0,0,0c0.1,0,0.4-0.1,0.7-0.4
		c0.3-0.2,0.5-0.5,0.7-0.8C30.8,34.7,31,34.3,31.1,33.9C31.1,33.9,31.1,33.9,31.1,33.9C31.1,33.9,31.1,33.9,31.1,33.9"/>
	<path fill="#629A3B" d="M31.5,31.6c-0.3,0.2-0.8,0.5-1.1,1.1c0,0.1-0.1,0.1-0.2,0.1c-0.1,0-0.1-0.1-0.2-0.1c0,0-0.1-0.6-0.4-1
		c0,0,0,0,0,0c0,0,0,0,0,0c-0.1,0.2-0.1,0.4-0.1,0.6c-0.1,0.7,0,1.3,0.3,1.8c0,0,0,0,0,0c0,0,0,0,0,0c0.1-0.1,0.4-0.2,0.7-0.5
		c0.3-0.2,0.5-0.5,0.6-0.9C31.3,32.4,31.5,32,31.5,31.6C31.5,31.6,31.5,31.6,31.5,31.6C31.5,31.6,31.5,31.6,31.5,31.6"/>
	<path fill="#629A3B" d="M30.7,30.5c0,0.1-0.1,0.1-0.2,0.1c-0.1,0-0.1-0.1-0.2-0.1c0,0-0.2-0.5-0.5-0.9c0,0,0,0,0,0c0,0,0,0,0,0
		c0,0.2-0.1,0.4-0.1,0.7c0,0.7,0.2,1.3,0.5,1.8c0,0,0,0,0,0c0,0,0,0,0,0c0.1-0.1,0.4-0.2,0.6-0.5c0.2-0.3,0.4-0.6,0.5-0.9
		c0.1-0.4,0.2-0.8,0.2-1.2c0,0,0,0,0,0c0,0,0,0,0,0C31.4,29.5,31,29.8,30.7,30.5"/>
	<path fill="#629A3B" d="M30.7,28.4c-0.1,0-0.1,0-0.2-0.1c0,0-0.2-0.5-0.6-0.8c0,0,0,0,0,0c0,0,0,0,0,0c0,0.6,0,1.6,0.7,2.3
		c0,0,0,0,0,0c0,0,0,0,0,0c0.1-0.1,0.4-0.3,0.6-0.6c0.2-0.3,0.3-0.6,0.4-1c0.1-0.4,0.1-0.8,0.1-1.2c0,0,0,0,0,0c0,0,0,0,0,0
		c-0.3,0.2-0.6,0.6-0.9,1.3C30.8,28.3,30.7,28.4,30.7,28.4"/>
	<path fill="#629A3B" d="M30.5,26.1c-0.1,0-0.2,0-0.2-0.1c0,0-0.3-0.4-0.6-0.7c0,0,0,0,0,0c0,0,0,0,0,0c0.1,0.6,0.2,1.7,0.9,2.2
		c0,0,0,0,0,0c0,0,0,0,0,0c0.1-0.1,0.3-0.3,0.5-0.7c0.2-0.3,0.3-0.6,0.3-1c0.1-0.4,0.1-0.8,0-1.2c0,0,0,0,0,0c0,0,0,0,0,0
		c-0.2,0.3-0.6,0.7-0.7,1.4C30.7,26.1,30.6,26.1,30.5,26.1"/>
	<path fill="#629A3B" d="M30.3,23.9c-0.1,0-0.2,0-0.2-0.1c0,0-0.3-0.4-0.7-0.7c0,0,0,0,0,0c0,0,0,0,0,0c0,0.2,0.1,0.4,0.1,0.7
		c0.1,0.5,0.4,1.1,0.9,1.6c0,0,0,0,0,0c0,0,0,0,0,0c0.1-0.1,0.3-0.3,0.5-0.7c0.2-0.3,0.3-0.7,0.3-1c0-0.4,0-0.8-0.1-1.2c0,0,0,0,0,0
		c0,0,0,0,0,0c-0.2,0.3-0.5,0.7-0.7,1.4C30.4,23.9,30.3,23.9,30.3,23.9"/>
	<path fill="#629A3B" d="M29.8,21.8c-0.1,0-0.2,0-0.2-0.1c0,0-0.4-0.4-0.8-0.6c0,0,0,0,0,0c0,0,0,0,0,0c0,0.2,0.1,0.4,0.2,0.6
		c0.3,0.6,0.6,1.1,1.1,1.4c0,0,0,0,0,0c0,0,0,0,0,0c0.1-0.1,0.3-0.3,0.4-0.7c0.1-0.3,0.2-0.7,0.1-1.1c0-0.4-0.1-0.8-0.2-1.2
		c0,0,0,0,0,0c0,0,0,0,0,0c-0.2,0.3-0.4,0.8-0.5,1.5C29.9,21.7,29.8,21.8,29.8,21.8"/>
	<path fill="#629A3B" d="M28.8,19.7c0,0-0.4-0.3-0.8-0.6c0,0,0,0,0,0s0,0,0,0c0.1,0.2,0.2,0.4,0.3,0.6c0.3,0.6,0.7,1.1,1.3,1.3
		c0,0,0,0,0,0c0,0,0,0,0,0c0.1-0.1,0.2-0.4,0.3-0.8c0.1-0.3,0.1-0.7,0-1.1c-0.1-0.4-0.2-0.8-0.3-1.2c0,0,0,0,0,0c0,0,0,0,0,0
		c-0.2,0.3-0.3,0.8-0.3,1.5c0,0.1,0,0.1-0.1,0.2C29,19.7,28.9,19.7,28.8,19.7"/>
	<path fill="#629A3B" d="M26.9,17.2C26.9,17.2,26.9,17.2,26.9,17.2c0.1,0.2,0.2,0.4,0.3,0.6c0.4,0.6,0.9,1,1.4,1.2c0,0,0,0,0,0
		c0,0,0,0,0,0c0.1-0.1,0.2-0.4,0.2-0.8c0-0.3,0-0.7-0.1-1.1c-0.1-0.4-0.3-0.7-0.5-1.1c0,0,0,0,0,0c0,0,0,0,0,0
		c-0.1,0.3-0.2,0.9-0.1,1.5c0,0.1,0,0.2-0.1,0.2c-0.1,0-0.2,0-0.2,0C27.8,17.7,27.4,17.4,26.9,17.2C26.9,17.2,26.9,17.2,26.9,17.2"
		/>
	<path fill="#629A3B" d="M25.6,15.5C25.6,15.5,25.6,15.6,25.6,15.5c0.1,0.2,0.3,0.4,0.4,0.6c0.5,0.5,1,0.8,1.6,0.9l0,0c0,0,0,0,0,0
		c0-0.1,0.1-0.4,0.1-0.8c0-0.3-0.1-0.7-0.3-1c-0.2-0.3-0.4-0.7-0.6-1c0,0,0,0,0,0c0,0,0,0,0,0c-0.1,0.4-0.1,0.9,0.1,1.5
		c0,0.1,0,0.2-0.1,0.2c-0.1,0-0.2,0-0.2,0C26.6,15.9,26.2,15.6,25.6,15.5C25.7,15.5,25.7,15.5,25.6,15.5"/>
	<path fill="#629A3B" d="M25.4,14.2c-0.1,0.1-0.1,0.1-0.2,0c0,0-0.5-0.2-0.9-0.2c0,0,0,0-0.1,0c0,0,0,0,0,0c0,0,0,0,0,0
		c0.2,0.2,0.4,0.3,0.6,0.5c0.4,0.3,1,0.6,1.6,0.6c0,0,0,0,0,0c0,0,0,0,0,0c0-0.1,0-0.4-0.1-0.8c-0.1-0.3-0.2-0.7-0.4-1
		c-0.2-0.3-0.5-0.6-0.8-0.9c0,0,0,0,0,0c0,0,0,0,0,0c0,0.3,0,0.9,0.4,1.5C25.5,14,25.5,14.1,25.4,14.2"/>
	<path fill="#629A3B" d="M8.5,41.7C8.5,41.7,8.5,41.7,8.5,41.7c0.1,0,0.1,0,0.1,0c0.1-0.9-0.5-1.8-0.9-2.2c0,0,0,0,0,0c0,0,0,0,0,0
		c-0.1,0.5,0.1,1,0.1,1c0,0.1,0,0.2-0.1,0.2c-0.1,0-0.1,0-0.2,0c-0.6-0.4-1.1-0.5-1.5-0.5c0,0,0,0,0,0c0,0,0,0,0,0
		c0.3,0.4,0.5,0.7,0.8,0.9c0.3,0.2,0.6,0.4,1,0.5C8,41.7,8.3,41.7,8.5,41.7"/>
	<path fill="#629A3B" d="M7.2,40L7.2,40C7.2,40,7.2,40,7.2,40c0.1-0.7-0.1-1.3-0.3-1.8c-0.1-0.2-0.2-0.4-0.3-0.6c0,0,0,0,0,0
		c0,0,0,0,0,0c-0.1,0.5-0.1,1,0,1c0,0.1,0,0.2-0.1,0.2c-0.1,0-0.2,0-0.2,0c-0.5-0.4-1.1-0.6-1.4-0.6c0,0,0,0,0,0c0,0,0,0,0,0
		c0.2,0.4,0.5,0.7,0.7,1c0.3,0.3,0.6,0.5,0.9,0.6C6.7,40,7,40,7.2,40"/>
	<path fill="#629A3B" d="M6,38.2C6,38.2,6,38.2,6,38.2C6,38.2,6,38.2,6,38.2c0.2-0.6,0.2-1.2-0.1-1.8c-0.1-0.2-0.2-0.4-0.3-0.6
		c0,0,0,0,0,0c0,0,0,0,0,0c-0.2,0.5-0.2,1-0.2,1c0,0.1,0,0.1-0.1,0.2c-0.1,0-0.2,0-0.2,0c-0.4-0.4-0.8-0.6-1.1-0.7
		c-0.1,0-0.1,0-0.2-0.1c0,0,0,0,0,0c0,0,0,0,0,0c0.2,0.4,0.4,0.8,0.6,1.1c0.2,0.3,0.5,0.5,0.8,0.7C5.6,38.1,5.9,38.2,6,38.2"/>
	<path fill="#629A3B" d="M5.1,36.2C5.1,36.2,5.1,36.2,5.1,36.2C5.1,36.2,5.1,36.2,5.1,36.2c0.5-1,0.2-2-0.1-2.5c0,0,0,0,0,0
		c0,0,0,0,0,0c-0.2,0.5-0.3,1-0.3,1c0,0.1-0.1,0.1-0.1,0.2c-0.1,0-0.2,0-0.2-0.1c-0.4-0.5-0.8-0.7-1-0.9c-0.1,0-0.1-0.1-0.2-0.1
		c0,0,0,0,0,0c0,0,0,0,0,0C3.6,35.6,4.6,36.1,5.1,36.2"/>
	<path fill="#629A3B" d="M3.6,33.7c0.3,0.3,0.6,0.4,0.7,0.4c0,0,0,0,0,0c0,0,0,0,0,0c0.4-0.6,0.5-1.2,0.3-1.9c0-0.2-0.1-0.4-0.2-0.6
		c0,0,0,0,0,0c0,0,0,0,0,0c-0.3,0.4-0.4,1-0.4,1l0,0l0,0c0,0.1-0.1,0.1-0.2,0.1c-0.1,0-0.2,0-0.2-0.1c-0.4-0.6-0.8-0.9-1.2-1
		c0,0,0,0,0,0c0,0,0,0,0,0c0.1,0.4,0.2,0.8,0.4,1.2C3.1,33.2,3.4,33.5,3.6,33.7"/>
	<path fill="#629A3B" d="M3.7,32C3.7,32,3.8,32,3.7,32C3.8,32,3.8,32,3.7,32c0.7-1,0.7-1.9,0.6-2.4c0,0,0,0,0,0c0,0,0,0,0,0
		c-0.3,0.4-0.5,0.9-0.5,0.9c0,0.1-0.1,0.1-0.2,0.1c0,0,0,0,0,0c-0.1,0-0.1,0-0.2-0.1c-0.2-0.5-0.6-0.9-0.8-1.1
		c-0.1,0-0.1-0.1-0.2-0.1c0,0,0,0,0,0c0,0,0,0,0,0C2.5,31.1,3.4,31.8,3.7,32"/>
	<path fill="#629A3B" d="M3.6,29.8C3.6,29.8,3.6,29.8,3.6,29.8C3.6,29.8,3.6,29.8,3.6,29.8c0.4-0.3,0.6-0.8,0.7-1.3
		c0.1-0.4,0-0.8,0-1.1c0,0,0,0,0,0c0,0,0,0,0,0c-0.4,0.4-0.5,0.8-0.5,0.9c0,0.1-0.1,0.2-0.2,0.2c-0.1,0-0.2,0-0.2-0.1
		c-0.2-0.6-0.5-0.9-0.7-1.2c0,0-0.1-0.1-0.1-0.1c0,0,0,0,0,0c0,0,0,0,0,0C2.4,28.8,3.2,29.6,3.6,29.8"/>
	<path fill="#629A3B" d="M3,26.9c0.2,0.4,0.4,0.6,0.5,0.6c0,0,0,0,0,0c0,0,0,0,0,0c0.4-0.4,0.7-0.9,0.8-1.6c0-0.2,0.1-0.4,0.1-0.7
		c0,0,0,0,0,0c0,0,0,0,0,0C4,25.6,3.8,26,3.8,26c0,0.1-0.1,0.1-0.2,0.1c-0.1,0-0.1-0.1-0.2-0.1c-0.2-0.7-0.5-1.1-0.7-1.4
		c0,0,0,0,0,0c0,0,0,0,0,0c-0.1,0.4-0.1,0.9,0,1.2C2.8,26.2,2.9,26.6,3,26.9"/>
	<path fill="#629A3B" d="M3.3,24.7c0.2,0.3,0.4,0.6,0.5,0.7c0,0,0,0,0,0c0,0,0,0,0,0c0.5-0.4,0.8-1,0.9-1.6c0-0.2,0.1-0.4,0.1-0.6
		c0,0,0,0,0,0c0,0,0,0,0,0c-0.4,0.3-0.7,0.7-0.7,0.8c0,0.1-0.1,0.1-0.2,0.1c-0.1,0-0.1-0.1-0.1-0.1c-0.1-0.7-0.4-1.1-0.7-1.4
		c0,0,0,0,0,0c0,0,0,0,0,0C3,22.8,2.9,23.2,3,23.6C3,24,3.1,24.3,3.3,24.7"/>
	<path fill="#629A3B" d="M4.1,23.1C4.1,23.1,4.1,23.1,4.1,23.1C4.1,23.1,4.1,23.1,4.1,23.1c0.6-0.4,1-0.9,1.2-1.5
		c0.1-0.2,0.1-0.4,0.1-0.6c0,0,0,0,0,0c0,0,0,0,0,0c-0.5,0.3-0.8,0.7-0.8,0.7c0,0.1-0.1,0.1-0.2,0.1c-0.1,0-0.1-0.1-0.1-0.2
		c-0.1-0.7-0.3-1.2-0.5-1.5c0,0,0,0,0,0c0,0,0,0,0,0c-0.1,0.4-0.2,0.8-0.2,1.2c0,0.4,0,0.7,0.2,1.1C3.8,22.8,4,23.1,4.1,23.1"/>
	<path fill="#629A3B" d="M4.6,21C4.6,21,4.6,21,4.6,21C4.6,21,4.6,21,4.6,21c0.6-0.3,1.1-0.8,1.4-1.3c0.1-0.2,0.2-0.4,0.2-0.6
		c0,0,0,0,0,0c0,0,0,0,0,0c-0.5,0.2-0.9,0.6-0.9,0.6c-0.1,0.1-0.1,0.1-0.2,0C5,19.7,5,19.6,5,19.5c0-0.7-0.1-1.2-0.3-1.5
		c0,0,0,0,0,0c0,0,0,0,0,0c-0.2,0.4-0.3,0.8-0.4,1.2c-0.1,0.4,0,0.7,0,1.1C4.4,20.6,4.5,20.9,4.6,21"/>
	<path fill="#629A3B" d="M5.4,19C5.4,19,5.4,19,5.4,19C5.4,19,5.4,19,5.4,19c0.6-0.2,1.1-0.5,1.5-1.1c0.2-0.2,0.3-0.5,0.4-0.6
		c0,0,0,0,0,0c0,0,0,0,0,0c-0.5,0.1-0.9,0.5-0.9,0.5c-0.1,0.1-0.2,0.1-0.2,0C6,17.7,6,17.6,6,17.5c0.1-0.7,0-1.2-0.1-1.5
		c0,0,0,0,0,0c0,0,0,0,0,0c-0.2,0.4-0.4,0.7-0.5,1.1c-0.1,0.4-0.2,0.7-0.1,1.1C5.2,18.6,5.4,18.9,5.4,19"/>
	<path fill="#629A3B" d="M6.5,17C6.5,17,6.5,17,6.5,17c0.9-0.2,1.6-1,2-1.5c0,0,0,0,0,0c0,0,0,0,0,0c-0.5,0-1,0.3-1,0.3
		c-0.1,0-0.2,0-0.2,0c-0.1,0-0.1-0.1-0.1-0.2c0.2-0.6,0.2-1.2,0.1-1.5c0,0,0,0,0,0c0,0,0,0,0,0C6.2,15.5,6.4,16.6,6.5,17
		C6.5,17,6.5,17,6.5,17"/>
	<path fill="#629A3B" d="M7.8,15.2C7.9,15.2,7.9,15.2,7.8,15.2c0.6,0,1.2-0.3,1.6-0.6c0.2-0.1,0.4-0.3,0.6-0.5c0,0,0,0,0,0
		c0,0,0,0,0,0c-0.5,0-1,0.2-1,0.2c-0.1,0-0.2,0-0.2-0.1c-0.1-0.1-0.1-0.1,0-0.2c0.3-0.6,0.4-1.1,0.4-1.5c0,0,0,0,0,0c0,0,0,0,0,0
		c-0.3,0.3-0.6,0.6-0.8,0.9c-0.2,0.3-0.4,0.7-0.4,1C7.8,14.8,7.8,15.1,7.8,15.2C7.8,15.2,7.8,15.2,7.8,15.2"/>
	<path fill="#629A3B" d="M11.7,12.8c-0.5,0-1,0.1-1,0.1c-0.1,0-0.2,0-0.2-0.1c0-0.1,0-0.1,0-0.2c0.4-0.6,0.5-1.1,0.5-1.5
		c0,0,0,0,0,0c0,0,0,0,0,0c-1.5,1.1-1.6,2.2-1.6,2.6c0,0,0,0,0,0c0,0,0.1,0,0.1,0C10.4,13.7,11.3,13.1,11.7,12.8
		C11.7,12.8,11.7,12.8,11.7,12.8C11.7,12.8,11.7,12.8,11.7,12.8"/>
	<path fill="#629A3B" d="M13.6,11.9c-0.2,0-0.3-0.1-0.5-0.1c-0.3,0-0.5,0-0.5,0h0c-0.1,0-0.2,0-0.2-0.1c0-0.1,0-0.2,0.1-0.2
		c0.5-0.4,0.8-0.8,0.9-1.1c0,0,0,0,0,0c0,0,0,0,0,0c-1.7,0.6-2.1,1.6-2.2,2c0,0,0,0,0,0c0.2,0,0.4,0.1,0.7,0.1
		c0.3,0,0.7-0.1,1.2-0.2C13.2,12.1,13.4,12,13.6,11.9C13.6,11.9,13.6,11.9,13.6,11.9C13.6,11.9,13.6,11.9,13.6,11.9"/>
	<path fill="#629A3B" d="M15.6,11.3c-0.4-0.2-0.9-0.3-1-0.3c-0.1,0-0.1-0.1-0.2-0.2c0-0.1,0-0.2,0.1-0.2c0.6-0.3,0.8-0.6,1-0.8
		c0,0,0,0,0,0c0,0,0,0,0,0c-0.9,0.1-1.6,0.4-2,0.9c-0.2,0.2-0.3,0.4-0.4,0.6c0,0,0,0,0,0c0.4,0.2,0.8,0.2,1.1,0.2
		c0.2,0,0.5,0,0.7-0.1C15.2,11.5,15.4,11.4,15.6,11.3C15.6,11.3,15.6,11.3,15.6,11.3C15.6,11.3,15.6,11.3,15.6,11.3"/>
	<path fill="#629A3B" d="M17,10.7c-0.1,0-0.1-0.1-0.1-0.2c0-0.1,0.1-0.2,0.1-0.2c0.6-0.2,0.9-0.4,1.1-0.5c0,0,0,0,0,0c0,0,0,0,0,0
		c-0.9-0.1-1.6,0.1-2.1,0.4c-0.3,0.2-0.4,0.4-0.5,0.5c0,0,0,0,0,0c0.6,0.4,1.3,0.5,1.9,0.5c0.2,0,0.3,0,0.5,0c0,0,0,0,0,0
		c0,0,0,0,0,0C17.4,10.9,17,10.7,17,10.7"/>
	<path fill="#629A3B" d="M19.2,10.9c-0.1,0-0.1-0.1-0.1-0.2s0.1-0.1,0.2-0.1c0.6-0.1,0.9-0.2,1.2-0.3c0,0,0,0,0,0c0,0,0,0,0,0
		c-0.8-0.2-1.6-0.2-2.1,0c-0.3,0.1-0.5,0.3-0.6,0.4c0,0,0,0,0,0c0.7,0.9,1.7,1,2.2,1c0,0,0,0,0,0c0,0,0,0,0,0
		C19.6,11.2,19.2,10.9,19.2,10.9"/>
	<path fill="#629A3B" d="M24.8,13.7C24.8,13.7,24.8,13.7,24.8,13.7c0-0.2,0-0.6-0.2-0.9c-0.3-0.7-0.8-1.1-1.6-1.4c0,0,0,0,0,0
		c0,0,0,0,0,0c0.1,0.3,0.3,0.8,0.6,1.1c0.1,0.1,0.1,0.2,0,0.2c0,0.1-0.1,0.1-0.2,0.1c0,0-0.5-0.1-1,0c0,0,0,0,0,0c0,0,0,0,0,0
		c0.5,0.3,1.4,0.9,2.2,0.9C24.7,13.7,24.8,13.7,24.8,13.7"/>
	<path fill="#629A3B" d="M23,12.3C23,12.3,23,12.3,23,12.3c-0.4-0.5-1-0.7-1.6-0.6c-0.2,0-0.5,0.1-0.7,0.1c0,0,0,0,0,0c0,0,0,0,0,0
		c0.5,0.4,1.1,0.6,1.6,0.6c0,0,0.1,0,0.1,0C22.6,12.4,22.9,12.4,23,12.3C23,12.3,23,12.3,23,12.3"/>
	<path fill="#629A3B" d="M19.9,10.9C19.9,10.9,19.9,10.9,19.9,10.9c0.3,0.2,0.7,0.4,1.2,0.4c0.2,0,0.4,0,0.6-0.1
		c0.3-0.1,0.7-0.2,0.9-0.2c0,0,0,0,0,0c0,0,0,0,0,0c-0.3-0.2-0.6-0.3-1-0.3c-0.3-0.1-0.7,0-1,0C20.3,10.7,20,10.8,19.9,10.9
		C19.9,10.9,19.9,10.9,19.9,10.9"/>
	<path fill="#C5470A" d="M13.5,23.4c0.1,0.1,0.3,0.2,0.5,0.2h2.5C15,22.7,14.4,22.8,13.5,23.4C13.4,23.4,13.4,23.4,13.5,23.4"/>
	<path fill="#C5470A" d="M19.5,22.3c-0.2-0.1-0.5-0.1-0.7-0.2c-0.8-0.3-1.4-0.8-1.5-0.8c-0.2-0.1-0.2-0.4-0.1-0.5
		c0.1-0.2,0.4-0.2,0.5-0.1c0,0,0.6,0.5,1.3,0.7c0.2,0.1,0.4,0.1,0.6,0.2c0.3,0.1,0.7,0.2,1,0.3c-0.1-0.4-0.1-0.8-0.2-1.1
		c-1-0.2-1.8-0.9-1.9-0.9c-0.1-0.1-0.1-0.1-0.1-0.2c0-0.1,0-0.2,0.1-0.3c0.1-0.2,0.4-0.2,0.5,0c0,0,0.5,0.4,1.2,0.7
		c-0.3-1-0.6-1.9-1.1-2.8c-0.3-0.7-0.8-1.1-1.5-1.3c-0.5-0.2-0.8-0.1-0.8-0.1c0,0,0,0,0,0c0,0-1.2,0-2,0.9c0,0,0,0,0,0
		c-0.1,0.1-0.5,0.6-0.6,0.9c0,0.2,0,0.3,0.1,0.4c0.1,0,0.2,0.1,0.6-0.1c0.1-0.1,0.1-0.1,0.2-0.1c0.2-0.1,0.4-0.1,0.5,0.1
		c0.1,0.2,0.1,0.4-0.1,0.5c0,0-0.1,0.1-0.1,0.1c-0.2,0.1-0.5,0.4-0.8,0.9c-0.4,0.6-1,1.6-1.4,3.2c0,0,0,0.1,0,0.1
		c1-0.4,1.9-0.6,3.7,0.6c0.7,0.5,1.6,0.5,1.7,0.5h0.8c0,0,0,0,0,0c0.2,0,0.8,0,1.1-0.3c0-0.1,0.1-0.1,0.1-0.2
		C20.8,22.7,20.4,22.5,19.5,22.3"/>
	<path fill="#E9C184" d="M15.9,36.5c0.1-0.1,0.2-0.2,0.2-0.3c0,0,0-0.1-0.1-0.2C16,36,15.9,36,15.8,36c-0.2,0-0.4,0.1-0.7,0.4
		c-0.2,0.1-0.6,0.4-0.5,0.7c0,0.1,0.1,0.2,0.1,0.2c0.2,0.1,0.5,0.1,0.6,0.1C15.4,37,15.6,36.7,15.9,36.5"/>
	<path fill="#E9C184" d="M17.2,36.9c0,0,0-0.1-0.1-0.2c0,0-0.2-0.1-0.5,0.1c-0.3,0.2-0.6,0.4-0.7,0.6c0.1,0.1,0.1,0.1,0.2,0.1
		c0.3,0.1,0.7-0.2,0.8-0.3c0,0,0,0,0,0C17,37.2,17.2,37.1,17.2,36.9"/>
	<path fill="#E9C184" d="M13.4,35.2C13.3,35.2,13.3,35.2,13.4,35.2c-0.3,0-0.7,0.2-0.9,0.4c-0.1,0.2-0.1,0.3-0.1,0.3
		c0,0,0.1,0.1,0.3,0.1c0,0,0.1,0,0.1,0c0.1-0.3,0.3-0.5,0.5-0.7c0.1-0.1,0.1-0.1,0.1-0.1C13.4,35.2,13.4,35.2,13.4,35.2
		C13.4,35.2,13.4,35.2,13.4,35.2"/>
	<path fill="#E9C184" d="M13.5,36.3c0,0.1,0,0.2,0.3,0.3c0,0,0.1,0,0.2,0c0.1-0.3,0.3-0.6,0.8-0.9c0.1,0,0.1-0.1,0.2-0.1
		c0,0,0,0,0-0.1c0-0.1-0.1-0.1-0.2-0.2c-0.1,0-0.1,0-0.2,0c-0.2,0-0.4,0.1-0.7,0.4C13.5,36,13.5,36.2,13.5,36.3"/>
	<path fill="#E9C184" d="M21.3,35.7c0.2,0,0.3-0.1,0.4-0.1c0.1-0.1,0.1-0.2,0.1-0.3c-0.2-0.2-0.8-1-1.6-1.5
		c-0.4-0.2-0.7-0.5-1.1-0.6C18.7,33,18.3,33,18,33.1c0,0,0,0,0,0c-0.1,0-0.2,0.1-0.4,0.2c-0.1,0.1-0.2,0.1-0.4,0.2
		c-0.4,0.2-0.9,0.4-1.3,0.4c-0.4,0-0.8,0-1.1-0.4c-0.2-0.3-0.2-0.5-0.1-0.8c0.1-0.3,0.4-0.4,0.8-0.6c0.2-0.1,0.3-0.2,0.4-0.2
		c0.2-0.1,0.3-0.2,0.4-0.3c0.1-0.1,0.3-0.2,0.5-0.4c0.1-0.1,0.2-0.1,0.3-0.2c-0.1,0-0.2,0-0.4,0c-0.6,0-1,0.2-1.7,0.6
		c-0.5,0.4-1.6,0.7-3.3,1c-1.6,0.3-3.7,0.6-6.4,0.9c0.1,0.3,0.2,0.6,0.3,0.9c0.3,1.1,0.8,2.1,1.3,3c1-0.4,3.3-1.5,5.1-2.4
		c0.4-0.3,0.9-0.5,1.3-0.5c0.1,0,0.4,0,0.7,0.3c0.3-0.1,0.6-0.1,0.9,0.1c0.3,0.1,0.4,0.3,0.5,0.5c0.4-0.1,0.7,0,1,0.2
		c0.2,0.2,0.3,0.3,0.3,0.5c0.4-0.1,0.6,0.1,0.8,0.2c0.3,0.3,0.3,0.5,0.3,0.7c0,0.1-0.1,0.3-0.1,0.4c0.2,0,0.4,0,0.5-0.1
		c0.1,0,0.1-0.1,0.2-0.1c-0.1-0.2-0.2-0.4-0.4-0.6c-0.1-0.1-0.1-0.1-0.1-0.2c0-0.1,0-0.2,0.1-0.2c0.1-0.1,0.3-0.1,0.5,0
		c0.3,0.4,0.5,0.7,0.6,0.9c0.2,0,0.3,0,0.4-0.1c0.1-0.1,0.1-0.1,0.1-0.2c0-0.1-0.1-0.2-0.3-0.5c-0.2-0.2-0.6-0.5-0.7-0.6
		c-0.1,0-0.1-0.1-0.1-0.2c0-0.1,0-0.2,0.1-0.2c0-0.1,0.1-0.1,0.2-0.1c0.1,0,0.2,0,0.2,0.1c0,0,0.6,0.4,0.8,0.7
		c0.2,0.2,0.3,0.4,0.4,0.6c0.2,0,0.4-0.1,0.5-0.2c0,0,0.1-0.1,0.1-0.1c-0.2-0.3-0.9-1.1-1.6-1.4c-0.1,0-0.1-0.1-0.2-0.2
		c0-0.1,0-0.2,0-0.2c0-0.1,0.1-0.1,0.2-0.2c0.1,0,0.2,0,0.2,0C20.3,34.5,21,35.4,21.3,35.7"/>
	<path fill="#E9C184" d="M17.2,32.8c0.2-0.1,0.4-0.3,0.6-0.3c1.1-0.3,2.2,0.4,2.7,0.8c0.8,0.5,1.4,1.2,1.7,1.5c0,0,0,0,0,0.1l0,0
		c0,0,0,0,0,0c0.1,0.1,0.3,0.3,0.6,0.5c1.3,1,3.4,1.9,4.2,2.2c0.5-1,1-2,1.3-3.1c0.1-0.3,0.2-0.5,0.2-0.8c-1.7-0.1-3.5-0.5-4.7-0.8
		c-1.4-0.3-2.4-0.7-2.5-0.7c-0.3-0.1-0.5-0.2-0.8-0.3c-0.8-0.3-1.3-0.5-1.8-0.4c-0.1,0-0.1,0-0.2,0c-0.1,0-0.2,0-0.2,0l0,0
		c-0.5,0-0.9,0-1.2,0.2c-0.2,0.2-0.4,0.3-0.5,0.4c-0.1,0.1-0.3,0.2-0.5,0.4c-0.2,0.1-0.3,0.2-0.5,0.3c-0.1,0.1-0.4,0.2-0.5,0.3
		c0,0,0,0.1,0.1,0.2c0.1,0.1,0.3,0.1,0.6,0.1c0.3,0,0.7-0.1,1-0.3C17,32.9,17.1,32.8,17.2,32.8"/>
</g>
</svg>
