<svg x="0px" y="0px" viewBox="0 0 18 18"><path fill="#A6A8AC" d="M14.2,10.5c1,0,1.9,0.4,2.7,1.1s1.1,1.6,1.1,2.7s-0.4,1.9-1.1,2.7S15.3,18,14.2,18s-1.9-0.4-2.7-1.1 s-1.1-1.6-1.1-2.7c0-0.1,0-0.2,0-0.4l-4.2-2.1c-0.7,0.7-1.6,1-2.6,1c-1,0-1.9-0.4-2.7-1.1S0,10,0,9s0.4-1.9,1.1-2.7s1.6-1.1,2.7-1.1 c1,0,1.8,0.3,2.6,1l4.2-2.1c0-0.2,0-0.3,0-0.4c0-1,0.4-1.9,1.1-2.7S13.2,0,14.2,0s1.9,0.4,2.7,1.1S18,2.7,18,3.8s-0.4,1.9-1.1,2.7 s-1.6,1.1-2.7,1.1c-1,0-1.8-0.3-2.6-1L7.5,8.6c0,0.2,0,0.3,0,0.4s0,0.2,0,0.4l4.2,2.1C12.4,10.8,13.3,10.5,14.2,10.5z" /></svg>
