<svg x="0px" y="0px" viewBox="0 0 18 18"><path fill="#A6A8AC" d="M18,3.4v11.2c0,0.9-0.3,1.7-1,2.4s-1.5,1-2.4,1H3.4c-0.9,0-1.7-0.3-2.4-1s-1-1.5-1-2.4V3.4 C0,2.4,0.3,1.7,1,1s1.5-1,2.4-1h11.2c0.9,0,1.7,0.3,2.4,1S18,2.4,18,3.4z M15,5.6C14.6,5.8,14.1,6,13.6,6c0.5-0.3,0.9-0.8,1.1-1.4 c-0.5,0.3-1,0.5-1.6,0.6c-0.5-0.5-1.1-0.8-1.8-0.8c-0.7,0-1.3,0.2-1.7,0.7S8.8,6.3,8.8,7c0,0.2,0,0.4,0.1,0.6c-1-0.1-2-0.3-2.8-0.8 S4.4,5.7,3.8,4.9C3.6,5.3,3.5,5.8,3.5,6.2c0,0.9,0.4,1.6,1.1,2.1c-0.4,0-0.8-0.1-1.2-0.3v0c0,0.6,0.2,1.1,0.6,1.6s0.9,0.7,1.4,0.8 c-0.2,0.1-0.4,0.1-0.6,0.1c-0.1,0-0.3,0-0.5,0c0.2,0.5,0.5,0.9,0.9,1.2s0.9,0.5,1.4,0.5c-0.9,0.7-1.9,1.1-3.1,1.1 c-0.2,0-0.4,0-0.6,0c1.2,0.7,2.4,1.1,3.8,1.1c0.9,0,1.7-0.1,2.5-0.4s1.4-0.6,2-1.1s1-1,1.4-1.6s0.7-1.2,0.9-1.9s0.3-1.3,0.3-2 c0-0.1,0-0.2,0-0.3C14.3,6.6,14.7,6.1,15,5.6z" /></svg>
